HydorusNeueLight.ufo
<glyph name="exclam" format="2">
  <advance width="300"/>
  <unicode hex="0021"/>
  <outline>
    <contour>
      <point x="109" y="785" type="line"/>
      <point x="124" y="165" type="line"/>
      <point x="176" y="165" type="line"/>
      <point x="191" y="785" type="line"/>
    </contour>
    <contour>
      <point x="98" y="79" type="line"/>
      <point x="98" y="-25" type="line"/>
      <point x="202" y="-25" type="line"/>
      <point x="202" y="79" type="line"/>
    </contour>
  </outline>
</glyph>
<glyph name="dollar" format="2">
  <advance width="760"/>
  <unicode hex="0024"/>
  <outline>
    <contour>
      <point x="346" y="855" type="line"/>
      <point x="346" y="761" type="line"/>
      <point x="209" y="751"/>
      <point x="130" y="681"/>
      <point x="130" y="570" type="curve" smooth="yes"/>
      <point x="130" y="483"/>
      <point x="194" y="420"/>
      <point x="322" y="383" type="curve" smooth="yes"/>
      <point x="346" y="376" type="line"/>
      <point x="346" y="55" type="line"/>
      <point x="255" y="63"/>
      <point x="174" y="96"/>
      <point x="127" y="143" type="curve"/>
      <point x="89" y="102" type="line"/>
      <point x="150" y="44"/>
      <point x="240" y="8"/>
      <point x="346" y="0" type="curve"/>
      <point x="346" y="-95" type="line"/>
      <point x="397" y="-95" type="line"/>
      <point x="397" y="-1" type="line"/>
      <point x="551" y="6"/>
      <point x="638" y="79"/>
      <point x="638" y="203" type="curve" smooth="yes"/>
      <point x="638" y="328.062"/>
      <point x="526.246" y="378.066"/>
      <point x="426" y="413" type="curve" smooth="yes"/>
      <point x="397" y="423" type="line"/>
      <point x="397" y="709" type="line"/>
      <point x="460" y="702"/>
      <point x="519" y="678"/>
      <point x="570" y="640" type="curve"/>
      <point x="602" y="687" type="line"/>
      <point x="536" y="732"/>
      <point x="470" y="756"/>
      <point x="397" y="760" type="curve"/>
      <point x="397" y="855" type="line"/>
    </contour>
    <contour>
      <point x="397" y="361" type="line"/>
      <point x="479.584" y="334.405"/>
      <point x="568" y="293.8"/>
      <point x="568" y="193" type="curve" smooth="yes"/>
      <point x="568" y="91.1831"/>
      <point x="482.615" y="58.9731"/>
      <point x="397" y="53" type="curve"/>
    </contour>
    <contour>
      <point x="346" y="439" type="line"/>
      <point x="233" y="478"/>
      <point x="195" y="513"/>
      <point x="195" y="577" type="curve" smooth="yes"/>
      <point x="195" y="650"/>
      <point x="254" y="702"/>
      <point x="346" y="710" type="curve"/>
    </contour>
  </outline>
</glyph>
<glyph name="ampersand" format="2">
  <advance width="870"/>
  <unicode hex="0026"/>
  <outline>
    <contour>
      <point x="797" y="20" type="line"/>
      <point x="740" y="64"/>
      <point x="672" y="120"/>
      <point x="649" y="143" type="curve"/>
      <point x="685" y="189"/>
      <point x="719" y="265"/>
      <point x="744" y="354" type="curve"/>
      <point x="690" y="378" type="line"/>
      <point x="674" y="305"/>
      <point x="641" y="226"/>
      <point x="608" y="180" type="curve"/>
      <point x="550" y="231"/>
      <point x="446" y="338"/>
      <point x="386" y="408" type="curve"/>
      <point x="523" y="473"/>
      <point x="578" y="536"/>
      <point x="578" y="626" type="curve" smooth="yes"/>
      <point x="578" y="724"/>
      <point x="497" y="799"/>
      <point x="390" y="799" type="curve" smooth="yes"/>
      <point x="284" y="799"/>
      <point x="206" y="724"/>
      <point x="206" y="623" type="curve" smooth="yes"/>
      <point x="206" y="562"/>
      <point x="228" y="515"/>
      <point x="301" y="423" type="curve"/>
      <point x="163" y="362"/>
      <point x="95" y="281"/>
      <point x="95" y="179" type="curve" smooth="yes"/>
      <point x="95" y="57"/>
      <point x="198" y="-32"/>
      <point x="339" y="-32" type="curve" smooth="yes"/>
      <point x="452" y="-32"/>
      <point x="538" y="7"/>
      <point x="615" y="95" type="curve"/>
      <point x="659.611" y="53.9582"/>
      <point x="703.277" y="11.6675"/>
      <point x="750" y="-27" type="curve"/>
    </contour>
    <contour>
      <point x="336" y="383" type="curve"/>
      <point x="418" y="288"/>
      <point x="525" y="175"/>
      <point x="573" y="132" type="curve"/>
      <point x="518" y="63"/>
      <point x="440" y="26"/>
      <point x="349" y="26" type="curve" smooth="yes"/>
      <point x="232" y="26"/>
      <point x="159" y="85"/>
      <point x="159" y="178" type="curve" smooth="yes"/>
      <point x="159" y="264"/>
      <point x="219" y="333"/>
    </contour>
    <contour>
      <point x="353" y="450" type="curve"/>
      <point x="297" y="514"/>
      <point x="267" y="571"/>
      <point x="267" y="623" type="curve" smooth="yes"/>
      <point x="267" y="692"/>
      <point x="320" y="744"/>
      <point x="389" y="744" type="curve" smooth="yes"/>
      <point x="458" y="744"/>
      <point x="515" y="690"/>
      <point x="515" y="625" type="curve" smooth="yes"/>
      <point x="515" y="552"/>
      <point x="464" y="497"/>
    </contour>
  </outline>
</glyph>
<glyph name="asterisk" format="2">
  <advance width="440"/>
  <unicode hex="002A"/>
  <outline>
    <contour>
      <point x="209" y="598" type="curve"/>
      <point x="142" y="671"/>
      <point x="107" y="697"/>
      <point x="88" y="697" type="curve" smooth="yes"/>
      <point x="68" y="697"/>
      <point x="48" y="675"/>
      <point x="48" y="653" type="curve" smooth="yes"/>
      <point x="48" y="625"/>
      <point x="85" y="605"/>
      <point x="205" y="580" type="curve"/>
      <point x="85" y="555"/>
      <point x="48" y="534"/>
      <point x="48" y="507" type="curve" smooth="yes"/>
      <point x="48" y="485"/>
      <point x="68" y="463"/>
      <point x="88" y="463" type="curve" smooth="yes"/>
      <point x="107" y="463"/>
      <point x="143" y="490"/>
      <point x="209" y="562" type="curve"/>
      <point x="186" y="481"/>
      <point x="179" y="447"/>
      <point x="179" y="426" type="curve" smooth="yes"/>
      <point x="179" y="404"/>
      <point x="195" y="390"/>
      <point x="219" y="390" type="curve" smooth="yes"/>
      <point x="244" y="390"/>
      <point x="260" y="404"/>
      <point x="260" y="426" type="curve" smooth="yes"/>
      <point x="260" y="445"/>
      <point x="252" y="486"/>
      <point x="231" y="562" type="curve"/>
      <point x="296" y="490"/>
      <point x="332" y="463"/>
      <point x="351" y="463" type="curve" smooth="yes"/>
      <point x="371" y="463"/>
      <point x="391" y="485"/>
      <point x="391" y="507" type="curve" smooth="yes"/>
      <point x="391" y="534"/>
      <point x="353" y="555"/>
      <point x="235" y="580" type="curve"/>
      <point x="354" y="605"/>
      <point x="391" y="625"/>
      <point x="391" y="653" type="curve" smooth="yes"/>
      <point x="391" y="675"/>
      <point x="371" y="697"/>
      <point x="351" y="697" type="curve" smooth="yes"/>
      <point x="332" y="697"/>
      <point x="298" y="671"/>
      <point x="231" y="598" type="curve"/>
      <point x="252" y="675"/>
      <point x="260" y="714"/>
      <point x="260" y="734" type="curve" smooth="yes"/>
      <point x="260" y="755"/>
      <point x="244" y="770"/>
      <point x="220" y="770" type="curve" smooth="yes"/>
      <point x="195" y="770"/>
      <point x="179" y="756"/>
      <point x="179" y="733" type="curve" smooth="yes"/>
      <point x="179" y="714"/>
      <point x="187" y="672"/>
    </contour>
  </outline>
</glyph>
<glyph name="comma" format="2">
  <advance width="320"/>
  <unicode hex="002C"/>
  <outline>
    <contour>
      <point x="70" y="141" type="line"/>
      <point x="70" y="21" type="line"/>
      <point x="130" y="21" type="line"/>
      <point x="123" y="-29"/>
      <point x="97" y="-78"/>
      <point x="55" y="-119" type="curve"/>
      <point x="107" y="-119" type="line"/>
      <point x="160" y="-71"/>
      <point x="190" y="-5"/>
      <point x="190" y="68" type="curve" smooth="yes"/>
      <point x="190" y="141" type="line"/>
    </contour>
  </outline>
</glyph>
<glyph name="hyphen" format="2">
  <advance width="480"/>
  <unicode hex="002D"/>
  <unicode hex="2011"/>
  <outline>
    <contour>
      <point x="73" y="377" type="line"/>
      <point x="73" y="323" type="line"/>
      <point x="407" y="323" type="line"/>
      <point x="407" y="377" type="line"/>
    </contour>
  </outline>
</glyph>
<glyph name="four" format="2">
  <advance width="740"/>
  <unicode hex="0034"/>
  <outline>
    <contour>
      <point x="434" y="790" type="line"/>
      <point x="31" y="233" type="line"/>
      <point x="31" y="180" type="line"/>
      <point x="450" y="180" type="line"/>
      <point x="450" y="-25" type="line"/>
      <point x="510" y="-25" type="line"/>
      <point x="510" y="180" type="line"/>
      <point x="674" y="180" type="line"/>
      <point x="674" y="235" type="line"/>
      <point x="510" y="235" type="line"/>
      <point x="510" y="790" type="line"/>
    </contour>
    <contour>
      <point x="450" y="235" type="line"/>
      <point x="101" y="235" type="line"/>
      <point x="381" y="627" type="line" smooth="yes"/>
      <point x="403" y="659"/>
      <point x="424" y="691"/>
      <point x="449" y="737" type="curve"/>
      <point x="453" y="737" type="line"/>
      <point x="451" y="684"/>
      <point x="450" y="629"/>
      <point x="450" y="570" type="curve" smooth="yes"/>
    </contour>
  </outline>
</glyph>
<glyph name="five" format="2">
  <advance width="740"/>
  <unicode hex="0035"/>
  <outline>
    <contour>
      <point x="162" y="785" type="line"/>
      <point x="117" y="341" type="line"/>
      <point x="177" y="334" type="line"/>
      <point x="215" y="385"/>
      <point x="300" y="424"/>
      <point x="376" y="424" type="curve" smooth="yes"/>
      <point x="498" y="424"/>
      <point x="579" y="346"/>
      <point x="579" y="226" type="curve" smooth="yes"/>
      <point x="579" y="108"/>
      <point x="489" y="18"/>
      <point x="370" y="18" type="curve" smooth="yes"/>
      <point x="285" y="18"/>
      <point x="201" y="46"/>
      <point x="144" y="93" type="curve"/>
      <point x="107" y="47" type="line"/>
      <point x="175" y="-10"/>
      <point x="263" y="-39"/>
      <point x="369" y="-39" type="curve" smooth="yes"/>
      <point x="533" y="-39"/>
      <point x="650" y="72"/>
      <point x="650" y="227" type="curve" smooth="yes"/>
      <point x="650" y="377"/>
      <point x="542" y="479"/>
      <point x="384" y="479" type="curve" smooth="yes"/>
      <point x="307" y="479"/>
      <point x="238" y="453"/>
      <point x="188" y="405" type="curve"/>
      <point x="184" y="405" type="line"/>
      <point x="219" y="729" type="line"/>
      <point x="604" y="729" type="line"/>
      <point x="604" y="785" type="line"/>
    </contour>
  </outline>
</glyph>
<glyph name="seven" format="2">
  <advance width="740"/>
  <unicode hex="0037"/>
  <outline>
    <contour>
      <point x="109" y="785" type="line"/>
      <point x="109" y="729" type="line"/>
      <point x="595" y="729" type="line"/>
      <point x="464" y="465"/>
      <point x="358" y="162"/>
      <point x="330" y="-25" type="curve"/>
      <point x="395" y="-25" type="line"/>
      <point x="442" y="230"/>
      <point x="529" y="474"/>
      <point x="667" y="738" type="curve"/>
      <point x="667" y="785" type="line"/>
    </contour>
  </outline>
</glyph>
<glyph name="eight" format="2">
  <advance width="740"/>
  <unicode hex="0038"/>
  <outline>
    <contour>
      <point x="275" y="384" type="line"/>
      <point x="154" y="346"/>
      <point x="84" y="270"/>
      <point x="84" y="176" type="curve" smooth="yes"/>
      <point x="84" y="46"/>
      <point x="196" y="-39"/>
      <point x="368" y="-39" type="curve" smooth="yes"/>
      <point x="537" y="-39"/>
      <point x="652" y="49"/>
      <point x="652" y="179" type="curve" smooth="yes"/>
      <point x="652" y="297.989"/>
      <point x="543.468" y="363.174"/>
      <point x="443" y="393" type="curve"/>
      <point x="443" y="396" type="line"/>
      <point x="538.699" y="417.532"/>
      <point x="629" y="489.585"/>
      <point x="629" y="595" type="curve" smooth="yes"/>
      <point x="629" y="711"/>
      <point x="516" y="799"/>
      <point x="369" y="799" type="curve" smooth="yes"/>
      <point x="217" y="799"/>
      <point x="108" y="710"/>
      <point x="108" y="587" type="curve" smooth="yes"/>
      <point x="108" y="482.368"/>
      <point x="185.691" y="422.253"/>
      <point x="275" y="387" type="curve"/>
    </contour>
    <contour>
      <point x="370" y="416" type="curve"/>
      <point x="332.702" y="406.676"/>
      <point x="175" y="475.736"/>
      <point x="175" y="590" type="curve" smooth="yes"/>
      <point x="175" y="684"/>
      <point x="254" y="748"/>
      <point x="370" y="748" type="curve" smooth="yes"/>
      <point x="483" y="748"/>
      <point x="565" y="681"/>
      <point x="565" y="589" type="curve" smooth="yes"/>
      <point x="565" y="508"/>
      <point x="492" y="443"/>
    </contour>
    <contour>
      <point x="361" y="371" type="curve"/>
      <point x="377.351" y="376.45"/>
      <point x="585" y="309.032"/>
      <point x="585" y="184" type="curve" smooth="yes"/>
      <point x="585" y="86"/>
      <point x="497" y="18"/>
      <point x="369" y="18" type="curve" smooth="yes"/>
      <point x="234" y="18"/>
      <point x="150" y="79"/>
      <point x="150" y="179" type="curve" smooth="yes"/>
      <point x="150" y="288.384"/>
      <point x="269.774" y="346.768"/>
    </contour>
  </outline>
</glyph>
<glyph name="colon" format="2">
  <advance width="340"/>
  <unicode hex="003A"/>
  <outline>
    <contour>
      <point x="113" y="565" type="line"/>
      <point x="113" y="451" type="line"/>
      <point x="227" y="451" type="line"/>
      <point x="227" y="565" type="line"/>
    </contour>
    <contour>
      <point x="113" y="89" type="line"/>
      <point x="113" y="-25" type="line"/>
      <point x="227" y="-25" type="line"/>
      <point x="227" y="89" type="line"/>
    </contour>
  </outline>
</glyph>
<glyph name="equal" format="2">
  <advance width="840"/>
  <unicode hex="003D"/>
  <outline>
    <contour>
      <point x="90" y="493" type="line"/>
      <point x="90" y="441" type="line"/>
      <point x="750" y="441" type="line"/>
      <point x="750" y="493" type="line"/>
    </contour>
    <contour>
      <point x="90" y="259" type="line"/>
      <point x="90" y="207" type="line"/>
      <point x="750" y="207" type="line"/>
      <point x="750" y="259" type="line"/>
    </contour>
  </outline>
</glyph>
<glyph name="greater" format="2">
  <advance width="840"/>
  <unicode hex="003E"/>
  <outline>
    <contour>
      <point x="90" y="669" type="line"/>
      <point x="90" y="616" type="line"/>
      <point x="658" y="350" type="line"/>
      <point x="90" y="84" type="line"/>
      <point x="90" y="31" type="line"/>
      <point x="764" y="350" type="line"/>
    </contour>
  </outline>
</glyph>
<glyph name="at" format="2">
  <advance width="980"/>
  <unicode hex="0040"/>
  <outline>
    <contour>
      <point x="648" y="598" type="line"/>
      <point x="621" y="527" type="line"/>
      <point x="602" y="581"/>
      <point x="556" y="611"/>
      <point x="489" y="611" type="curve" smooth="yes"/>
      <point x="360" y="611"/>
      <point x="254" y="491"/>
      <point x="254" y="345" type="curve" smooth="yes"/>
      <point x="254" y="225"/>
      <point x="318" y="150"/>
      <point x="419" y="150" type="curve" smooth="yes"/>
      <point x="491" y="150"/>
      <point x="559" y="195"/>
      <point x="595" y="265" type="curve"/>
      <point x="601" y="199"/>
      <point x="643" y="158"/>
      <point x="706" y="158" type="curve" smooth="yes"/>
      <point x="838.076" y="158"/>
      <point x="893" y="307.004"/>
      <point x="893" y="417" type="curve" smooth="yes"/>
      <point x="893" y="639"/>
      <point x="725" y="803"/>
      <point x="497" y="803" type="curve" smooth="yes"/>
      <point x="262" y="803"/>
      <point x="71" y="613"/>
      <point x="71" y="379" type="curve" smooth="yes"/>
      <point x="71" y="136"/>
      <point x="249" y="-40"/>
      <point x="495" y="-40" type="curve" smooth="yes"/>
      <point x="640" y="-40"/>
      <point x="766" y="9"/>
      <point x="863" y="105" type="curve"/>
      <point x="830" y="145" type="line"/>
      <point x="735" y="49"/>
      <point x="634" y="8"/>
      <point x="496" y="8" type="curve" smooth="yes"/>
      <point x="277" y="8"/>
      <point x="119" y="164"/>
      <point x="119" y="379" type="curve" smooth="yes"/>
      <point x="119" y="593"/>
      <point x="282" y="755"/>
      <point x="497" y="755" type="curve" smooth="yes"/>
      <point x="698" y="755"/>
      <point x="845" y="613"/>
      <point x="845" y="417" type="curve" smooth="yes"/>
      <point x="845" y="301"/>
      <point x="785" y="206"/>
      <point x="711" y="206" type="curve" smooth="yes"/>
      <point x="570.23" y="206"/>
      <point x="666.19" y="513.846"/>
      <point x="691" y="577" type="curve"/>
    </contour>
    <contour>
      <point x="488" y="566" type="curve" smooth="yes"/>
      <point x="558" y="566"/>
      <point x="597" y="517"/>
      <point x="597" y="429" type="curve" smooth="yes"/>
      <point x="597" y="335.69"/>
      <point x="526.99" y="198"/>
      <point x="421" y="198" type="curve" smooth="yes"/>
      <point x="354" y="198"/>
      <point x="312" y="251"/>
      <point x="312" y="337" type="curve" smooth="yes"/>
      <point x="312" y="460"/>
      <point x="393" y="566"/>
    </contour>
  </outline>
</glyph>
<glyph name="A" format="2">
  <advance width="740"/>
  <unicode hex="0041"/>
  <outline>
    <contour>
      <point x="337" y="789" type="line"/>
      <point x="11" y="-25" type="line"/>
      <point x="82" y="-25" type="line"/>
      <point x="181" y="227" type="line"/>
      <point x="559" y="227" type="line"/>
      <point x="658" y="-25" type="line"/>
      <point x="729" y="-25" type="line"/>
      <point x="403" y="789" type="line"/>
    </contour>
    <contour>
      <point x="539" y="282" type="line"/>
      <point x="201" y="282" type="line"/>
      <point x="293" y="521" type="line"/>
      <point x="342" y="648"/>
      <point x="359" y="694"/>
      <point x="368" y="723" type="curve"/>
      <point x="372" y="723" type="line"/>
      <point x="391.486" y="654.8"/>
      <point x="420.689" y="586.778"/>
      <point x="447" y="521" type="curve"/>
    </contour>
  </outline>
</glyph>
<glyph name="B" format="2">
  <advance width="750"/>
  <unicode hex="0042"/>
  <outline>
    <contour>
      <point x="107" y="785" type="line"/>
      <point x="107" y="-25" type="line"/>
      <point x="378" y="-25" type="line" smooth="yes"/>
      <point x="578" y="-25"/>
      <point x="687" y="54"/>
      <point x="687" y="198" type="curve" smooth="yes"/>
      <point x="687" y="298"/>
      <point x="614" y="368"/>
      <point x="480" y="396" type="curve"/>
      <point x="480" y="399" type="line"/>
      <point x="592" y="426"/>
      <point x="645" y="485"/>
      <point x="645" y="582" type="curve" smooth="yes"/>
      <point x="645" y="750.164"/>
      <point x="482.877" y="785"/>
      <point x="349" y="785" type="curve" smooth="yes"/>
    </contour>
    <contour>
      <point x="168" y="732" type="line"/>
      <point x="349" y="732" type="line" smooth="yes"/>
      <point x="498" y="732"/>
      <point x="578" y="678"/>
      <point x="578" y="576" type="curve" smooth="yes"/>
      <point x="578" y="481"/>
      <point x="491" y="425"/>
      <point x="342" y="425" type="curve" smooth="yes"/>
      <point x="168" y="425" type="line"/>
    </contour>
    <contour>
      <point x="168" y="373" type="line"/>
      <point x="349" y="373" type="line" smooth="yes"/>
      <point x="454.943" y="373"/>
      <point x="619" y="328.429"/>
      <point x="619" y="198" type="curve" smooth="yes"/>
      <point x="619" y="62.7616"/>
      <point x="487.385" y="29"/>
      <point x="378" y="29" type="curve" smooth="yes"/>
      <point x="168" y="29" type="line"/>
    </contour>
  </outline>
</glyph>
<glyph name="C" format="2">
  <advance width="790"/>
  <unicode hex="0043"/>
  <outline>
    <contour>
      <point x="698" y="121" type="line"/>
      <point x="627" y="53"/>
      <point x="543" y="19"/>
      <point x="443" y="19" type="curve" smooth="yes"/>
      <point x="247.437" y="19"/>
      <point x="128" y="193.57"/>
      <point x="128" y="375" type="curve" smooth="yes"/>
      <point x="128" y="562.801"/>
      <point x="241.416" y="741"/>
      <point x="444" y="741" type="curve" smooth="yes"/>
      <point x="541" y="741"/>
      <point x="606" y="714"/>
      <point x="675" y="645" type="curve"/>
      <point x="715" y="693" type="line"/>
      <point x="633" y="767"/>
      <point x="550" y="799"/>
      <point x="440" y="799" type="curve" smooth="yes"/>
      <point x="224" y="799"/>
      <point x="61" y="619"/>
      <point x="61" y="378" type="curve" smooth="yes"/>
      <point x="61" y="150.646"/>
      <point x="205.588" y="-39"/>
      <point x="445" y="-39" type="curve" smooth="yes"/>
      <point x="555" y="-39"/>
      <point x="652" y="-4"/>
      <point x="737" y="68" type="curve"/>
    </contour>
  </outline>
</glyph>
<glyph name="D" format="2">
  <advance width="820"/>
  <unicode hex="0044"/>
  <outline>
    <contour>
      <point x="93" y="785" type="line"/>
      <point x="93" y="-25" type="line"/>
      <point x="309" y="-25" type="line" smooth="yes"/>
      <point x="569.668" y="-25"/>
      <point x="762" y="95.1416"/>
      <point x="762" y="381" type="curve" smooth="yes"/>
      <point x="762" y="656.149"/>
      <point x="570.914" y="785"/>
      <point x="317" y="785" type="curve" smooth="yes"/>
    </contour>
    <contour>
      <point x="154" y="729" type="line"/>
      <point x="319" y="729" type="line" smooth="yes"/>
      <point x="561" y="729"/>
      <point x="695" y="604"/>
      <point x="695" y="380" type="curve" smooth="yes"/>
      <point x="695" y="161"/>
      <point x="553" y="31"/>
      <point x="313" y="31" type="curve" smooth="yes"/>
      <point x="154" y="31" type="line"/>
    </contour>
  </outline>
</glyph>
<glyph name="E" format="2">
  <advance width="680"/>
  <unicode hex="0045"/>
  <outline>
    <contour>
      <point x="99" y="785" type="line"/>
      <point x="99" y="-25" type="line"/>
      <point x="622" y="-25" type="line"/>
      <point x="622" y="31" type="line"/>
      <point x="160" y="31" type="line"/>
      <point x="160" y="371" type="line"/>
      <point x="564" y="371" type="line"/>
      <point x="564" y="426" type="line"/>
      <point x="160" y="426" type="line"/>
      <point x="160" y="729" type="line"/>
      <point x="609" y="729" type="line"/>
      <point x="609" y="785" type="line"/>
    </contour>
  </outline>
</glyph>
<glyph name="F" format="2">
  <advance width="640"/>
  <unicode hex="0046"/>
  <outline>
    <contour>
      <point x="101" y="785" type="line"/>
      <point x="101" y="-25" type="line"/>
      <point x="162" y="-25" type="line"/>
      <point x="162" y="371" type="line"/>
      <point x="549" y="371" type="line"/>
      <point x="549" y="425" type="line"/>
      <point x="162" y="425" type="line"/>
      <point x="162" y="729" type="line"/>
      <point x="594" y="729" type="line"/>
      <point x="594" y="785" type="line"/>
    </contour>
  </outline>
</glyph>
<glyph name="G" format="2">
  <advance width="820"/>
  <unicode hex="0047"/>
  <outline>
    <contour>
      <point x="689" y="-29" type="line"/>
      <point x="739" y="-29" type="line"/>
      <point x="739" y="358" type="line"/>
      <point x="438" y="358" type="line"/>
      <point x="438" y="303" type="line"/>
      <point x="679" y="303" type="line"/>
      <point x="679" y="158" type="line"/>
      <point x="611" y="66"/>
      <point x="530" y="19"/>
      <point x="436" y="19" type="curve" smooth="yes"/>
      <point x="229.761" y="19"/>
      <point x="123" y="186.37"/>
      <point x="123" y="375" type="curve" smooth="yes"/>
      <point x="123" y="573.72"/>
      <point x="225.681" y="741"/>
      <point x="443" y="741" type="curve" smooth="yes"/>
      <point x="546" y="741"/>
      <point x="612" y="717"/>
      <point x="677" y="657" type="curve"/>
      <point x="713" y="708" type="line"/>
      <point x="623" y="776"/>
      <point x="555" y="799"/>
      <point x="441" y="799" type="curve" smooth="yes"/>
      <point x="214" y="799"/>
      <point x="56" y="626"/>
      <point x="56" y="377" type="curve" smooth="yes"/>
      <point x="56" y="126"/>
      <point x="206" y="-39"/>
      <point x="434" y="-39" type="curve" smooth="yes"/>
      <point x="533" y="-39"/>
      <point x="619" y="4"/>
      <point x="679" y="85" type="curve"/>
    </contour>
  </outline>
</glyph>
<glyph name="H" format="2">
  <advance width="800"/>
  <unicode hex="0048"/>
  <outline>
    <contour>
      <point x="99" y="785" type="line"/>
      <point x="99" y="-25" type="line"/>
      <point x="159" y="-25" type="line"/>
      <point x="159" y="369" type="line"/>
      <point x="641" y="369" type="line"/>
      <point x="641" y="-25" type="line"/>
      <point x="701" y="-25" type="line"/>
      <point x="701" y="785" type="line"/>
      <point x="641" y="785" type="line"/>
      <point x="641" y="423" type="line"/>
      <point x="159" y="423" type="line"/>
      <point x="159" y="785" type="line"/>
    </contour>
  </outline>
</glyph>
<glyph name="I" format="2">
  <advance width="380"/>
  <unicode hex="0049"/>
  <outline>
    <contour>
      <point x="60" y="785" type="line"/>
      <point x="60" y="730" type="line"/>
      <point x="160" y="730" type="line"/>
      <point x="160" y="30" type="line"/>
      <point x="60" y="30" type="line"/>
      <point x="60" y="-25" type="line"/>
      <point x="320" y="-25" type="line"/>
      <point x="320" y="30" type="line"/>
      <point x="220" y="30" type="line"/>
      <point x="220" y="730" type="line"/>
      <point x="320" y="730" type="line"/>
      <point x="320" y="785" type="line"/>
    </contour>
  </outline>
</glyph>
<glyph name="J" format="2">
  <advance width="520"/>
  <unicode hex="004A"/>
  <outline>
    <contour>
      <point x="338" y="785" type="line"/>
      <point x="338" y="190" type="line" smooth="yes"/>
      <point x="338" y="74"/>
      <point x="292" y="19"/>
      <point x="193" y="19" type="curve" smooth="yes"/>
      <point x="126" y="19"/>
      <point x="72" y="61"/>
      <point x="37" y="141" type="curve"/>
      <point x="-4" y="102" type="line"/>
      <point x="37" y="9"/>
      <point x="104" y="-39"/>
      <point x="192" y="-39" type="curve" smooth="yes"/>
      <point x="347.776" y="-39"/>
      <point x="400" y="45"/>
      <point x="400" y="188" type="curve" smooth="yes"/>
      <point x="400" y="785" type="line"/>
    </contour>
  </outline>
</glyph>
<glyph name="K" format="2">
  <advance width="720"/>
  <unicode hex="004B"/>
  <outline>
    <contour>
      <point x="100" y="785" type="line"/>
      <point x="100" y="-25" type="line"/>
      <point x="161" y="-25" type="line"/>
      <point x="161" y="308" type="line"/>
      <point x="265" y="406" type="line"/>
      <point x="602" y="-25" type="line"/>
      <point x="688" y="-25" type="line"/>
      <point x="307" y="442" type="line"/>
      <point x="652" y="785" type="line"/>
      <point x="574" y="785" type="line"/>
      <point x="161" y="380" type="line"/>
      <point x="161" y="785" type="line"/>
    </contour>
  </outline>
</glyph>
<glyph name="L" format="2">
  <advance width="580"/>
  <unicode hex="004C"/>
  <outline>
    <contour>
      <point x="104" y="785" type="line"/>
      <point x="104" y="-25" type="line"/>
      <point x="575" y="-25" type="line"/>
      <point x="575" y="31" type="line"/>
      <point x="167" y="31" type="line"/>
      <point x="167" y="785" type="line"/>
    </contour>
  </outline>
</glyph>
<glyph name="S" format="2">
  <advance width="690"/>
  <unicode hex="0053"/>
  <outline>
    <contour>
      <point x="40" y="93" type="line"/>
      <point x="115" y="8"/>
      <point x="227" y="-39"/>
      <point x="353" y="-39" type="curve" smooth="yes"/>
      <point x="519" y="-39"/>
      <point x="626" y="47"/>
      <point x="626" y="181" type="curve" smooth="yes"/>
      <point x="626" y="288"/>
      <point x="555" y="363"/>
      <point x="408" y="411" type="curve" smooth="yes"/>
      <point x="334" y="435" type="line" smooth="yes"/>
      <point x="200" y="478"/>
      <point x="150" y="522"/>
      <point x="150" y="596" type="curve" smooth="yes"/>
      <point x="150" y="687"/>
      <point x="220" y="744"/>
      <point x="331" y="744" type="curve" smooth="yes"/>
      <point x="412" y="744"/>
      <point x="496" y="713"/>
      <point x="555" y="661" type="curve"/>
      <point x="589" y="712" type="line"/>
      <point x="512" y="770"/>
      <point x="427" y="799"/>
      <point x="335" y="799" type="curve" smooth="yes"/>
      <point x="184" y="799"/>
      <point x="84" y="716"/>
      <point x="84" y="590" type="curve" smooth="yes"/>
      <point x="84" y="475.673"/>
      <point x="194.441" y="417.862"/>
      <point x="290" y="388" type="curve" smooth="yes"/>
      <point x="358" y="366" type="line" smooth="yes"/>
      <point x="454.899" y="334.854"/>
      <point x="557" y="296.184"/>
      <point x="557" y="178" type="curve" smooth="yes"/>
      <point x="557" y="80"/>
      <point x="480" y="20"/>
      <point x="355" y="20" type="curve" smooth="yes"/>
      <point x="247" y="20"/>
      <point x="149" y="63"/>
      <point x="80" y="141" type="curve"/>
    </contour>
  </outline>
</glyph>
<glyph name="bracketleft" format="2">
  <advance width="500"/>
  <unicode hex="005B"/>
  <outline>
    <contour>
      <point x="180" y="830" type="line"/>
      <point x="180" y="-250" type="line"/>
      <point x="430" y="-250" type="line"/>
      <point x="430" y="-190" type="line"/>
      <point x="240" y="-190" type="line"/>
      <point x="240" y="770" type="line"/>
      <point x="430" y="770" type="line"/>
      <point x="430" y="830" type="line"/>
    </contour>
  </outline>
</glyph>
<glyph name="bracketright" format="2">
  <advance width="500"/>
  <unicode hex="005D"/>
  <outline>
    <contour>
      <point x="320" y="830" type="line"/>
      <point x="70" y="830" type="line"/>
      <point x="70" y="770" type="line"/>
      <point x="260" y="770" type="line"/>
      <point x="260" y="-190" type="line"/>
      <point x="70" y="-190" type="line"/>
      <point x="70" y="-250" type="line"/>
      <point x="320" y="-250" type="line"/>
    </contour>
  </outline>
</glyph>
<glyph name="asciicircum" format="2">
  <advance width="570"/>
  <unicode hex="005E"/>
  <outline>
    <contour>
      <point x="534" y="387" type="line"/>
      <point x="285" y="670" type="line"/>
      <point x="36" y="387" type="line"/>
      <point x="74" y="348" type="line"/>
      <point x="285" y="596" type="line"/>
      <point x="496" y="348" type="line"/>
    </contour>
  </outline>
</glyph>
<glyph name="grave" format="2">
  <advance width="500"/>
  <unicode hex="0060"/>
  <unicode hex="0300"/>
  <outline>
    <contour>
      <point x="216" y="781" type="line"/>
      <point x="122" y="781" type="line"/>
      <point x="285" y="658" type="line"/>
      <point x="348" y="658" type="line"/>
    </contour>
  </outline>
</glyph>
<glyph name="a" format="2">
  <advance width="630"/>
  <unicode hex="0061"/>
  <outline>
    <contour>
      <point x="482" y="341" type="line"/>
      <point x="402" y="341" type="line" smooth="yes"/>
      <point x="271.992" y="341"/>
      <point x="52" y="313.667"/>
      <point x="52" y="139" type="curve" smooth="yes"/>
      <point x="52" y="34"/>
      <point x="135" y="-42"/>
      <point x="247" y="-42" type="curve" smooth="yes"/>
      <point x="349" y="-42"/>
      <point x="431" y="3"/>
      <point x="482" y="87" type="curve"/>
      <point x="486" y="87" type="line"/>
      <point x="493" y="41"/>
      <point x="504" y="-5"/>
      <point x="514" y="-25" type="curve"/>
      <point x="576" y="-25" type="line"/>
      <point x="555" y="10"/>
      <point x="541" y="84"/>
      <point x="541" y="149" type="curve" smooth="yes"/>
      <point x="541" y="367" type="line" smooth="yes"/>
      <point x="541" y="501"/>
      <point x="457" y="576"/>
      <point x="307" y="576" type="curve" smooth="yes"/>
      <point x="224" y="576"/>
      <point x="136" y="545"/>
      <point x="75" y="493" type="curve"/>
      <point x="108" y="449" type="line"/>
      <point x="174" y="499"/>
      <point x="234" y="521"/>
      <point x="308" y="521" type="curve" smooth="yes"/>
      <point x="413.423" y="521"/>
      <point x="482" y="483.198"/>
      <point x="482" y="368" type="curve" smooth="yes"/>
    </contour>
    <contour>
      <point x="482" y="291" type="line"/>
      <point x="482" y="210" type="line" smooth="yes"/>
      <point x="482" y="94.7838"/>
      <point x="358.344" y="14"/>
      <point x="253" y="14" type="curve" smooth="yes"/>
      <point x="172" y="14"/>
      <point x="116" y="64"/>
      <point x="116" y="138" type="curve" smooth="yes"/>
      <point x="116" y="237"/>
      <point x="216" y="291"/>
      <point x="400" y="291" type="curve" smooth="yes"/>
    </contour>
  </outline>
</glyph>
<glyph name="b" format="2">
  <advance width="690"/>
  <unicode hex="0062"/>
  <outline>
    <contour>
      <point x="99" y="830" type="line"/>
      <point x="99" y="-28" type="line"/>
      <point x="148" y="-28" type="line"/>
      <point x="157" y="61" type="line"/>
      <point x="200" y="-4"/>
      <point x="270" y="-40"/>
      <point x="357" y="-40" type="curve" smooth="yes"/>
      <point x="521" y="-40"/>
      <point x="635" y="87"/>
      <point x="635" y="271" type="curve" smooth="yes"/>
      <point x="635" y="449"/>
      <point x="519" y="578"/>
      <point x="359" y="578" type="curve" smooth="yes"/>
      <point x="276" y="578"/>
      <point x="197" y="530"/>
      <point x="158" y="456" type="curve"/>
      <point x="158" y="830" type="line"/>
    </contour>
    <contour>
      <point x="158" y="366" type="line"/>
      <point x="206" y="469"/>
      <point x="275" y="523"/>
      <point x="356" y="523" type="curve" smooth="yes"/>
      <point x="482" y="523"/>
      <point x="573" y="416"/>
      <point x="573" y="268" type="curve" smooth="yes"/>
      <point x="573" y="119"/>
      <point x="484" y="15"/>
      <point x="356" y="15" type="curve" smooth="yes"/>
      <point x="275" y="15"/>
      <point x="205" y="59"/>
      <point x="158" y="138" type="curve"/>
    </contour>
  </outline>
</glyph>
<glyph name="c" format="2">
  <advance width="620"/>
  <unicode hex="0063"/>
  <outline>
    <contour>
      <point x="547" y="114" type="line"/>
      <point x="490" y="46"/>
      <point x="427" y="15"/>
      <point x="343" y="15" type="curve" smooth="yes"/>
      <point x="212" y="15"/>
      <point x="116" y="123"/>
      <point x="116" y="270" type="curve" smooth="yes"/>
      <point x="116" y="422"/>
      <point x="205" y="523"/>
      <point x="337" y="523" type="curve" smooth="yes"/>
      <point x="408" y="523"/>
      <point x="471" y="497"/>
      <point x="524" y="447" type="curve"/>
      <point x="559" y="495" type="line"/>
      <point x="490" y="553"/>
      <point x="422" y="578"/>
      <point x="336" y="578" type="curve" smooth="yes"/>
      <point x="170" y="578"/>
      <point x="53" y="451"/>
      <point x="53" y="270" type="curve" smooth="yes"/>
      <point x="53" y="85"/>
      <point x="169" y="-40"/>
      <point x="342" y="-40" type="curve" smooth="yes"/>
      <point x="446" y="-40"/>
      <point x="527" y="-3"/>
      <point x="587" y="72" type="curve"/>
    </contour>
  </outline>
</glyph>
<glyph name="d" format="2">
  <advance width="690"/>
  <unicode hex="0064"/>
  <outline>
    <contour>
      <point x="532" y="830" type="line"/>
      <point x="532" y="456" type="line"/>
      <point x="492" y="531"/>
      <point x="414" y="578"/>
      <point x="330" y="578" type="curve" smooth="yes"/>
      <point x="171" y="578"/>
      <point x="55" y="449"/>
      <point x="55" y="271" type="curve" smooth="yes"/>
      <point x="55" y="87"/>
      <point x="169" y="-40"/>
      <point x="332" y="-40" type="curve" smooth="yes"/>
      <point x="420" y="-40"/>
      <point x="490" y="-4"/>
      <point x="532" y="61" type="curve"/>
      <point x="532" y="-28" type="line"/>
      <point x="591" y="-28" type="line"/>
      <point x="591" y="830" type="line"/>
    </contour>
    <contour>
      <point x="532" y="138" type="line"/>
      <point x="485" y="58"/>
      <point x="415" y="15"/>
      <point x="335" y="15" type="curve" smooth="yes"/>
      <point x="206" y="15"/>
      <point x="117" y="118"/>
      <point x="117" y="269" type="curve" smooth="yes"/>
      <point x="117" y="416"/>
      <point x="208" y="523"/>
      <point x="334" y="523" type="curve" smooth="yes"/>
      <point x="415" y="523"/>
      <point x="483" y="469"/>
      <point x="532" y="366" type="curve"/>
    </contour>
  </outline>
</glyph>
<glyph name="e" format="2">
  <advance width="670"/>
  <unicode hex="0065"/>
  <outline>
    <contour>
      <point x="596" y="272" type="line"/>
      <point x="596" y="291" type="line" smooth="yes"/>
      <point x="596" y="455"/>
      <point x="484" y="578"/>
      <point x="333" y="578" type="curve" smooth="yes"/>
      <point x="173" y="578"/>
      <point x="61" y="448"/>
      <point x="61" y="263" type="curve" smooth="yes"/>
      <point x="61" y="77"/>
      <point x="173" y="-40"/>
      <point x="352" y="-40" type="curve" smooth="yes"/>
      <point x="448" y="-40"/>
      <point x="527" y="-2"/>
      <point x="591" y="74" type="curve"/>
      <point x="552" y="118" type="line"/>
      <point x="500" y="49"/>
      <point x="433" y="15"/>
      <point x="351" y="15" type="curve" smooth="yes"/>
      <point x="187.233" y="15"/>
      <point x="131.894" y="125.186"/>
      <point x="127" y="272" type="curve"/>
    </contour>
    <contour>
      <point x="129" y="321" type="line"/>
      <point x="147" y="444"/>
      <point x="226" y="523"/>
      <point x="333" y="523" type="curve" smooth="yes"/>
      <point x="442" y="523"/>
      <point x="519" y="443"/>
      <point x="529" y="321" type="curve"/>
    </contour>
  </outline>
</glyph>
<glyph name="g" format="2">
  <advance width="690"/>
  <unicode hex="0067"/>
  <outline>
    <contour>
      <point x="591" y="565" type="line"/>
      <point x="549" y="565" type="line"/>
      <point x="533" y="499" type="line"/>
      <point x="481" y="550"/>
      <point x="409" y="578"/>
      <point x="327" y="578" type="curve" smooth="yes"/>
      <point x="170" y="578"/>
      <point x="60" y="458"/>
      <point x="60" y="288" type="curve" smooth="yes"/>
      <point x="60" y="118"/>
      <point x="168" y="5"/>
      <point x="329" y="5" type="curve" smooth="yes"/>
      <point x="412" y="5"/>
      <point x="490" y="45"/>
      <point x="533" y="109" type="curve"/>
      <point x="533" y="1" type="line" smooth="yes"/>
      <point x="533" y="-124"/>
      <point x="459" y="-195"/>
      <point x="330" y="-195" type="curve" smooth="yes"/>
      <point x="242" y="-195"/>
      <point x="168" y="-169"/>
      <point x="117" y="-120" type="curve"/>
      <point x="82" y="-162" type="line"/>
      <point x="136" y="-215"/>
      <point x="234" y="-249"/>
      <point x="330" y="-249" type="curve" smooth="yes"/>
      <point x="505.235" y="-249"/>
      <point x="591" y="-157.303"/>
      <point x="591" y="14" type="curve" smooth="yes"/>
    </contour>
    <contour>
      <point x="533" y="175" type="line"/>
      <point x="480" y="98"/>
      <point x="413" y="59"/>
      <point x="332" y="59" type="curve" smooth="yes"/>
      <point x="205" y="59"/>
      <point x="124" y="148"/>
      <point x="124" y="289" type="curve" smooth="yes"/>
      <point x="124" y="429"/>
      <point x="205" y="524"/>
      <point x="326" y="524" type="curve" smooth="yes"/>
      <point x="416" y="524"/>
      <point x="475" y="495"/>
      <point x="533" y="420" type="curve"/>
    </contour>
  </outline>
</glyph>
<glyph name="h" format="2">
  <advance width="680"/>
  <unicode hex="0068"/>
  <outline>
    <contour>
      <point x="99" y="830" type="line"/>
      <point x="99" y="-25" type="line"/>
      <point x="157" y="-25" type="line"/>
      <point x="157" y="372" type="line"/>
      <point x="208" y="464"/>
      <point x="296" y="523"/>
      <point x="382" y="523" type="curve" smooth="yes"/>
      <point x="475" y="523"/>
      <point x="522" y="464"/>
      <point x="522" y="346" type="curve" smooth="yes"/>
      <point x="522" y="-25" type="line"/>
      <point x="581" y="-25" type="line"/>
      <point x="581" y="352" type="line" smooth="yes"/>
      <point x="581" y="498"/>
      <point x="510" y="576"/>
      <point x="378" y="576" type="curve" smooth="yes"/>
      <point x="301" y="576"/>
      <point x="215" y="530"/>
      <point x="157" y="456" type="curve"/>
      <point x="157" y="830" type="line"/>
    </contour>
  </outline>
</glyph>
<glyph name="i" format="2">
  <advance width="300"/>
  <unicode hex="0069"/>
  <outline>
    <contour>
      <point x="108" y="785" type="line"/>
      <point x="108" y="697" type="line"/>
      <point x="192" y="697" type="line"/>
      <point x="192" y="785" type="line"/>
    </contour>
    <contour>
      <point x="120" y="565" type="line"/>
      <point x="120" y="-25" type="line"/>
      <point x="180" y="-25" type="line"/>
      <point x="180" y="565" type="line"/>
    </contour>
  </outline>
</glyph>
<glyph name="j" format="2">
  <advance width="340"/>
  <unicode hex="006A"/>
  <outline>
    <contour>
      <point x="153" y="785" type="line"/>
      <point x="153" y="697" type="line"/>
      <point x="237" y="697" type="line"/>
      <point x="237" y="785" type="line"/>
    </contour>
    <contour>
      <point x="165" y="565" type="line"/>
      <point x="165" y="-12" type="line" smooth="yes"/>
      <point x="165" y="-155"/>
      <point x="125" y="-192"/>
      <point x="-40" y="-199" type="curve"/>
      <point x="-19" y="-249" type="line"/>
      <point x="174" y="-238"/>
      <point x="227" y="-186"/>
      <point x="225" y="-8" type="curve"/>
      <point x="225" y="565" type="line"/>
    </contour>
  </outline>
</glyph>
<glyph name="k" format="2">
  <advance width="590"/>
  <unicode hex="006B"/>
  <outline>
    <contour>
      <point x="98" y="830" type="line"/>
      <point x="98" y="-25" type="line"/>
      <point x="157" y="-25" type="line"/>
      <point x="157" y="212" type="line"/>
      <point x="265" y="309" type="line"/>
      <point x="493" y="-25" type="line"/>
      <point x="574" y="-25" type="line"/>
      <point x="308" y="345" type="line"/>
      <point x="551" y="565" type="line"/>
      <point x="470" y="565" type="line"/>
      <point x="157" y="285" type="line"/>
      <point x="157" y="830" type="line"/>
    </contour>
  </outline>
</glyph>
<glyph name="l" format="2">
  <advance width="290"/>
  <unicode hex="006C"/>
  <outline>
    <contour>
      <point x="110" y="830" type="line"/>
      <point x="110" y="39" type="line" smooth="yes"/>
      <point x="110" y="-4"/>
      <point x="131" y="-25"/>
      <point x="174" y="-25" type="curve" smooth="yes"/>
      <point x="253" y="-25" type="line"/>
      <point x="260" y="27" type="line"/>
      <point x="185" y="27" type="line"/>
      <point x="174" y="28"/>
      <point x="170" y="32"/>
      <point x="170" y="42" type="curve" smooth="yes"/>
      <point x="170" y="830" type="line"/>
    </contour>
  </outline>
</glyph>
<glyph name="braceleft" format="2">
  <advance width="500"/>
  <unicode hex="007B"/>
  <outline>
    <contour>
      <point x="121" y="271" type="line"/>
      <point x="196" y="271"/>
      <point x="241" y="219"/>
      <point x="241" y="131" type="curve" smooth="yes"/>
      <point x="241" y="-75" type="line"/>
      <point x="237" y="-202"/>
      <point x="287" y="-248"/>
      <point x="430" y="-250" type="curve"/>
      <point x="430" y="-198" type="line"/>
      <point x="332" y="-195"/>
      <point x="299" y="-167"/>
      <point x="301" y="-88" type="curve"/>
      <point x="301" y="134" type="line" smooth="yes"/>
      <point x="301" y="215"/>
      <point x="274" y="267"/>
      <point x="220" y="290" type="curve"/>
      <point x="274" y="313"/>
      <point x="301" y="365"/>
      <point x="301" y="446" type="curve" smooth="yes"/>
      <point x="301" y="668" type="line"/>
      <point x="300" y="748"/>
      <point x="332" y="775"/>
      <point x="430" y="778" type="curve"/>
      <point x="430" y="830" type="line"/>
      <point x="287" y="828"/>
      <point x="237" y="782"/>
      <point x="241" y="655" type="curve"/>
      <point x="241" y="449" type="line" smooth="yes"/>
      <point x="241" y="361"/>
      <point x="196" y="309"/>
      <point x="121" y="309" type="curve"/>
    </contour>
  </outline>
</glyph>
<glyph name="bar" format="2">
  <advance width="250"/>
  <unicode hex="007C"/>
  <outline>
    <contour>
      <point x="99" y="830" type="line"/>
      <point x="99" y="-250" type="line"/>
      <point x="151" y="-250" type="line"/>
      <point x="151" y="830" type="line"/>
    </contour>
  </outline>
</glyph>
<glyph name="braceright" format="2">
  <advance width="500"/>
  <unicode hex="007D"/>
  <outline>
    <contour>
      <point x="70" y="-250" type="line"/>
      <point x="213" y="-248"/>
      <point x="263" y="-202"/>
      <point x="259" y="-75" type="curve"/>
      <point x="259" y="131" type="line" smooth="yes"/>
      <point x="259" y="218"/>
      <point x="304" y="271"/>
      <point x="379" y="271" type="curve"/>
      <point x="379" y="309" type="line"/>
      <point x="304" y="309"/>
      <point x="259" y="361"/>
      <point x="259" y="449" type="curve" smooth="yes"/>
      <point x="259" y="655" type="line"/>
      <point x="263" y="782"/>
      <point x="214" y="828"/>
      <point x="70" y="830" type="curve"/>
      <point x="70" y="778" type="line"/>
      <point x="168" y="775"/>
      <point x="200" y="748"/>
      <point x="199" y="668" type="curve"/>
      <point x="199" y="446" type="line" smooth="yes"/>
      <point x="199" y="365"/>
      <point x="226" y="312"/>
      <point x="280" y="290" type="curve"/>
      <point x="226" y="267"/>
      <point x="199" y="215"/>
      <point x="199" y="134" type="curve" smooth="yes"/>
      <point x="199" y="-88" type="line"/>
      <point x="200" y="-168"/>
      <point x="168" y="-195"/>
      <point x="70" y="-198" type="curve"/>
    </contour>
  </outline>
</glyph>
<glyph name="asciitilde" format="2">
  <advance width="840"/>
  <unicode hex="007E"/>
  <outline>
    <contour>
      <point x="76" y="292" type="line"/>
      <point x="149" y="363"/>
      <point x="203" y="392"/>
      <point x="263" y="392" type="curve" smooth="yes"/>
      <point x="297" y="392"/>
      <point x="311" y="386"/>
      <point x="389" y="337" type="curve" smooth="yes"/>
      <point x="499" y="268"/>
      <point x="526" y="256"/>
      <point x="577" y="256" type="curve" smooth="yes"/>
      <point x="639" y="256"/>
      <point x="697" y="281"/>
      <point x="764" y="338" type="curve"/>
      <point x="764" y="408" type="line"/>
      <point x="691" y="337"/>
      <point x="637" y="308"/>
      <point x="577" y="308" type="curve" smooth="yes"/>
      <point x="545" y="308"/>
      <point x="524" y="317"/>
      <point x="465" y="354" type="curve" smooth="yes"/>
      <point x="345" y="431"/>
      <point x="315" y="444"/>
      <point x="265" y="444" type="curve" smooth="yes"/>
      <point x="201" y="444"/>
      <point x="144" y="419"/>
      <point x="76" y="362" type="curve"/>
    </contour>
  </outline>
</glyph>
<glyph name="exclamdown" format="2">
  <advance width="300"/>
  <unicode hex="00A1"/>
  <outline>
    <contour>
      <point x="124" y="595" type="line"/>
      <point x="109" y="-25" type="line"/>
      <point x="191" y="-25" type="line"/>
      <point x="176" y="595" type="line"/>
    </contour>
    <contour>
      <point x="98" y="785" type="line"/>
      <point x="98" y="681" type="line"/>
      <point x="202" y="681" type="line"/>
      <point x="202" y="785" type="line"/>
    </contour>
  </outline>
</glyph>
<glyph name="cent" format="2">
  <advance width="760"/>
  <unicode hex="00A2"/>
  <outline>
    <contour>
      <point x="487" y="796" type="line"/>
      <point x="440" y="675" type="line"/>
      <point x="424" y="678"/>
      <point x="405" y="680"/>
      <point x="385" y="680" type="curve" smooth="yes"/>
      <point x="217" y="680"/>
      <point x="100" y="553"/>
      <point x="100" y="373" type="curve" smooth="yes"/>
      <point x="100" y="259"/>
      <point x="141" y="170"/>
      <point x="221" y="112" type="curve"/>
      <point x="167" y="-27" type="line"/>
      <point x="212" y="-48" type="line"/>
      <point x="264" y="87" type="line"/>
      <point x="304" y="70"/>
      <point x="344" y="62"/>
      <point x="390" y="62" type="curve" smooth="yes"/>
      <point x="493" y="62"/>
      <point x="574" y="99"/>
      <point x="634" y="174" type="curve"/>
      <point x="594" y="216" type="line"/>
      <point x="536" y="147"/>
      <point x="473" y="117"/>
      <point x="390" y="117" type="curve" smooth="yes"/>
      <point x="353" y="117"/>
      <point x="320" y="125"/>
      <point x="286" y="143" type="curve"/>
      <point x="468" y="611" type="line"/>
      <point x="511" y="597"/>
      <point x="548" y="573"/>
      <point x="581" y="539" type="curve"/>
      <point x="618" y="583" type="line"/>
      <point x="578" y="622"/>
      <point x="537" y="647"/>
      <point x="488" y="664" type="curve"/>
      <point x="532" y="776" type="line"/>
    </contour>
    <contour>
      <point x="245" y="172" type="line"/>
      <point x="190" y="223"/>
      <point x="163" y="289"/>
      <point x="163" y="372" type="curve" smooth="yes"/>
      <point x="163" y="531.651"/>
      <point x="256.861" y="641.075"/>
      <point x="419" y="622" type="curve"/>
    </contour>
  </outline>
</glyph>
<glyph name="currency" format="2">
  <advance width="760"/>
  <unicode hex="00A4"/>
  <outline>
    <contour>
      <point x="642" y="605" type="line"/>
      <point x="606" y="641" type="line"/>
      <point x="534" y="569" type="line"/>
      <point x="487" y="607"/>
      <point x="436" y="625"/>
      <point x="380" y="625" type="curve" smooth="yes"/>
      <point x="323" y="625"/>
      <point x="272" y="606"/>
      <point x="226" y="569" type="curve"/>
      <point x="154" y="641" type="line"/>
      <point x="118" y="605" type="line"/>
      <point x="190" y="533" type="line"/>
      <point x="152" y="485"/>
      <point x="134" y="435"/>
      <point x="134" y="379" type="curve" smooth="yes"/>
      <point x="134" y="323"/>
      <point x="153" y="271"/>
      <point x="190" y="225" type="curve"/>
      <point x="118" y="153" type="line"/>
      <point x="154" y="117" type="line"/>
      <point x="226" y="189" type="line"/>
      <point x="272" y="151"/>
      <point x="323" y="133"/>
      <point x="380" y="133" type="curve" smooth="yes"/>
      <point x="437" y="133"/>
      <point x="488" y="152"/>
      <point x="534" y="189" type="curve"/>
      <point x="606" y="117" type="line"/>
      <point x="642" y="153" type="line"/>
      <point x="570" y="225" type="line"/>
      <point x="608" y="273"/>
      <point x="626" y="323"/>
      <point x="626" y="379" type="curve" smooth="yes"/>
      <point x="626" y="435"/>
      <point x="608" y="485"/>
      <point x="570" y="533" type="curve"/>
    </contour>
    <contour>
      <point x="379" y="575" type="curve" smooth="yes"/>
      <point x="486" y="575"/>
      <point x="576" y="486"/>
      <point x="576" y="379" type="curve" smooth="yes"/>
      <point x="576" y="272"/>
      <point x="487" y="183"/>
      <point x="381" y="183" type="curve" smooth="yes"/>
      <point x="274" y="183"/>
      <point x="184" y="272"/>
      <point x="184" y="378" type="curve" smooth="yes"/>
      <point x="184" y="485"/>
      <point x="273" y="575"/>
    </contour>
  </outline>
</glyph>
<glyph name="brokenbar" format="2">
  <advance width="250"/>
  <unicode hex="00A6"/>
  <unicode hex="01C0"/>
  <outline>
    <contour>
      <point x="99" y="830" type="line"/>
      <point x="99" y="370" type="line"/>
      <point x="151" y="370" type="line"/>
      <point x="151" y="830" type="line"/>
    </contour>
    <contour>
      <point x="99" y="210" type="line"/>
      <point x="99" y="-250" type="line"/>
      <point x="151" y="-250" type="line"/>
      <point x="151" y="210" type="line"/>
    </contour>
  </outline>
</glyph>
<glyph name="dieresis" format="2">
  <advance width="500"/>
  <unicode hex="00A8"/>
  <outline>
    <contour>
      <point x="107" y="748" type="line"/>
      <point x="107" y="658" type="line"/>
      <point x="197" y="658" type="line"/>
      <point x="197" y="748" type="line"/>
    </contour>
    <contour>
      <point x="303" y="748" type="line"/>
      <point x="303" y="658" type="line"/>
      <point x="393" y="658" type="line"/>
      <point x="393" y="748" type="line"/>
    </contour>
  </outline>
</glyph>
<glyph name="copyright" format="2">
  <advance width="1000"/>
  <unicode hex="00A9"/>
  <outline>
    <contour>
      <point x="713" y="626" type="line"/>
      <point x="651" y="682"/>
      <point x="587" y="707"/>
      <point x="503" y="707" type="curve" smooth="yes"/>
      <point x="338" y="707"/>
      <point x="215" y="570"/>
      <point x="215" y="387" type="curve" smooth="yes"/>
      <point x="215" y="205"/>
      <point x="337" y="73"/>
      <point x="507" y="73" type="curve" smooth="yes"/>
      <point x="591" y="73"/>
      <point x="665" y="100"/>
      <point x="730" y="155" type="curve"/>
      <point x="698" y="198" type="line"/>
      <point x="643" y="146"/>
      <point x="580" y="120"/>
      <point x="505" y="120" type="curve" smooth="yes"/>
      <point x="359.42" y="120"/>
      <point x="270" y="251.577"/>
      <point x="270" y="387" type="curve" smooth="yes"/>
      <point x="270" y="543"/>
      <point x="371" y="660"/>
      <point x="506" y="660" type="curve" smooth="yes"/>
      <point x="577" y="660"/>
      <point x="627" y="639"/>
      <point x="680" y="587" type="curve"/>
    </contour>
    <contour>
      <point x="501" y="850" type="curve" smooth="yes"/>
      <point x="248" y="850"/>
      <point x="37" y="640"/>
      <point x="37" y="389" type="curve" smooth="yes"/>
      <point x="37" y="137"/>
      <point x="247" y="-74"/>
      <point x="499" y="-74" type="curve" smooth="yes"/>
      <point x="750" y="-74"/>
      <point x="961" y="137"/>
      <point x="961" y="387" type="curve" smooth="yes"/>
      <point x="961" y="638"/>
      <point x="750" y="850"/>
    </contour>
    <contour>
      <point x="497" y="808" type="curve" smooth="yes"/>
      <point x="727" y="808"/>
      <point x="919" y="617"/>
      <point x="919" y="389" type="curve" smooth="yes"/>
      <point x="919" y="160"/>
      <point x="727" y="-32"/>
      <point x="499" y="-32" type="curve" smooth="yes"/>
      <point x="272" y="-32"/>
      <point x="79" y="160"/>
      <point x="79" y="386" type="curve" smooth="yes"/>
      <point x="79" y="615"/>
      <point x="271" y="808"/>
    </contour>
  </outline>
</glyph>
<glyph name="guillemotleft" format="2">
  <advance width="670"/>
  <unicode hex="00AB"/>
  <outline>
    <contour>
      <point x="575" y="65" type="line"/>
      <point x="442" y="270" type="line"/>
      <point x="575" y="475" type="line"/>
      <point x="534" y="498" type="line"/>
      <point x="372" y="270" type="line"/>
      <point x="534" y="42" type="line"/>
    </contour>
    <contour>
      <point x="295" y="65" type="line"/>
      <point x="162" y="270" type="line"/>
      <point x="295" y="475" type="line"/>
      <point x="254" y="498" type="line"/>
      <point x="92" y="270" type="line"/>
      <point x="254" y="42" type="line"/>
    </contour>
  </outline>
</glyph>
<glyph name="degree" format="2">
  <advance width="350"/>
  <unicode hex="00B0"/>
  <outline>
    <contour>
      <point x="166" y="855" type="curve" smooth="yes"/>
      <point x="98" y="855"/>
      <point x="41" y="798"/>
      <point x="41" y="730" type="curve" smooth="yes"/>
      <point x="41" y="662"/>
      <point x="97" y="605"/>
      <point x="166" y="605" type="curve" smooth="yes"/>
      <point x="235" y="605"/>
      <point x="292" y="661"/>
      <point x="292" y="730" type="curve" smooth="yes"/>
      <point x="292" y="797"/>
      <point x="234" y="855"/>
    </contour>
    <contour>
      <point x="166" y="810" type="curve" smooth="yes"/>
      <point x="210" y="810"/>
      <point x="246" y="774"/>
      <point x="246" y="730" type="curve" smooth="yes"/>
      <point x="246" y="686"/>
      <point x="210" y="650"/>
      <point x="166" y="650" type="curve" smooth="yes"/>
      <point x="123" y="650"/>
      <point x="87" y="686"/>
      <point x="87" y="729" type="curve" smooth="yes"/>
      <point x="87" y="773"/>
      <point x="123" y="810"/>
    </contour>
  </outline>
</glyph>
<glyph name="acute" format="2">
  <advance width="500"/>
  <unicode hex="00B4"/>
  <outline>
    <contour>
      <point x="284" y="781" type="line"/>
      <point x="152" y="658" type="line"/>
      <point x="215" y="658" type="line"/>
      <point x="378" y="781" type="line"/>
    </contour>
  </outline>
</glyph>
<glyph name="cedilla" format="2">
  <advance width="500"/>
  <unicode hex="00B8"/>
  <unicode hex="0327"/>
  <outline>
    <contour>
      <point x="274" y="-25" type="line"/>
      <point x="223" y="-25" type="line"/>
      <point x="171" y="-118" type="line"/>
      <point x="171" y="-137" type="line"/>
      <point x="265" y="-137"/>
      <point x="305" y="-149"/>
      <point x="305" y="-178" type="curve" smooth="yes"/>
      <point x="305" y="-208"/>
      <point x="257" y="-223"/>
      <point x="151" y="-225" type="curve"/>
      <point x="151" y="-260" type="line"/>
      <point x="313" y="-255"/>
      <point x="365" y="-235"/>
      <point x="365" y="-177" type="curve" smooth="yes"/>
      <point x="365" y="-131"/>
      <point x="318" y="-105"/>
      <point x="230" y="-101" type="curve"/>
    </contour>
  </outline>
</glyph>
<glyph name="guillemotright" format="2">
  <advance width="670"/>
  <unicode hex="00BB"/>
  <outline>
    <contour>
      <point x="90" y="65" type="line"/>
      <point x="131" y="42" type="line"/>
      <point x="293" y="270" type="line"/>
      <point x="131" y="498" type="line"/>
      <point x="90" y="475" type="line"/>
      <point x="223" y="270" type="line"/>
    </contour>
    <contour>
      <point x="370" y="65" type="line"/>
      <point x="411" y="42" type="line"/>
      <point x="573" y="270" type="line"/>
      <point x="411" y="498" type="line"/>
      <point x="370" y="475" type="line"/>
      <point x="503" y="270" type="line"/>
    </contour>
  </outline>
</glyph>
<glyph name="AE" format="2">
  <advance width="950"/>
  <unicode hex="00C6"/>
  <outline>
    <contour>
      <point x="875" y="-25" type="line"/>
      <point x="875" y="31" type="line"/>
      <point x="629" y="31" type="line"/>
      <point x="556" y="371" type="line"/>
      <point x="817" y="371" type="line"/>
      <point x="817" y="426" type="line"/>
      <point x="551" y="426" type="line"/>
      <point x="494" y="729" type="line"/>
      <point x="862" y="729" type="line"/>
      <point x="862" y="785" type="line"/>
      <point x="407" y="785" type="line"/>
      <point x="11" y="-25" type="line"/>
      <point x="86" y="-25" type="line"/>
      <point x="206" y="227" type="line"/>
      <point x="524" y="227" type="line"/>
      <point x="578" y="-25" type="line"/>
    </contour>
    <contour>
      <point x="515" y="282" type="line"/>
      <point x="228" y="282" type="line"/>
      <point x="438" y="723" type="line"/>
      <point x="442" y="723" type="line"/>
    </contour>
  </outline>
</glyph>
<glyph name="Eth" format="2">
  <advance width="820"/>
  <unicode hex="00D0"/>
  <outline>
    <contour>
      <point x="93" y="785" type="line"/>
      <point x="93" y="418" type="line"/>
      <point x="3" y="418" type="line"/>
      <point x="3" y="372" type="line"/>
      <point x="93" y="372" type="line"/>
      <point x="93" y="-25" type="line"/>
      <point x="309" y="-25" type="line" smooth="yes"/>
      <point x="569.6676022081501" y="-25"/>
      <point x="762" y="95.14164062255855"/>
      <point x="762" y="381" type="curve" smooth="yes"/>
      <point x="762" y="656.1492663500845"/>
      <point x="570.9143566357766" y="785"/>
      <point x="317" y="785" type="curve" smooth="yes"/>
    </contour>
    <contour>
      <point x="154" y="729" type="line"/>
      <point x="319" y="729" type="line" smooth="yes"/>
      <point x="561" y="729"/>
      <point x="695" y="604"/>
      <point x="695" y="380" type="curve" smooth="yes"/>
      <point x="695" y="161"/>
      <point x="553" y="31"/>
      <point x="313" y="31" type="curve" smooth="yes"/>
      <point x="154" y="31" type="line"/>
      <point x="154" y="372" type="line"/>
      <point x="292" y="372" type="line"/>
      <point x="292" y="418" type="line"/>
      <point x="154" y="418" type="line"/>
    </contour>
  </outline>
</glyph>
<glyph name="Thorn" format="2">
  <advance width="720"/>
  <unicode hex="00DE"/>
  <outline>
    <contour>
      <point x="167" y="645" type="line"/>
      <point x="167" y="785" type="line"/>
      <point x="106" y="785" type="line"/>
      <point x="106" y="-25" type="line"/>
      <point x="167" y="-25" type="line"/>
      <point x="167" y="163" type="line"/>
      <point x="363" y="163" type="line" smooth="yes"/>
      <point x="565" y="163"/>
      <point x="667" y="246"/>
      <point x="667" y="411" type="curve" smooth="yes"/>
      <point x="667" y="585.3901506769607"/>
      <point x="519.2320514343928" y="645"/>
      <point x="369" y="645" type="curve" smooth="yes"/>
    </contour>
    <contour>
      <point x="167" y="218" type="line"/>
      <point x="167" y="589" type="line"/>
      <point x="364" y="589" type="line" smooth="yes"/>
      <point x="518" y="589"/>
      <point x="600" y="526"/>
      <point x="600" y="409" type="curve" smooth="yes"/>
      <point x="600" y="273"/>
      <point x="527" y="218"/>
      <point x="347" y="218" type="curve" smooth="yes"/>
    </contour>
  </outline>
</glyph>
<glyph name="germandbls" format="2">
  <advance width="660"/>
  <unicode hex="00DF"/>
  <outline>
    <contour>
      <point x="99" y="-25" type="line"/>
      <point x="158" y="-25" type="line"/>
      <point x="158" y="546" type="line" smooth="yes"/>
      <point x="158" y="670"/>
      <point x="215" y="743"/>
      <point x="314" y="743" type="curve" smooth="yes"/>
      <point x="404" y="743"/>
      <point x="465" y="684"/>
      <point x="465" y="598" type="curve" smooth="yes"/>
      <point x="465" y="504"/>
      <point x="397" y="433"/>
      <point x="301" y="429" type="curve"/>
      <point x="301" y="380" type="line"/>
      <point x="419" y="368"/>
      <point x="497" y="289"/>
      <point x="497" y="182" type="curve" smooth="yes"/>
      <point x="497" y="82"/>
      <point x="432" y="14"/>
      <point x="338" y="14" type="curve" smooth="yes"/>
      <point x="304" y="14"/>
      <point x="270" y="26"/>
      <point x="245" y="48" type="curve"/>
      <point x="220" y="1" type="line"/>
      <point x="256" y="-24"/>
      <point x="295" y="-36"/>
      <point x="342" y="-36" type="curve" smooth="yes"/>
      <point x="476" y="-36"/>
      <point x="565" y="50"/>
      <point x="565" y="179" type="curve" smooth="yes"/>
      <point x="565" y="290"/>
      <point x="483" y="383"/>
      <point x="366" y="405" type="curve"/>
      <point x="366" y="410" type="line"/>
      <point x="469" y="430"/>
      <point x="530" y="502"/>
      <point x="530" y="601" type="curve" smooth="yes"/>
      <point x="530" y="714"/>
      <point x="440" y="793"/>
      <point x="311" y="793" type="curve" smooth="yes"/>
      <point x="179" y="793"/>
      <point x="99" y="701"/>
      <point x="99" y="551" type="curve" smooth="yes"/>
    </contour>
  </outline>
</glyph>
<glyph name="ae" format="2">
  <advance width="1080"/>
  <unicode hex="00E6"/>
  <outline>
    <contour>
      <point x="482" y="341" type="line"/>
      <point x="402" y="341" type="line" smooth="yes"/>
      <point x="271.99151894885756" y="341"/>
      <point x="52" y="313.6665196861188"/>
      <point x="52" y="139" type="curve" smooth="yes"/>
      <point x="52" y="34"/>
      <point x="134" y="-42"/>
      <point x="247" y="-42" type="curve" smooth="yes"/>
      <point x="360" y="-42"/>
      <point x="454" y="12"/>
      <point x="507" y="109" type="curve"/>
      <point x="562" y="5"/>
      <point x="639" y="-40"/>
      <point x="762" y="-40" type="curve" smooth="yes"/>
      <point x="858" y="-40"/>
      <point x="937" y="-2"/>
      <point x="1001" y="74" type="curve"/>
      <point x="962" y="118" type="line"/>
      <point x="910" y="49"/>
      <point x="843" y="15"/>
      <point x="761" y="15" type="curve" smooth="yes"/>
      <point x="597.2325734719645" y="15"/>
      <point x="541.8937955184422" y="125.18613444673582"/>
      <point x="537" y="272" type="curve"/>
      <point x="1006" y="272" type="line"/>
      <point x="1006" y="291" type="line" smooth="yes"/>
      <point x="1006" y="456"/>
      <point x="894" y="578"/>
      <point x="743" y="578" type="curve" smooth="yes"/>
      <point x="648" y="578"/>
      <point x="574" y="533"/>
      <point x="524" y="447" type="curve"/>
      <point x="488" y="537"/>
      <point x="423" y="576"/>
      <point x="307" y="576" type="curve" smooth="yes"/>
      <point x="224" y="576"/>
      <point x="136" y="545"/>
      <point x="75" y="493" type="curve"/>
      <point x="108" y="449" type="line"/>
      <point x="174" y="499"/>
      <point x="234" y="521"/>
      <point x="308" y="521" type="curve" smooth="yes"/>
      <point x="413.42285690794427" y="521"/>
      <point x="482" y="483.19751443924395"/>
      <point x="482" y="368" type="curve" smooth="yes"/>
    </contour>
    <contour>
      <point x="539" y="321" type="line"/>
      <point x="557" y="444"/>
      <point x="636" y="523"/>
      <point x="743" y="523" type="curve" smooth="yes"/>
      <point x="852" y="523"/>
      <point x="929" y="443"/>
      <point x="939" y="321" type="curve"/>
    </contour>
    <contour>
      <point x="482" y="291" type="line"/>
      <point x="482" y="210" type="line" smooth="yes"/>
      <point x="482" y="94.78381227390082"/>
      <point x="358.34390678124805" y="14"/>
      <point x="253" y="14" type="curve" smooth="yes"/>
      <point x="172" y="14"/>
      <point x="116" y="64"/>
      <point x="116" y="138" type="curve" smooth="yes"/>
      <point x="116" y="237"/>
      <point x="216" y="291"/>
      <point x="400" y="291" type="curve" smooth="yes"/>
    </contour>
  </outline>
</glyph>
<glyph name="divide" format="2">
  <advance width="840"/>
  <unicode hex="00F7"/>
  <outline>
    <contour>
      <point x="90" y="376" type="line"/>
      <point x="90" y="324" type="line"/>
      <point x="750" y="324" type="line"/>
      <point x="750" y="376" type="line"/>
    </contour>
    <contour>
      <point x="420" y="646" type="curve" smooth="yes"/>
      <point x="389" y="646"/>
      <point x="364" y="621"/>
      <point x="364" y="590" type="curve" smooth="yes"/>
      <point x="364" y="559"/>
      <point x="389" y="534"/>
      <point x="420" y="534" type="curve" smooth="yes"/>
      <point x="451" y="534"/>
      <point x="476" y="559"/>
      <point x="476" y="590" type="curve" smooth="yes"/>
      <point x="476" y="620"/>
      <point x="450" y="646"/>
    </contour>
    <contour>
      <point x="420" y="166" type="curve" smooth="yes"/>
      <point x="389" y="166"/>
      <point x="364" y="141"/>
      <point x="364" y="110" type="curve" smooth="yes"/>
      <point x="364" y="79"/>
      <point x="389" y="54"/>
      <point x="420" y="54" type="curve" smooth="yes"/>
      <point x="451" y="54"/>
      <point x="476" y="79"/>
      <point x="476" y="110" type="curve" smooth="yes"/>
      <point x="476" y="140"/>
      <point x="450" y="166"/>
    </contour>
  </outline>
</glyph>
<glyph name="Aogonek" format="2">
  <advance width="740"/>
  <unicode hex="0104"/>
  <outline>
    <contour>
      <point x="337" y="789" type="line"/>
      <point x="11" y="-25" type="line"/>
      <point x="82" y="-25" type="line"/>
      <point x="181" y="227" type="line"/>
      <point x="559" y="227" type="line"/>
      <point x="658" y="-25" type="line"/>
      <point x="729" y="-25" type="line"/>
      <point x="403" y="789" type="line"/>
    </contour>
    <contour>
      <point x="539" y="282" type="line"/>
      <point x="201" y="282" type="line"/>
      <point x="293" y="521" type="line"/>
      <point x="342" y="648"/>
      <point x="359" y="694"/>
      <point x="368" y="723" type="curve"/>
      <point x="372" y="723" type="line"/>
      <point x="391.486" y="654.8"/>
      <point x="420.689" y="586.778"/>
      <point x="447" y="521" type="curve"/>
    </contour>
    <contour>
      <point x="707.0597885753785" y="1.2642431243244943" type="line"/>
      <point x="618.0072397237661" y="-21.533052557275077"/>
      <point x="534.9000286828789" y="-68.34405799163623"/>
      <point x="534.7109526405414" y="-151.34420187601899" type="curve" smooth="yes"/>
      <point x="535.4831519134406" y="-251.3466532553035"/>
      <point x="586.4194556353451" y="-279.4628810495436"/>
      <point x="748.4083463468912" y="-284.83192970352667" type="curve"/>
      <point x="749.5085811631229" y="-240.83413145207484" type="line"/>
      <point x="643.5129534563771" y="-238.5926573766948"/>
      <point x="593.5470371481351" y="-223.4787301431693"/>
      <point x="594.7087786287418" y="-152.48088508595436" type="curve" smooth="yes"/>
      <point x="595.8272376418254" y="-100.48307296612825"/>
      <point x="631.9001968369166" y="-68.56502637846442"/>
      <point x="729.0005980736394" y="-24.78591848923427" type="curve"/>
    </contour>
  </outline>
</glyph>
<glyph name="florin" format="2">
  <advance width="480"/>
  <unicode hex="0192"/>
  <outline>
    <contour>
      <point x="197" y="565" type="line"/>
      <point x="38" y="565" type="line"/>
      <point x="34" y="514" type="line"/>
      <point x="190" y="514" type="line"/>
      <point x="144" y="-12" type="line" smooth="yes"/>
      <point x="131" y="-155"/>
      <point x="88" y="-192"/>
      <point x="-78" y="-199" type="curve"/>
      <point x="-61" y="-249" type="line"/>
      <point x="133" y="-238"/>
      <point x="190" y="-186"/>
      <point x="204" y="-8" type="curve" smooth="yes"/>
      <point x="250" y="514" type="line"/>
      <point x="450" y="514" type="line"/>
      <point x="454" y="565" type="line"/>
      <point x="254" y="565" type="line"/>
      <point x="259" y="619" type="line" smooth="yes"/>
      <point x="267" y="719"/>
      <point x="317" y="777"/>
      <point x="394" y="777" type="curve" smooth="yes"/>
      <point x="431" y="777"/>
      <point x="460" y="767"/>
      <point x="486" y="747" type="curve"/>
      <point x="522" y="791" type="line"/>
      <point x="484" y="817"/>
      <point x="444" y="830"/>
      <point x="397" y="830" type="curve" smooth="yes"/>
      <point x="269" y="830"/>
      <point x="211" y="729"/>
      <point x="201" y="616" type="curve" smooth="yes"/>
    </contour>
  </outline>
</glyph>
<glyph name="acutecomb" format="2">
  <advance width="500"/>
  <unicode hex="0301"/>
  <outline>
    <contour>
      <point x="284" y="781" type="line"/>
      <point x="152" y="658" type="line"/>
      <point x="215" y="658" type="line"/>
      <point x="378" y="781" type="line"/>
    </contour>
  </outline>
</glyph>
<glyph name="ringcomb" format="2">
  <advance width="500"/>
  <unicode hex="030A"/>
  <outline>
    <contour>
      <point x="250" y="823" type="curve" smooth="yes"/>
      <point x="200" y="823"/>
      <point x="157" y="781"/>
      <point x="157" y="730" type="curve" smooth="yes"/>
      <point x="157" y="680"/>
      <point x="199" y="637"/>
      <point x="250" y="637" type="curve" smooth="yes"/>
      <point x="301" y="637"/>
      <point x="343" y="679"/>
      <point x="343" y="730" type="curve" smooth="yes"/>
      <point x="343" y="780"/>
      <point x="300" y="823"/>
    </contour>
    <contour>
      <point x="250" y="783" type="curve" smooth="yes"/>
      <point x="279" y="783"/>
      <point x="303" y="758"/>
      <point x="303" y="730" type="curve" smooth="yes"/>
      <point x="303" y="701"/>
      <point x="279" y="677"/>
      <point x="250" y="677" type="curve" smooth="yes"/>
      <point x="221" y="677"/>
      <point x="197" y="701"/>
      <point x="197" y="730" type="curve" smooth="yes"/>
      <point x="197" y="758"/>
      <point x="222" y="783"/>
    </contour>
  </outline>
</glyph>
<glyph name="hungarumlautcomb" format="2">
  <advance width="500"/>
  <unicode hex="030B"/>
  <outline>
    <contour>
      <point x="184" y="781" type="line"/>
      <point x="52" y="658" type="line"/>
      <point x="115" y="658" type="line"/>
      <point x="278" y="781" type="line"/>
    </contour>
    <contour>
      <point x="354" y="781" type="line"/>
      <point x="222" y="658" type="line"/>
      <point x="285" y="658" type="line"/>
      <point x="448" y="781" type="line"/>
    </contour>
  </outline>
</glyph>
<glyph name="caroncomb" format="2">
  <advance width="500"/>
  <unicode hex="030C"/>
  <outline>
    <contour>
      <point x="284" y="658" type="line"/>
      <point x="415" y="781" type="line"/>
      <point x="347" y="781" type="line"/>
      <point x="250" y="699" type="line"/>
      <point x="153" y="781" type="line"/>
      <point x="85" y="781" type="line"/>
      <point x="216" y="658" type="line"/>
    </contour>
  </outline>
</glyph>
<glyph name="cid01011" format="2">
  <advance width="1000"/>
  <unicode hex="0391"/>
  <outline>
    <contour>
      <point x="397" y="789" type="line"/>
      <point x="82" y="-25" type="line"/>
      <point x="283" y="-25" type="line"/>
      <point x="352" y="171" type="line"/>
      <point x="648" y="171" type="line"/>
      <point x="717" y="-25" type="line"/>
      <point x="918" y="-25" type="line"/>
      <point x="603" y="789" type="line"/>
    </contour>
    <contour>
      <point x="600" y="315" type="line"/>
      <point x="400" y="315" type="line"/>
      <point x="466" y="509" type="line" smooth="yes"/>
      <point x="478" y="545"/>
      <point x="491" y="592"/>
      <point x="498" y="629" type="curve"/>
      <point x="502" y="629" type="line"/>
      <point x="509" y="594"/>
      <point x="523" y="541"/>
      <point x="534" y="509" type="curve" smooth="yes"/>
    </contour>
  </outline>
</glyph>
<glyph name="cid01013" format="2">
  <advance width="1000"/>
  <unicode hex="0393"/>
  <outline>
    <contour>
      <point x="206" y="785" type="line"/>
      <point x="206" y="-25" type="line"/>
      <point x="394" y="-25" type="line"/>
      <point x="394" y="624" type="line"/>
      <point x="849" y="624" type="line"/>
      <point x="849" y="785" type="line"/>
    </contour>
  </outline>
</glyph>
<glyph name="cid01014" format="2">
  <advance width="1000"/>
  <unicode hex="0394"/>
  <outline>
    <contour>
      <point x="394" y="789" type="line"/>
      <point x="78" y="-25" type="line"/>
      <point x="922" y="-25" type="line"/>
      <point x="606" y="789" type="line"/>
    </contour>
    <contour>
      <point x="670" y="126" type="line"/>
      <point x="330" y="126" type="line"/>
      <point x="473" y="526" type="line" smooth="yes"/>
      <point x="481" y="550"/>
      <point x="487" y="572"/>
      <point x="498" y="623" type="curve"/>
      <point x="502" y="623" type="line"/>
      <point x="511" y="582"/>
      <point x="521" y="543"/>
      <point x="527" y="526" type="curve" smooth="yes"/>
    </contour>
  </outline>
</glyph>
<glyph name="cid01015" format="2">
  <advance width="1000"/>
  <unicode hex="0395"/>
  <outline>
    <contour>
      <point x="215" y="785" type="line"/>
      <point x="215" y="-25" type="line"/>
      <point x="820" y="-25" type="line"/>
      <point x="820" y="130" type="line"/>
      <point x="398" y="130" type="line"/>
      <point x="398" y="313" type="line"/>
      <point x="751" y="313" type="line"/>
      <point x="751" y="462" type="line"/>
      <point x="398" y="462" type="line"/>
      <point x="398" y="634" type="line"/>
      <point x="803" y="634" type="line"/>
      <point x="803" y="785" type="line"/>
    </contour>
  </outline>
</glyph>
<glyph name="cid01016" format="2">
  <advance width="1000"/>
  <unicode hex="0396"/>
  <outline>
    <contour>
      <point x="181" y="785" type="line"/>
      <point x="181" y="631" type="line"/>
      <point x="551" y="631" type="line"/>
      <point x="551" y="627" type="line"/>
      <point x="501" y="567"/>
      <point x="461" y="519"/>
      <point x="442" y="492" type="curve" smooth="yes"/>
      <point x="153" y="102" type="line"/>
      <point x="153" y="-25" type="line"/>
      <point x="849" y="-25" type="line"/>
      <point x="849" y="136" type="line"/>
      <point x="393" y="136" type="line"/>
      <point x="393" y="139" type="line"/>
      <point x="421" y="167"/>
      <point x="456" y="209"/>
      <point x="492" y="257" type="curve" smooth="yes"/>
      <point x="806" y="677" type="line"/>
      <point x="806" y="785" type="line"/>
    </contour>
  </outline>
</glyph>
<glyph name="cid01017" format="2">
  <advance width="1000"/>
  <unicode hex="0397"/>
  <outline>
    <contour>
      <point x="850" y="785" type="line"/>
      <point x="666" y="785" type="line"/>
      <point x="666" y="478" type="line"/>
      <point x="334" y="478" type="line"/>
      <point x="334" y="785" type="line"/>
      <point x="150" y="785" type="line"/>
      <point x="150" y="-25" type="line"/>
      <point x="334" y="-25" type="line"/>
      <point x="334" y="318" type="line"/>
      <point x="666" y="318" type="line"/>
      <point x="666" y="-25" type="line"/>
      <point x="850" y="-25" type="line"/>
    </contour>
  </outline>
</glyph>
<glyph name="cid01018" format="2">
  <advance width="1000"/>
  <unicode hex="0398"/>
  <outline>
    <contour>
      <point x="363" y="455" type="line"/>
      <point x="363" y="325" type="line"/>
      <point x="638" y="325" type="line"/>
      <point x="638" y="455" type="line"/>
    </contour>
    <contour>
      <point x="499" y="806" type="curve" smooth="yes"/>
      <point x="250" y="806"/>
      <point x="80" y="634"/>
      <point x="80" y="381" type="curve" smooth="yes"/>
      <point x="80" y="130"/>
      <point x="252" y="-46"/>
      <point x="498" y="-46" type="curve" smooth="yes"/>
      <point x="743" y="-46"/>
      <point x="914" y="130"/>
      <point x="914" y="381" type="curve" smooth="yes"/>
      <point x="914" y="632"/>
      <point x="744" y="806"/>
    </contour>
    <contour>
      <point x="497" y="656" type="curve" smooth="yes"/>
      <point x="628" y="656"/>
      <point x="717" y="545"/>
      <point x="717" y="383" type="curve" smooth="yes"/>
      <point x="717" y="223"/>
      <point x="628" y="113"/>
      <point x="498" y="113" type="curve" smooth="yes"/>
      <point x="368" y="113"/>
      <point x="279" y="222"/>
      <point x="279" y="383" type="curve" smooth="yes"/>
      <point x="279" y="544"/>
      <point x="368" y="656"/>
    </contour>
  </outline>
</glyph>
<glyph name="cid01019" format="2">
  <advance width="1000"/>
  <unicode hex="0399"/>
  <outline>
    <contour>
      <point x="290" y="785" type="line"/>
      <point x="290" y="655" type="line"/>
      <point x="408" y="655" type="line"/>
      <point x="408" y="105" type="line"/>
      <point x="290" y="105" type="line"/>
      <point x="290" y="-25" type="line"/>
      <point x="710" y="-25" type="line"/>
      <point x="710" y="105" type="line"/>
      <point x="592" y="105" type="line"/>
      <point x="592" y="655" type="line"/>
      <point x="710" y="655" type="line"/>
      <point x="710" y="785" type="line"/>
    </contour>
  </outline>
</glyph>
<glyph name="cid01020" format="2">
  <advance width="1000"/>
  <unicode hex="039A"/>
  <outline>
    <contour>
      <point x="177" y="785" type="line"/>
      <point x="177" y="-25" type="line"/>
      <point x="362" y="-25" type="line"/>
      <point x="362" y="243" type="line"/>
      <point x="437" y="321" type="line"/>
      <point x="668" y="-25" type="line"/>
      <point x="897" y="-25" type="line"/>
      <point x="557" y="433" type="line"/>
      <point x="875" y="785" type="line"/>
      <point x="636" y="785" type="line"/>
      <point x="362" y="434" type="line"/>
      <point x="362" y="785" type="line"/>
    </contour>
  </outline>
</glyph>
<glyph name="cid01021" format="2">
  <advance width="1000"/>
  <unicode hex="039B"/>
  <outline>
    <contour>
      <point x="897" y="-25" type="line"/>
      <point x="584" y="785" type="line"/>
      <point x="416" y="785" type="line"/>
      <point x="103" y="-25" type="line"/>
      <point x="310" y="-25" type="line"/>
      <point x="453" y="394" type="line" smooth="yes"/>
      <point x="472" y="449"/>
      <point x="489" y="513"/>
      <point x="498" y="563" type="curve"/>
      <point x="502" y="563" type="line"/>
      <point x="511" y="514"/>
      <point x="528" y="449"/>
      <point x="547" y="394" type="curve" smooth="yes"/>
      <point x="690" y="-25" type="line"/>
    </contour>
  </outline>
</glyph>
<glyph name="cid01023" format="2">
  <advance width="1000"/>
  <unicode hex="039D"/>
  <outline>
    <contour>
      <point x="150" y="785" type="line"/>
      <point x="150" y="-25" type="line"/>
      <point x="328" y="-25" type="line"/>
      <point x="328" y="308" type="line" smooth="yes"/>
      <point x="328" y="399"/>
      <point x="323" y="503"/>
      <point x="315" y="592" type="curve"/>
      <point x="320" y="592" type="line"/>
      <point x="341" y="534"/>
      <point x="382" y="449"/>
      <point x="416" y="390" type="curve" smooth="yes"/>
      <point x="659" y="-25" type="line"/>
      <point x="850" y="-25" type="line"/>
      <point x="850" y="785" type="line"/>
      <point x="672" y="785" type="line"/>
      <point x="672" y="497" type="line" smooth="yes"/>
      <point x="672" y="418"/>
      <point x="676" y="298"/>
      <point x="681" y="233" type="curve"/>
      <point x="676" y="233" type="line"/>
      <point x="654" y="293"/>
      <point x="626" y="352"/>
      <point x="589" y="421" type="curve" smooth="yes"/>
      <point x="387" y="785" type="line"/>
    </contour>
  </outline>
</glyph>
<glyph name="cid01024" format="2">
  <advance width="1000"/>
  <unicode hex="039E"/>
  <outline>
    <contour>
      <point x="163" y="785" type="line"/>
      <point x="163" y="622" type="line"/>
      <point x="837" y="622" type="line"/>
      <point x="837" y="785" type="line"/>
    </contour>
    <contour>
      <point x="206" y="466" type="line"/>
      <point x="206" y="309" type="line"/>
      <point x="794" y="309" type="line"/>
      <point x="794" y="466" type="line"/>
    </contour>
    <contour>
      <point x="148" y="142" type="line"/>
      <point x="148" y="-25" type="line"/>
      <point x="852" y="-25" type="line"/>
      <point x="852" y="142" type="line"/>
    </contour>
  </outline>
</glyph>
<glyph name="cid01025" format="2">
  <advance width="1000"/>
  <unicode hex="039F"/>
  <outline>
    <contour>
      <point x="502" y="806" type="curve" smooth="yes"/>
      <point x="253" y="806"/>
      <point x="83" y="634"/>
      <point x="83" y="381" type="curve" smooth="yes"/>
      <point x="83" y="130"/>
      <point x="255" y="-46"/>
      <point x="500" y="-46" type="curve" smooth="yes"/>
      <point x="745" y="-46"/>
      <point x="917" y="130"/>
      <point x="917" y="382" type="curve" smooth="yes"/>
      <point x="917" y="632"/>
      <point x="746" y="806"/>
    </contour>
    <contour>
      <point x="499" y="656" type="curve" smooth="yes"/>
      <point x="630" y="656"/>
      <point x="719" y="545"/>
      <point x="719" y="383" type="curve" smooth="yes"/>
      <point x="719" y="223"/>
      <point x="630" y="113"/>
      <point x="500" y="113" type="curve" smooth="yes"/>
      <point x="370" y="113"/>
      <point x="281" y="223"/>
      <point x="281" y="383" type="curve" smooth="yes"/>
      <point x="281" y="544"/>
      <point x="370" y="656"/>
    </contour>
  </outline>
</glyph>
<glyph name="cid01027" format="2">
  <advance width="1000"/>
  <unicode hex="03A1"/>
  <outline>
    <contour>
      <point x="207" y="785" type="line"/>
      <point x="207" y="-25" type="line"/>
      <point x="391" y="-25" type="line"/>
      <point x="391" y="245" type="line"/>
      <point x="505" y="245" type="line" smooth="yes"/>
      <point x="607" y="245"/>
      <point x="681" y="259"/>
      <point x="732" y="289" type="curve" smooth="yes"/>
      <point x="812" y="335"/>
      <point x="856" y="417"/>
      <point x="856" y="521" type="curve" smooth="yes"/>
      <point x="856" y="627"/>
      <point x="800" y="713"/>
      <point x="704" y="753" type="curve" smooth="yes"/>
      <point x="653" y="774"/>
      <point x="589" y="785"/>
      <point x="511" y="785" type="curve" smooth="yes"/>
    </contour>
    <contour>
      <point x="390" y="636" type="line"/>
      <point x="502" y="636" type="line" smooth="yes"/>
      <point x="608" y="636"/>
      <point x="659" y="597"/>
      <point x="659" y="517" type="curve" smooth="yes"/>
      <point x="659" y="475"/>
      <point x="644" y="438"/>
      <point x="619" y="418" type="curve" smooth="yes"/>
      <point x="593" y="398"/>
      <point x="556" y="390"/>
      <point x="490" y="390" type="curve" smooth="yes"/>
      <point x="390" y="390" type="line"/>
    </contour>
  </outline>
</glyph>
<glyph name="cid01028" format="2">
  <advance width="1000"/>
  <unicode hex="03A3"/>
  <outline>
    <contour>
      <point x="157" y="785" type="line"/>
      <point x="157" y="648" type="line"/>
      <point x="426" y="388" type="line"/>
      <point x="157" y="128" type="line"/>
      <point x="157" y="-25" type="line"/>
      <point x="849" y="-25" type="line"/>
      <point x="849" y="131" type="line"/>
      <point x="397" y="131" type="line"/>
      <point x="397" y="135" type="line"/>
      <point x="427" y="152"/>
      <point x="451" y="172"/>
      <point x="480" y="201" type="curve" smooth="yes"/>
      <point x="659" y="382" type="line"/>
      <point x="464" y="574" type="line" smooth="yes"/>
      <point x="443" y="595"/>
      <point x="420" y="613"/>
      <point x="392" y="631" type="curve"/>
      <point x="392" y="635" type="line"/>
      <point x="834" y="635" type="line"/>
      <point x="834" y="785" type="line"/>
    </contour>
  </outline>
</glyph>
<glyph name="cid01029" format="2">
  <advance width="1000"/>
  <unicode hex="03A4"/>
  <outline>
    <contour>
      <point x="148" y="785" type="line"/>
      <point x="148" y="625" type="line"/>
      <point x="406" y="625" type="line"/>
      <point x="406" y="-25" type="line"/>
      <point x="594" y="-25" type="line"/>
      <point x="594" y="625" type="line"/>
      <point x="852" y="625" type="line"/>
      <point x="852" y="785" type="line"/>
    </contour>
  </outline>
</glyph>
<glyph name="cid01030" format="2">
  <advance width="1000"/>
  <unicode hex="03A5"/>
  <outline>
    <contour>
      <point x="405" y="-25" type="line"/>
      <point x="595" y="-25" type="line"/>
      <point x="595" y="317" type="line" smooth="yes"/>
      <point x="595" y="512"/>
      <point x="655" y="640"/>
      <point x="746" y="640" type="curve" smooth="yes"/>
      <point x="784" y="640"/>
      <point x="807" y="622"/>
      <point x="831" y="572" type="curve"/>
      <point x="944" y="685" type="line"/>
      <point x="897" y="765"/>
      <point x="828" y="806"/>
      <point x="743" y="806" type="curve" smooth="yes"/>
      <point x="665" y="806"/>
      <point x="595" y="768"/>
      <point x="552" y="703" type="curve" smooth="yes"/>
      <point x="522" y="657"/>
      <point x="509" y="614"/>
      <point x="502" y="534" type="curve"/>
      <point x="498" y="534" type="line"/>
      <point x="493" y="602"/>
      <point x="481" y="646"/>
      <point x="456" y="690" type="curve" smooth="yes"/>
      <point x="414" y="763"/>
      <point x="340" y="806"/>
      <point x="256" y="806" type="curve" smooth="yes"/>
      <point x="172" y="806"/>
      <point x="102" y="764"/>
      <point x="56" y="685" type="curve"/>
      <point x="169" y="572" type="line"/>
      <point x="191" y="620"/>
      <point x="216" y="640"/>
      <point x="254" y="640" type="curve" smooth="yes"/>
      <point x="345" y="640"/>
      <point x="405" y="512"/>
      <point x="405" y="317" type="curve" smooth="yes"/>
    </contour>
  </outline>
</glyph>
<glyph name="cid01033" format="2">
  <advance width="1000"/>
  <unicode hex="03A8"/>
  <outline>
    <contour>
      <point x="412" y="-25" type="line"/>
      <point x="588" y="-25" type="line"/>
      <point x="588" y="152" type="line"/>
      <point x="769" y="183"/>
      <point x="860" y="294"/>
      <point x="858" y="478" type="curve" smooth="yes"/>
      <point x="858" y="626" type="line" smooth="yes"/>
      <point x="858" y="641"/>
      <point x="867" y="653"/>
      <point x="878" y="653" type="curve" smooth="yes"/>
      <point x="892" y="653"/>
      <point x="909" y="638"/>
      <point x="924" y="612" type="curve"/>
      <point x="992" y="726" type="line"/>
      <point x="952" y="778"/>
      <point x="899" y="806"/>
      <point x="842" y="806" type="curve" smooth="yes"/>
      <point x="748" y="806"/>
      <point x="682" y="733"/>
      <point x="682" y="630" type="curve" smooth="yes"/>
      <point x="682" y="467" type="line" smooth="yes"/>
      <point x="682" y="373"/>
      <point x="651" y="324"/>
      <point x="588" y="317" type="curve"/>
      <point x="588" y="785" type="line"/>
      <point x="412" y="785" type="line"/>
      <point x="412" y="317" type="line"/>
      <point x="349" y="324"/>
      <point x="318" y="373"/>
      <point x="318" y="467" type="curve" smooth="yes"/>
      <point x="318" y="630" type="line" smooth="yes"/>
      <point x="318" y="733"/>
      <point x="252" y="806"/>
      <point x="158" y="806" type="curve" smooth="yes"/>
      <point x="101" y="806"/>
      <point x="47" y="777"/>
      <point x="8" y="726" type="curve"/>
      <point x="76" y="612" type="line"/>
      <point x="92" y="639"/>
      <point x="107" y="653"/>
      <point x="122" y="653" type="curve" smooth="yes"/>
      <point x="133" y="653"/>
      <point x="142" y="641"/>
      <point x="142" y="626" type="curve" smooth="yes"/>
      <point x="142" y="478" type="line" smooth="yes"/>
      <point x="140" y="293"/>
      <point x="230" y="185"/>
      <point x="412" y="152" type="curve"/>
    </contour>
  </outline>
</glyph>
<glyph name="cid01034" format="2">
  <advance width="1000"/>
  <unicode hex="03A9"/>
  <outline>
    <contour>
      <point x="315" y="116" type="line"/>
      <point x="115" y="116" type="line"/>
      <point x="115" y="-25" type="line"/>
      <point x="463" y="-25" type="line"/>
      <point x="463" y="210" type="line"/>
      <point x="361" y="248"/>
      <point x="305" y="333"/>
      <point x="305" y="449" type="curve" smooth="yes"/>
      <point x="305" y="575"/>
      <point x="388" y="668"/>
      <point x="500" y="668" type="curve" smooth="yes"/>
      <point x="612" y="668"/>
      <point x="695" y="575"/>
      <point x="695" y="450" type="curve" smooth="yes"/>
      <point x="695" y="334"/>
      <point x="638" y="247"/>
      <point x="537" y="210" type="curve"/>
      <point x="537" y="-25" type="line"/>
      <point x="885" y="-25" type="line"/>
      <point x="885" y="116" type="line"/>
      <point x="685" y="116" type="line"/>
      <point x="685" y="157" type="line"/>
      <point x="819" y="215"/>
      <point x="885" y="314"/>
      <point x="885" y="456" type="curve" smooth="yes"/>
      <point x="885" y="660"/>
      <point x="725" y="806"/>
      <point x="500" y="806" type="curve" smooth="yes"/>
      <point x="275" y="806"/>
      <point x="115" y="660"/>
      <point x="115" y="456" type="curve" smooth="yes"/>
      <point x="115" y="315"/>
      <point x="182" y="215"/>
      <point x="315" y="157" type="curve"/>
    </contour>
  </outline>
</glyph>
<glyph name="cid01035" format="2">
  <advance width="1000"/>
  <unicode hex="03B1"/>
  <outline>
    <contour>
      <point x="757" y="192" type="line"/>
      <point x="739" y="150"/>
      <point x="711" y="119"/>
      <point x="693" y="119" type="curve" smooth="yes"/>
      <point x="675" y="119"/>
      <point x="662" y="146"/>
      <point x="662" y="184" type="curve" smooth="yes"/>
      <point x="662" y="187"/>
      <point x="662" y="193"/>
      <point x="663" y="201" type="curve"/>
      <point x="739" y="312"/>
      <point x="813" y="449"/>
      <point x="860" y="565" type="curve"/>
      <point x="687" y="565" type="line"/>
      <point x="674" y="522"/>
      <point x="659" y="484"/>
      <point x="640" y="440" type="curve"/>
      <point x="628" y="538"/>
      <point x="579" y="586"/>
      <point x="489" y="586" type="curve" smooth="yes"/>
      <point x="312" y="586"/>
      <point x="138" y="384"/>
      <point x="138" y="178" type="curve" smooth="yes"/>
      <point x="138" y="39"/>
      <point x="209" y="-46"/>
      <point x="325" y="-46" type="curve" smooth="yes"/>
      <point x="399" y="-46"/>
      <point x="474" y="-9"/>
      <point x="542" y="62" type="curve"/>
      <point x="568" y="-11"/>
      <point x="612" y="-46"/>
      <point x="675" y="-46" type="curve" smooth="yes"/>
      <point x="737" y="-46"/>
      <point x="801" y="2"/>
      <point x="849" y="84" type="curve"/>
    </contour>
    <contour>
      <point x="515" y="242" type="curve" smooth="yes"/>
      <point x="515" y="241"/>
      <point x="497" y="216"/>
      <point x="487" y="203" type="curve" smooth="yes"/>
      <point x="467" y="177"/>
      <point x="447" y="156"/>
      <point x="429" y="141" type="curve" smooth="yes"/>
      <point x="401" y="116"/>
      <point x="374" y="103"/>
      <point x="351" y="103" type="curve" smooth="yes"/>
      <point x="317" y="103"/>
      <point x="297" y="134"/>
      <point x="297" y="184" type="curve" smooth="yes"/>
      <point x="297" y="299"/>
      <point x="388" y="438"/>
      <point x="463" y="438" type="curve" smooth="yes"/>
      <point x="502" y="438"/>
      <point x="515" y="390"/>
    </contour>
  </outline>
</glyph>
<glyph name="cid01036" format="2">
  <advance width="1000"/>
  <unicode hex="03B2"/>
  <outline>
    <contour>
      <point x="115" y="-119" type="line"/>
      <point x="296" y="-119" type="line"/>
      <point x="298" y="-106"/>
      <point x="308" y="-43"/>
      <point x="319" y="17" type="curve"/>
      <point x="372" y="-21"/>
      <point x="434" y="-39"/>
      <point x="508" y="-39" type="curve" smooth="yes"/>
      <point x="662" y="-39"/>
      <point x="773" y="62"/>
      <point x="773" y="202" type="curve" smooth="yes"/>
      <point x="773" y="281"/>
      <point x="736" y="344"/>
      <point x="667" y="383" type="curve"/>
      <point x="762" y="416"/>
      <point x="821" y="498"/>
      <point x="821" y="594" type="curve" smooth="yes"/>
      <point x="821" y="731"/>
      <point x="720" y="830"/>
      <point x="582" y="830" type="curve" smooth="yes"/>
      <point x="492" y="830"/>
      <point x="409" y="783"/>
      <point x="352" y="700" type="curve" smooth="yes"/>
      <point x="308" y="636"/>
      <point x="275" y="551"/>
      <point x="228" y="385" type="curve" smooth="yes"/>
      <point x="197" y="276"/>
      <point x="197" y="276"/>
      <point x="124" y="-77" type="curve" smooth="yes"/>
    </contour>
    <contour>
      <point x="576" y="449" type="curve"/>
      <point x="547" y="459"/>
      <point x="526" y="464"/>
      <point x="505" y="464" type="curve" smooth="yes"/>
      <point x="456" y="464"/>
      <point x="423" y="436"/>
      <point x="423" y="394" type="curve" smooth="yes"/>
      <point x="423" y="352"/>
      <point x="465" y="320"/>
      <point x="521" y="320" type="curve" smooth="yes"/>
      <point x="530" y="320"/>
      <point x="544" y="321"/>
      <point x="559" y="323" type="curve"/>
      <point x="586" y="301"/>
      <point x="602" y="265"/>
      <point x="602" y="224" type="curve" smooth="yes"/>
      <point x="602" y="159"/>
      <point x="557" y="114"/>
      <point x="494" y="114" type="curve" smooth="yes"/>
      <point x="435" y="114"/>
      <point x="386" y="130"/>
      <point x="345" y="163" type="curve"/>
      <point x="416" y="545"/>
      <point x="480" y="688"/>
      <point x="581" y="688" type="curve" smooth="yes"/>
      <point x="631" y="688"/>
      <point x="665" y="645"/>
      <point x="665" y="581" type="curve" smooth="yes"/>
      <point x="665" y="521"/>
      <point x="633" y="473"/>
    </contour>
  </outline>
</glyph>
<glyph name="cid01037" format="2">
  <advance width="1000"/>
  <unicode hex="03B3"/>
  <outline>
    <contour>
      <point x="272" y="342" type="line"/>
      <point x="299" y="406"/>
      <point x="325" y="437"/>
      <point x="352" y="437" type="curve" smooth="yes"/>
      <point x="399" y="437"/>
      <point x="426" y="346"/>
      <point x="427" y="184" type="curve"/>
      <point x="376" y="118"/>
      <point x="348" y="47"/>
      <point x="348" y="-13" type="curve" smooth="yes"/>
      <point x="348" y="-73"/>
      <point x="378" y="-119"/>
      <point x="418" y="-119" type="curve" smooth="yes"/>
      <point x="504" y="-119"/>
      <point x="558" y="-11"/>
      <point x="558" y="162" type="curve" smooth="yes"/>
      <point x="558" y="164" type="line"/>
      <point x="640" y="278"/>
      <point x="745" y="384"/>
      <point x="859" y="467" type="curve"/>
      <point x="748" y="593" type="line"/>
      <point x="665" y="517"/>
      <point x="599" y="436"/>
      <point x="548" y="352" type="curve"/>
      <point x="543" y="421"/>
      <point x="532" y="464"/>
      <point x="510" y="503" type="curve" smooth="yes"/>
      <point x="479" y="560"/>
      <point x="429" y="590"/>
      <point x="367" y="590" type="curve" smooth="yes"/>
      <point x="265" y="590"/>
      <point x="186" y="532"/>
      <point x="133" y="418" type="curve"/>
    </contour>
  </outline>
</glyph>
<glyph name="cid01038" format="2">
  <advance width="1000"/>
  <unicode hex="03B4"/>
  <outline>
    <contour>
      <point x="843" y="690" type="line"/>
      <point x="743" y="784"/>
      <point x="630" y="830"/>
      <point x="501" y="830" type="curve" smooth="yes"/>
      <point x="390" y="830"/>
      <point x="307" y="765"/>
      <point x="307" y="678" type="curve" smooth="yes"/>
      <point x="307" y="617"/>
      <point x="347" y="568"/>
      <point x="440" y="514" type="curve"/>
      <point x="374" y="500"/>
      <point x="332" y="479"/>
      <point x="287" y="437" type="curve" smooth="yes"/>
      <point x="223" y="377"/>
      <point x="186" y="290"/>
      <point x="186" y="197" type="curve" smooth="yes"/>
      <point x="186" y="52"/>
      <point x="285" y="-46"/>
      <point x="431" y="-46" type="curve" smooth="yes"/>
      <point x="525" y="-46"/>
      <point x="601" y="-15"/>
      <point x="659" y="47" type="curve" smooth="yes"/>
      <point x="724" y="115"/>
      <point x="762" y="211"/>
      <point x="762" y="303" type="curve" smooth="yes"/>
      <point x="762" y="428"/>
      <point x="714" y="497"/>
      <point x="563" y="590" type="curve" smooth="yes"/>
      <point x="475" y="644"/>
      <point x="465" y="653"/>
      <point x="465" y="674" type="curve" smooth="yes"/>
      <point x="465" y="689"/>
      <point x="479" y="698"/>
      <point x="500" y="698" type="curve" smooth="yes"/>
      <point x="574" y="698"/>
      <point x="657" y="655"/>
      <point x="747" y="571" type="curve"/>
    </contour>
    <contour>
      <point x="517" y="426" type="curve" smooth="yes"/>
      <point x="562" y="426"/>
      <point x="595" y="380"/>
      <point x="595" y="316" type="curve" smooth="yes"/>
      <point x="595" y="277"/>
      <point x="581" y="224"/>
      <point x="560" y="182" type="curve" smooth="yes"/>
      <point x="529" y="122"/>
      <point x="484" y="89"/>
      <point x="433" y="89" type="curve" smooth="yes"/>
      <point x="383" y="89"/>
      <point x="350" y="131"/>
      <point x="350" y="195" type="curve" smooth="yes"/>
      <point x="350" y="237"/>
      <point x="368" y="299"/>
      <point x="392" y="343" type="curve" smooth="yes"/>
      <point x="423" y="397"/>
      <point x="467" y="426"/>
    </contour>
  </outline>
</glyph>
<glyph name="cid01039" format="2">
  <advance width="1000"/>
  <unicode hex="03B5"/>
  <outline>
    <contour>
      <point x="671" y="177" type="line"/>
      <point x="612" y="122"/>
      <point x="555" y="101"/>
      <point x="470" y="101" type="curve" smooth="yes"/>
      <point x="416" y="101"/>
      <point x="389" y="119"/>
      <point x="389" y="156" type="curve" smooth="yes"/>
      <point x="389" y="191"/>
      <point x="414" y="215"/>
      <point x="469" y="234" type="curve"/>
      <point x="500" y="224"/>
      <point x="526" y="219"/>
      <point x="551" y="219" type="curve" smooth="yes"/>
      <point x="606" y="219"/>
      <point x="642" y="244"/>
      <point x="642" y="282" type="curve" smooth="yes"/>
      <point x="642" y="321"/>
      <point x="607" y="346"/>
      <point x="552" y="346" type="curve" smooth="yes"/>
      <point x="526" y="346"/>
      <point x="500" y="341"/>
      <point x="465" y="331" type="curve"/>
      <point x="446" y="343"/>
      <point x="436" y="360"/>
      <point x="436" y="380" type="curve" smooth="yes"/>
      <point x="436" y="420"/>
      <point x="472" y="446"/>
      <point x="526" y="446" type="curve" smooth="yes"/>
      <point x="582" y="446"/>
      <point x="641" y="423"/>
      <point x="692" y="382" type="curve"/>
      <point x="777" y="508" type="line"/>
      <point x="706" y="556"/>
      <point x="606" y="586"/>
      <point x="511" y="586" type="curve" smooth="yes"/>
      <point x="383" y="586"/>
      <point x="280" y="509"/>
      <point x="280" y="412" type="curve" smooth="yes"/>
      <point x="280" y="362"/>
      <point x="303" y="322"/>
      <point x="348" y="294" type="curve"/>
      <point x="270" y="260"/>
      <point x="228" y="204"/>
      <point x="228" y="134" type="curve" smooth="yes"/>
      <point x="228" y="60"/>
      <point x="270" y="1"/>
      <point x="342" y="-27" type="curve" smooth="yes"/>
      <point x="376" y="-41"/>
      <point x="409" y="-46"/>
      <point x="459" y="-46" type="curve" smooth="yes"/>
      <point x="594" y="-46"/>
      <point x="680" y="-18"/>
      <point x="757" y="53" type="curve"/>
    </contour>
  </outline>
</glyph>
<glyph name="cid01040" format="2">
  <advance width="1000"/>
  <unicode hex="03B6"/>
  <outline>
    <contour>
      <point x="278" y="-67" type="line"/>
      <point x="347" y="-101"/>
      <point x="430" y="-119"/>
      <point x="520" y="-119" type="curve" smooth="yes"/>
      <point x="656" y="-119"/>
      <point x="740" y="-49"/>
      <point x="740" y="63" type="curve" smooth="yes"/>
      <point x="740" y="118"/>
      <point x="705" y="174"/>
      <point x="654" y="201" type="curve" smooth="yes"/>
      <point x="619" y="220"/>
      <point x="582" y="227"/>
      <point x="495" y="235" type="curve" smooth="yes"/>
      <point x="421" y="241"/>
      <point x="400" y="251"/>
      <point x="400" y="279" type="curve" smooth="yes"/>
      <point x="400" y="322"/>
      <point x="471" y="436"/>
      <point x="573" y="559" type="curve"/>
      <point x="665" y="575"/>
      <point x="739" y="618"/>
      <point x="786" y="681" type="curve" smooth="yes"/>
      <point x="808" y="711"/>
      <point x="821" y="743"/>
      <point x="821" y="768" type="curve" smooth="yes"/>
      <point x="821" y="806"/>
      <point x="792" y="830"/>
      <point x="746" y="830" type="curve" smooth="yes"/>
      <point x="668" y="830"/>
      <point x="584" y="772"/>
      <point x="497" y="660" type="curve"/>
      <point x="473" y="667"/>
      <point x="463" y="678"/>
      <point x="463" y="699" type="curve" smooth="yes"/>
      <point x="463" y="723"/>
      <point x="483" y="750"/>
      <point x="527" y="782" type="curve"/>
      <point x="394" y="823" type="line"/>
      <point x="344" y="772"/>
      <point x="319" y="724"/>
      <point x="319" y="679" type="curve" smooth="yes"/>
      <point x="319" y="629"/>
      <point x="360" y="589"/>
      <point x="424" y="575" type="curve"/>
      <point x="306" y="461"/>
      <point x="220" y="318"/>
      <point x="220" y="234" type="curve" smooth="yes"/>
      <point x="220" y="180"/>
      <point x="245" y="139"/>
      <point x="292" y="115" type="curve" smooth="yes"/>
      <point x="327" y="98"/>
      <point x="394" y="87"/>
      <point x="489" y="83" type="curve" smooth="yes"/>
      <point x="549" y="80"/>
      <point x="577" y="67"/>
      <point x="577" y="41" type="curve" smooth="yes"/>
      <point x="577" y="19"/>
      <point x="557" y="8"/>
      <point x="516" y="8" type="curve" smooth="yes"/>
      <point x="461" y="8"/>
      <point x="406" y="19"/>
      <point x="363" y="38" type="curve"/>
    </contour>
  </outline>
</glyph>
<glyph name="cid01041" format="2">
  <advance width="1000"/>
  <unicode hex="03B7"/>
  <outline>
    <contour>
      <point x="379" y="-24" type="line"/>
      <point x="413" y="102"/>
      <point x="460" y="250"/>
      <point x="488" y="317" type="curve" smooth="yes"/>
      <point x="515" y="380"/>
      <point x="561" y="422"/>
      <point x="605" y="422" type="curve" smooth="yes"/>
      <point x="631" y="422"/>
      <point x="645" y="403"/>
      <point x="645" y="367" type="curve" smooth="yes"/>
      <point x="645" y="320"/>
      <point x="598" y="157"/>
      <point x="504" y="-119" type="curve"/>
      <point x="684" y="-119" type="line"/>
      <point x="689" y="-98"/>
      <point x="693" y="-82"/>
      <point x="696" y="-72" type="curve" smooth="yes"/>
      <point x="745" y="119" type="line" smooth="yes"/>
      <point x="811" y="376"/>
      <point x="811" y="376"/>
      <point x="811" y="416" type="curve" smooth="yes"/>
      <point x="811" y="521"/>
      <point x="750" y="586"/>
      <point x="652" y="586" type="curve" smooth="yes"/>
      <point x="571" y="586"/>
      <point x="506" y="550"/>
      <point x="440" y="470" type="curve"/>
      <point x="436" y="544"/>
      <point x="400" y="586"/>
      <point x="339" y="586" type="curve" smooth="yes"/>
      <point x="266" y="586"/>
      <point x="205" y="541"/>
      <point x="126" y="427" type="curve"/>
      <point x="227" y="349" type="line"/>
      <point x="262" y="405"/>
      <point x="286" y="428"/>
      <point x="311" y="428" type="curve" smooth="yes"/>
      <point x="327" y="428"/>
      <point x="336" y="414"/>
      <point x="336" y="391" type="curve" smooth="yes"/>
      <point x="336" y="341"/>
      <point x="286" y="189"/>
      <point x="199" y="-24" type="curve"/>
    </contour>
  </outline>
</glyph>
<glyph name="cid01042" format="2">
  <advance width="1000"/>
  <unicode hex="03B8"/>
  <outline>
    <contour>
      <point x="578" y="830" type="curve" smooth="yes"/>
      <point x="472" y="830"/>
      <point x="376" y="773"/>
      <point x="303" y="668" type="curve" smooth="yes"/>
      <point x="229" y="563"/>
      <point x="180" y="403"/>
      <point x="180" y="269" type="curve" smooth="yes"/>
      <point x="180" y="79"/>
      <point x="277" y="-46"/>
      <point x="425" y="-46" type="curve" smooth="yes"/>
      <point x="540" y="-46"/>
      <point x="643" y="23"/>
      <point x="716" y="148" type="curve" smooth="yes"/>
      <point x="776" y="252"/>
      <point x="816" y="400"/>
      <point x="816" y="521" type="curve" smooth="yes"/>
      <point x="816" y="710"/>
      <point x="723" y="830"/>
    </contour>
    <contour>
      <point x="383" y="469" type="line"/>
      <point x="430" y="609"/>
      <point x="499" y="691"/>
      <point x="570" y="691" type="curve" smooth="yes"/>
      <point x="621" y="691"/>
      <point x="652" y="638"/>
      <point x="652" y="551" type="curve" smooth="yes"/>
      <point x="652" y="527"/>
      <point x="650" y="509"/>
      <point x="645" y="469" type="curve"/>
    </contour>
    <contour>
      <point x="620" y="344" type="line"/>
      <point x="579" y="187"/>
      <point x="509" y="94"/>
      <point x="434" y="94" type="curve" smooth="yes"/>
      <point x="381" y="94"/>
      <point x="346" y="151"/>
      <point x="346" y="237" type="curve" smooth="yes"/>
      <point x="346" y="262"/>
      <point x="350" y="302"/>
      <point x="356" y="344" type="curve"/>
    </contour>
  </outline>
</glyph>
<glyph name="cid01043" format="2">
  <advance width="1000"/>
  <unicode hex="03B9"/>
  <outline>
    <contour>
      <point x="584" y="204" type="line"/>
      <point x="545" y="139"/>
      <point x="501" y="103"/>
      <point x="462" y="103" type="curve" smooth="yes"/>
      <point x="443" y="103"/>
      <point x="430" y="118"/>
      <point x="430" y="141" type="curve" smooth="yes"/>
      <point x="430" y="159"/>
      <point x="433" y="169"/>
      <point x="457" y="224" type="curve" smooth="yes"/>
      <point x="496" y="317"/>
      <point x="549" y="426"/>
      <point x="621" y="565" type="curve"/>
      <point x="426" y="565" type="line"/>
      <point x="308" y="293"/>
      <point x="270" y="183"/>
      <point x="270" y="116" type="curve" smooth="yes"/>
      <point x="270" y="17"/>
      <point x="334" y="-46"/>
      <point x="436" y="-46" type="curve" smooth="yes"/>
      <point x="547" y="-46"/>
      <point x="629" y="4"/>
      <point x="713" y="125" type="curve"/>
    </contour>
  </outline>
</glyph>
<glyph name="cid01044" format="2">
  <advance width="1000"/>
  <unicode hex="03BA"/>
  <outline>
    <contour>
      <point x="495" y="565" type="line"/>
      <point x="323" y="565" type="line"/>
      <point x="168" y="-25" type="line"/>
      <point x="342" y="-25" type="line"/>
      <point x="405" y="213" type="line"/>
      <point x="442" y="209"/>
      <point x="456" y="187"/>
      <point x="456" y="131" type="curve" smooth="yes"/>
      <point x="456" y="124" type="line" smooth="yes"/>
      <point x="456" y="17"/>
      <point x="510" y="-46"/>
      <point x="601" y="-46" type="curve" smooth="yes"/>
      <point x="690" y="-46"/>
      <point x="763" y="5"/>
      <point x="837" y="118" type="curve"/>
      <point x="724" y="222" type="line"/>
      <point x="688" y="148"/>
      <point x="655" y="112"/>
      <point x="625" y="112" type="curve" smooth="yes"/>
      <point x="605" y="112"/>
      <point x="598" y="124"/>
      <point x="598" y="158" type="curve" smooth="yes"/>
      <point x="598" y="236"/>
      <point x="586" y="263"/>
      <point x="543" y="285" type="curve"/>
      <point x="617" y="338"/>
      <point x="698" y="379"/>
      <point x="768" y="400" type="curve"/>
      <point x="793" y="579" type="line"/>
      <point x="696" y="552"/>
      <point x="561" y="468"/>
      <point x="442" y="360" type="curve"/>
    </contour>
  </outline>
</glyph>
<glyph name="cid01045" format="2">
  <advance width="1000"/>
  <unicode hex="03BB"/>
  <outline>
    <contour>
      <point x="324" y="-25" type="line"/>
      <point x="525" y="290" type="line"/>
      <point x="543" y="161"/>
      <point x="577" y="50"/>
      <point x="621" y="-25" type="curve"/>
      <point x="846" y="-25" type="line"/>
      <point x="720" y="136"/>
      <point x="669" y="300"/>
      <point x="663" y="562" type="curve" smooth="yes"/>
      <point x="663" y="639"/>
      <point x="656" y="682"/>
      <point x="640" y="724" type="curve" smooth="yes"/>
      <point x="613" y="794"/>
      <point x="560" y="830"/>
      <point x="485" y="830" type="curve" smooth="yes"/>
      <point x="403" y="830"/>
      <point x="325" y="790"/>
      <point x="228" y="699" type="curve"/>
      <point x="315" y="568" type="line"/>
      <point x="374" y="645"/>
      <point x="411" y="675"/>
      <point x="445" y="675" type="curve" smooth="yes"/>
      <point x="482" y="675"/>
      <point x="496" y="635"/>
      <point x="496" y="528" type="curve"/>
      <point x="360" y="321"/>
      <point x="247" y="159"/>
      <point x="111" y="-25" type="curve"/>
    </contour>
  </outline>
</glyph>
<glyph name="cid01047" format="2">
  <advance width="1000"/>
  <unicode hex="03BD"/>
  <outline>
    <contour>
      <point x="625" y="565" type="line"/>
      <point x="625" y="541" type="line" smooth="yes"/>
      <point x="631" y="313"/>
      <point x="559" y="172"/>
      <point x="406" y="116" type="curve"/>
      <point x="442" y="193"/>
      <point x="457" y="264"/>
      <point x="457" y="356" type="curve" smooth="yes"/>
      <point x="457" y="436"/>
      <point x="435" y="516"/>
      <point x="393" y="594" type="curve"/>
      <point x="229" y="503" type="line"/>
      <point x="276" y="439"/>
      <point x="301" y="359"/>
      <point x="301" y="274" type="curve" smooth="yes"/>
      <point x="301" y="169"/>
      <point x="269" y="55"/>
      <point x="210" y="-52" type="curve"/>
      <point x="403" y="-43"/>
      <point x="538" y="7"/>
      <point x="648" y="112" type="curve" smooth="yes"/>
      <point x="749" y="209"/>
      <point x="798" y="352"/>
      <point x="803" y="565" type="curve"/>
    </contour>
  </outline>
</glyph>
<glyph name="cid01048" format="2">
  <advance width="1000"/>
  <unicode hex="03BE"/>
  <outline>
    <contour>
      <point x="225" y="-70" type="line"/>
      <point x="306" y="-102"/>
      <point x="397" y="-119"/>
      <point x="492" y="-119" type="curve" smooth="yes"/>
      <point x="648" y="-119"/>
      <point x="737" y="-56"/>
      <point x="737" y="54" type="curve" smooth="yes"/>
      <point x="737" y="104"/>
      <point x="709" y="148"/>
      <point x="665" y="170" type="curve" smooth="yes"/>
      <point x="626" y="189"/>
      <point x="582" y="200"/>
      <point x="518" y="207" type="curve" smooth="yes"/>
      <point x="410" y="219"/>
      <point x="377" y="234"/>
      <point x="377" y="273" type="curve" smooth="yes"/>
      <point x="377" y="321"/>
      <point x="435" y="367"/>
      <point x="518" y="384" type="curve"/>
      <point x="564" y="373"/>
      <point x="598" y="369"/>
      <point x="634" y="369" type="curve" smooth="yes"/>
      <point x="717" y="369"/>
      <point x="770" y="400"/>
      <point x="770" y="449" type="curve" smooth="yes"/>
      <point x="770" y="494"/>
      <point x="720" y="523"/>
      <point x="643" y="523" type="curve" smooth="yes"/>
      <point x="606" y="523"/>
      <point x="570" y="516"/>
      <point x="527" y="502" type="curve"/>
      <point x="475" y="513"/>
      <point x="446" y="541"/>
      <point x="446" y="578" type="curve" smooth="yes"/>
      <point x="446" y="623"/>
      <point x="487" y="658"/>
      <point x="562" y="677" type="curve"/>
      <point x="587" y="673"/>
      <point x="606" y="672"/>
      <point x="627" y="672" type="curve" smooth="yes"/>
      <point x="724" y="672"/>
      <point x="793" y="709"/>
      <point x="793" y="762" type="curve" smooth="yes"/>
      <point x="793" y="805"/>
      <point x="749" y="830"/>
      <point x="673" y="830" type="curve" smooth="yes"/>
      <point x="625" y="830"/>
      <point x="585" y="821"/>
      <point x="523" y="795" type="curve"/>
      <point x="495" y="807"/>
      <point x="451" y="838"/>
      <point x="427" y="862" type="curve"/>
      <point x="299" y="795" type="line"/>
      <point x="321" y="772"/>
      <point x="355" y="747"/>
      <point x="392" y="728" type="curve"/>
      <point x="322" y="683"/>
      <point x="280" y="624"/>
      <point x="280" y="570" type="curve" smooth="yes"/>
      <point x="280" y="520"/>
      <point x="314" y="474"/>
      <point x="367" y="452" type="curve"/>
      <point x="263" y="411"/>
      <point x="201" y="337"/>
      <point x="201" y="257" type="curve" smooth="yes"/>
      <point x="201" y="156"/>
      <point x="285" y="98"/>
      <point x="464" y="75" type="curve" smooth="yes"/>
      <point x="545" y="64"/>
      <point x="564" y="57"/>
      <point x="564" y="35" type="curve" smooth="yes"/>
      <point x="564" y="13"/>
      <point x="536" y="0"/>
      <point x="486" y="0" type="curve" smooth="yes"/>
      <point x="417" y="0"/>
      <point x="347" y="16"/>
      <point x="298" y="43" type="curve"/>
    </contour>
  </outline>
</glyph>
<glyph name="cid01049" format="2">
  <advance width="1000"/>
  <unicode hex="03BF"/>
  <outline>
    <contour>
      <point x="533" y="586" type="curve" smooth="yes"/>
      <point x="363" y="586"/>
      <point x="222" y="420"/>
      <point x="222" y="219" type="curve" smooth="yes"/>
      <point x="222" y="57"/>
      <point x="316" y="-46"/>
      <point x="464" y="-46" type="curve" smooth="yes"/>
      <point x="641" y="-46"/>
      <point x="778" y="116"/>
      <point x="778" y="326" type="curve" smooth="yes"/>
      <point x="778" y="478"/>
      <point x="677" y="586"/>
    </contour>
    <contour>
      <point x="531" y="452" type="curve" smooth="yes"/>
      <point x="589" y="452"/>
      <point x="621" y="408"/>
      <point x="621" y="327" type="curve" smooth="yes"/>
      <point x="621" y="199"/>
      <point x="550" y="88"/>
      <point x="468" y="88" type="curve" smooth="yes"/>
      <point x="411" y="88"/>
      <point x="379" y="134"/>
      <point x="379" y="217" type="curve" smooth="yes"/>
      <point x="379" y="342"/>
      <point x="450" y="452"/>
    </contour>
  </outline>
</glyph>
<glyph name="cid01050" format="2">
  <advance width="1000"/>
  <unicode hex="03C0"/>
  <outline>
    <contour>
      <point x="213" y="382" type="line"/>
      <point x="249" y="398"/>
      <point x="284" y="407"/>
      <point x="325" y="411" type="curve"/>
      <point x="289" y="283"/>
      <point x="226" y="120"/>
      <point x="159" y="-25" type="curve"/>
      <point x="326" y="-25" type="line"/>
      <point x="371" y="97"/>
      <point x="419" y="254"/>
      <point x="460" y="415" type="curve"/>
      <point x="544" y="415" type="line"/>
      <point x="506" y="274"/>
      <point x="484" y="163"/>
      <point x="484" y="116" type="curve" smooth="yes"/>
      <point x="484" y="14"/>
      <point x="536" y="-46"/>
      <point x="625" y="-46" type="curve" smooth="yes"/>
      <point x="677" y="-46"/>
      <point x="729" y="-28"/>
      <point x="773" y="5" type="curve" smooth="yes"/>
      <point x="808" y="31"/>
      <point x="833" y="58"/>
      <point x="872" y="114" type="curve"/>
      <point x="783" y="226" type="line"/>
      <point x="736" y="138"/>
      <point x="705" y="106"/>
      <point x="667" y="106" type="curve" smooth="yes"/>
      <point x="640" y="106"/>
      <point x="626" y="122"/>
      <point x="626" y="155" type="curve" smooth="yes"/>
      <point x="626" y="194"/>
      <point x="645" y="289"/>
      <point x="679" y="416" type="curve"/>
      <point x="751" y="419"/>
      <point x="799" y="433"/>
      <point x="874" y="472" type="curve"/>
      <point x="806" y="600" type="line"/>
      <point x="760" y="575"/>
      <point x="710" y="565"/>
      <point x="636" y="565" type="curve" smooth="yes"/>
      <point x="398" y="565" type="line" smooth="yes"/>
      <point x="308" y="565"/>
      <point x="215" y="543"/>
      <point x="151" y="507" type="curve"/>
    </contour>
  </outline>
</glyph>
<glyph name="cid01051" format="2">
  <advance width="1000"/>
  <unicode hex="03C1"/>
  <outline>
    <contour>
      <point x="332" y="-119" type="line"/>
      <point x="333" y="-95"/>
      <point x="342" y="-27"/>
      <point x="353" y="45" type="curve"/>
      <point x="375" y="-14"/>
      <point x="424" y="-46"/>
      <point x="491" y="-46" type="curve" smooth="yes"/>
      <point x="650" y="-46"/>
      <point x="778" y="113"/>
      <point x="778" y="310" type="curve" smooth="yes"/>
      <point x="778" y="473"/>
      <point x="677" y="586"/>
      <point x="531" y="586" type="curve" smooth="yes"/>
      <point x="416" y="586"/>
      <point x="314" y="510"/>
      <point x="258" y="384" type="curve" smooth="yes"/>
      <point x="217" y="291"/>
      <point x="187" y="153"/>
      <point x="149" y="-119" type="curve"/>
    </contour>
    <contour>
      <point x="528" y="452" type="curve" smooth="yes"/>
      <point x="587" y="452"/>
      <point x="624" y="398"/>
      <point x="624" y="313" type="curve" smooth="yes"/>
      <point x="624" y="197"/>
      <point x="552" y="88"/>
      <point x="476" y="88" type="curve" smooth="yes"/>
      <point x="420" y="88"/>
      <point x="381" y="141"/>
      <point x="381" y="219" type="curve" smooth="yes"/>
      <point x="381" y="342"/>
      <point x="450" y="452"/>
    </contour>
  </outline>
</glyph>
<glyph name="cid01052" format="2">
  <advance width="1000"/>
  <unicode hex="03C3"/>
  <outline>
    <contour>
      <point x="839" y="418" type="line"/>
      <point x="886" y="565" type="line"/>
      <point x="533" y="565" type="line" smooth="yes"/>
      <point x="364" y="565"/>
      <point x="222" y="407"/>
      <point x="222" y="218" type="curve" smooth="yes"/>
      <point x="222" y="59"/>
      <point x="319" y="-46"/>
      <point x="465" y="-46" type="curve" smooth="yes"/>
      <point x="562" y="-46"/>
      <point x="643" y="-5"/>
      <point x="698" y="72" type="curve" smooth="yes"/>
      <point x="740" y="131"/>
      <point x="762" y="200"/>
      <point x="762" y="276" type="curve" smooth="yes"/>
      <point x="762" y="335"/>
      <point x="752" y="375"/>
      <point x="726" y="418" type="curve"/>
    </contour>
    <contour>
      <point x="528" y="432" type="curve" smooth="yes"/>
      <point x="583" y="432"/>
      <point x="621" y="378"/>
      <point x="621" y="301" type="curve" smooth="yes"/>
      <point x="621" y="192"/>
      <point x="546" y="87"/>
      <point x="469" y="87" type="curve" smooth="yes"/>
      <point x="418" y="87"/>
      <point x="379" y="143"/>
      <point x="379" y="217" type="curve" smooth="yes"/>
      <point x="379" y="333"/>
      <point x="448" y="432"/>
    </contour>
  </outline>
</glyph>
<glyph name="cid01053" format="2">
  <advance width="1000"/>
  <unicode hex="03C4"/>
  <outline>
    <contour>
      <point x="224" y="379" type="line"/>
      <point x="270" y="406"/>
      <point x="313" y="415"/>
      <point x="405" y="415" type="curve"/>
      <point x="360" y="326"/>
      <point x="320" y="185"/>
      <point x="320" y="112" type="curve" smooth="yes"/>
      <point x="320" y="8"/>
      <point x="375" y="-46"/>
      <point x="480" y="-46" type="curve" smooth="yes"/>
      <point x="534" y="-46"/>
      <point x="602" y="-29"/>
      <point x="648" y="-3" type="curve" smooth="yes"/>
      <point x="686" y="18"/>
      <point x="726" y="55"/>
      <point x="755" y="97" type="curve"/>
      <point x="664" y="206" type="line"/>
      <point x="610" y="138"/>
      <point x="567" y="107"/>
      <point x="526" y="107" type="curve" smooth="yes"/>
      <point x="496" y="107"/>
      <point x="484" y="121"/>
      <point x="484" y="156" type="curve" smooth="yes"/>
      <point x="484" y="218"/>
      <point x="517" y="327"/>
      <point x="563" y="415" type="curve"/>
      <point x="710" y="414"/>
      <point x="779" y="428"/>
      <point x="869" y="474" type="curve"/>
      <point x="781" y="601" type="line"/>
      <point x="738" y="576"/>
      <point x="671" y="565"/>
      <point x="564" y="565" type="curve" smooth="yes"/>
      <point x="443" y="565" type="line" smooth="yes"/>
      <point x="323" y="565"/>
      <point x="238" y="550"/>
      <point x="161" y="515" type="curve"/>
    </contour>
  </outline>
</glyph>
<glyph name="cid01054" format="2">
  <advance width="1000"/>
  <unicode hex="03C5"/>
  <outline>
    <contour>
      <point x="229" y="353" type="line"/>
      <point x="253" y="409"/>
      <point x="280" y="439"/>
      <point x="305" y="439" type="curve" smooth="yes"/>
      <point x="314" y="439"/>
      <point x="319" y="433"/>
      <point x="319" y="423" type="curve" smooth="yes"/>
      <point x="319" y="411"/>
      <point x="311" y="391"/>
      <point x="295" y="362" type="curve" smooth="yes"/>
      <point x="243" y="271"/>
      <point x="219" y="199"/>
      <point x="219" y="137" type="curve" smooth="yes"/>
      <point x="219" y="29"/>
      <point x="303" y="-46"/>
      <point x="426" y="-46" type="curve" smooth="yes"/>
      <point x="639" y="-46"/>
      <point x="795" y="114"/>
      <point x="795" y="333" type="curve" smooth="yes"/>
      <point x="795" y="440"/>
      <point x="768" y="523"/>
      <point x="712" y="588" type="curve"/>
      <point x="576" y="508" type="line"/>
      <point x="620" y="457"/>
      <point x="640" y="401"/>
      <point x="640" y="329" type="curve" smooth="yes"/>
      <point x="640" y="237"/>
      <point x="602" y="164"/>
      <point x="535" y="130" type="curve" smooth="yes"/>
      <point x="510" y="117"/>
      <point x="479" y="109"/>
      <point x="456" y="109" type="curve" smooth="yes"/>
      <point x="414" y="109"/>
      <point x="388" y="132"/>
      <point x="388" y="170" type="curve" smooth="yes"/>
      <point x="388" y="199"/>
      <point x="400" y="232"/>
      <point x="425" y="274" type="curve" smooth="yes"/>
      <point x="475" y="357"/>
      <point x="491" y="400"/>
      <point x="491" y="448" type="curve" smooth="yes"/>
      <point x="491" y="528"/>
      <point x="432" y="586"/>
      <point x="351" y="586" type="curve" smooth="yes"/>
      <point x="276" y="586"/>
      <point x="209" y="546"/>
      <point x="145" y="465" type="curve"/>
    </contour>
  </outline>
</glyph>
<glyph name="cid01055" format="2">
  <advance width="1000"/>
  <unicode hex="03C6"/>
  <outline>
    <contour>
      <point x="555" y="830" type="line"/>
      <point x="494" y="610" type="line"/>
      <point x="393" y="603"/>
      <point x="318" y="574"/>
      <point x="250" y="516" type="curve" smooth="yes"/>
      <point x="179" y="455"/>
      <point x="139" y="374"/>
      <point x="139" y="290" type="curve" smooth="yes"/>
      <point x="139" y="209"/>
      <point x="173" y="134"/>
      <point x="234" y="81" type="curve" smooth="yes"/>
      <point x="267" y="53"/>
      <point x="295" y="38"/>
      <point x="344" y="24" type="curve"/>
      <point x="296" y="-119" type="line"/>
      <point x="467" y="-119" type="line"/>
      <point x="506" y="15" type="line"/>
      <point x="600" y="20"/>
      <point x="662" y="38"/>
      <point x="721" y="77" type="curve" smooth="yes"/>
      <point x="809" y="134"/>
      <point x="858" y="230"/>
      <point x="858" y="344" type="curve" smooth="yes"/>
      <point x="858" y="473"/>
      <point x="784" y="569"/>
      <point x="656" y="605" type="curve"/>
      <point x="719" y="830" type="line"/>
    </contour>
    <contour>
      <point x="379" y="159" type="line"/>
      <point x="324" y="176"/>
      <point x="290" y="224"/>
      <point x="290" y="285" type="curve" smooth="yes"/>
      <point x="290" y="379"/>
      <point x="369" y="468"/>
      <point x="466" y="484" type="curve"/>
    </contour>
    <contour>
      <point x="618" y="476" type="line"/>
      <point x="672" y="457"/>
      <point x="702" y="409"/>
      <point x="702" y="344" type="curve" smooth="yes"/>
      <point x="702" y="277"/>
      <point x="666" y="214"/>
      <point x="608" y="179" type="curve" smooth="yes"/>
      <point x="586" y="166"/>
      <point x="569" y="160"/>
      <point x="536" y="154" type="curve"/>
    </contour>
  </outline>
</glyph>
<glyph name="cid01056" format="2">
  <advance width="1000"/>
  <unicode hex="03C7"/>
  <outline>
    <contour>
      <point x="136" y="-119" type="line"/>
      <point x="337" y="-119" type="line"/>
      <point x="462" y="70" type="line"/>
      <point x="477" y="8"/>
      <point x="486" y="-17"/>
      <point x="499" y="-43" type="curve" smooth="yes"/>
      <point x="525" y="-94"/>
      <point x="562" y="-119"/>
      <point x="613" y="-119" type="curve" smooth="yes"/>
      <point x="674" y="-119"/>
      <point x="738" y="-84"/>
      <point x="810" y="-11" type="curve"/>
      <point x="746" y="122" type="line"/>
      <point x="706" y="65"/>
      <point x="670" y="33"/>
      <point x="647" y="33" type="curve" smooth="yes"/>
      <point x="624" y="33"/>
      <point x="607" y="82"/>
      <point x="581" y="222" type="curve"/>
      <point x="849" y="565" type="line"/>
      <point x="660" y="565" type="line"/>
      <point x="543" y="397" type="line"/>
      <point x="531" y="459"/>
      <point x="525" y="483"/>
      <point x="516" y="506" type="curve" smooth="yes"/>
      <point x="495" y="558"/>
      <point x="453" y="586"/>
      <point x="399" y="586" type="curve" smooth="yes"/>
      <point x="334" y="586"/>
      <point x="282" y="557"/>
      <point x="203" y="476" type="curve"/>
      <point x="287" y="369" type="line"/>
      <point x="320" y="417"/>
      <point x="342" y="438"/>
      <point x="360" y="438" type="curve" smooth="yes"/>
      <point x="371" y="438"/>
      <point x="381" y="427"/>
      <point x="388" y="409" type="curve" smooth="yes"/>
      <point x="395" y="388"/>
      <point x="399" y="372"/>
      <point x="417" y="268" type="curve" smooth="yes"/>
      <point x="421" y="246" type="line"/>
    </contour>
  </outline>
</glyph>
<glyph name="cid01057" format="2">
  <advance width="1000"/>
  <unicode hex="03C8"/>
  <outline>
    <contour>
      <point x="556" y="830" type="line"/>
      <point x="379" y="151" type="line"/>
      <point x="323" y="169"/>
      <point x="290" y="219"/>
      <point x="290" y="289" type="curve" smooth="yes"/>
      <point x="290" y="316"/>
      <point x="295" y="339"/>
      <point x="309" y="369" type="curve" smooth="yes"/>
      <point x="333" y="423"/>
      <point x="369" y="456"/>
      <point x="426" y="479" type="curve"/>
      <point x="339" y="580" type="line"/>
      <point x="292" y="560"/>
      <point x="267" y="544"/>
      <point x="237" y="517" type="curve" smooth="yes"/>
      <point x="173" y="460"/>
      <point x="138" y="381"/>
      <point x="138" y="293" type="curve" smooth="yes"/>
      <point x="138" y="158"/>
      <point x="217" y="52"/>
      <point x="344" y="16" type="curve"/>
      <point x="298" y="-119" type="line"/>
      <point x="467" y="-119" type="line"/>
      <point x="506" y="7" type="line"/>
      <point x="712" y="15"/>
      <point x="861" y="157"/>
      <point x="861" y="345" type="curve" smooth="yes"/>
      <point x="861" y="433"/>
      <point x="833" y="505"/>
      <point x="773" y="575" type="curve"/>
      <point x="659" y="471" type="line"/>
      <point x="690" y="434"/>
      <point x="703" y="400"/>
      <point x="703" y="353" type="curve" smooth="yes"/>
      <point x="703" y="316"/>
      <point x="692" y="270"/>
      <point x="675" y="241" type="curve" smooth="yes"/>
      <point x="647" y="192"/>
      <point x="595" y="155"/>
      <point x="542" y="148" type="curve"/>
      <point x="719" y="830" type="line"/>
    </contour>
  </outline>
</glyph>
<glyph name="cid01058" format="2">
  <advance width="1000"/>
  <unicode hex="03C9"/>
  <outline>
    <contour>
      <point x="663" y="487" type="line"/>
      <point x="709" y="441"/>
      <point x="729" y="390"/>
      <point x="729" y="318" type="curve" smooth="yes"/>
      <point x="729" y="278"/>
      <point x="722" y="234"/>
      <point x="711" y="205" type="curve" smooth="yes"/>
      <point x="691" y="153"/>
      <point x="650" y="116"/>
      <point x="613" y="116" type="curve" smooth="yes"/>
      <point x="574" y="116"/>
      <point x="554" y="148"/>
      <point x="551" y="214" type="curve"/>
      <point x="575" y="247"/>
      <point x="587" y="284"/>
      <point x="587" y="324" type="curve" smooth="yes"/>
      <point x="587" y="384"/>
      <point x="561" y="424"/>
      <point x="523" y="424" type="curve" smooth="yes"/>
      <point x="467" y="424"/>
      <point x="422" y="357"/>
      <point x="422" y="273" type="curve" smooth="yes"/>
      <point x="422" y="257"/>
      <point x="423" y="245"/>
      <point x="428" y="218" type="curve"/>
      <point x="392" y="153"/>
      <point x="347" y="116"/>
      <point x="303" y="116" type="curve" smooth="yes"/>
      <point x="272" y="116"/>
      <point x="251" y="153"/>
      <point x="251" y="207" type="curve" smooth="yes"/>
      <point x="251" y="298"/>
      <point x="317" y="403"/>
      <point x="415" y="470" type="curve"/>
      <point x="317" y="578" type="line"/>
      <point x="162" y="460"/>
      <point x="94" y="342"/>
      <point x="94" y="189" type="curve" smooth="yes"/>
      <point x="94" y="45"/>
      <point x="168" y="-46"/>
      <point x="285" y="-46" type="curve" smooth="yes"/>
      <point x="351" y="-46"/>
      <point x="413" y="-8"/>
      <point x="456" y="58" type="curve"/>
      <point x="480" y="-11"/>
      <point x="526" y="-46"/>
      <point x="592" y="-46" type="curve" smooth="yes"/>
      <point x="694" y="-46"/>
      <point x="781" y="7"/>
      <point x="835" y="100" type="curve" smooth="yes"/>
      <point x="871" y="163"/>
      <point x="891" y="238"/>
      <point x="891" y="308" type="curve" smooth="yes"/>
      <point x="891" y="414"/>
      <point x="853" y="500"/>
      <point x="774" y="578" type="curve"/>
    </contour>
  </outline>
</glyph>
<glyph name="cid01065" format="2">
  <advance width="1000"/>
  <unicode hex="0401"/>
  <outline>
    <contour>
      <point x="215" y="725" type="line"/>
      <point x="215" y="-25" type="line"/>
      <point x="820" y="-25" type="line"/>
      <point x="820" y="124" type="line"/>
      <point x="398" y="124" type="line"/>
      <point x="398" y="280" type="line"/>
      <point x="751" y="280" type="line"/>
      <point x="751" y="424" type="line"/>
      <point x="398" y="424" type="line"/>
      <point x="398" y="580" type="line"/>
      <point x="803" y="580" type="line"/>
      <point x="803" y="725" type="line"/>
    </contour>
    <contour>
      <point x="300" y="879" type="line"/>
      <point x="300" y="779" type="line"/>
      <point x="440" y="779" type="line"/>
      <point x="440" y="879" type="line"/>
    </contour>
    <contour>
      <point x="560" y="879" type="line"/>
      <point x="560" y="779" type="line"/>
      <point x="700" y="779" type="line"/>
      <point x="700" y="879" type="line"/>
    </contour>
  </outline>
</glyph>
<glyph name="cid01060" format="2">
  <advance width="1000"/>
  <unicode hex="0411"/>
  <outline>
    <contour>
      <point x="198" y="785" type="line"/>
      <point x="198" y="-25" type="line"/>
      <point x="567" y="-25" type="line" smooth="yes"/>
      <point x="670" y="-25"/>
      <point x="729" y="-11"/>
      <point x="777" y="23" type="curve" smooth="yes"/>
      <point x="837" y="67"/>
      <point x="870" y="140"/>
      <point x="870" y="230" type="curve" smooth="yes"/>
      <point x="870" y="306"/>
      <point x="843" y="367"/>
      <point x="788" y="416" type="curve" smooth="yes"/>
      <point x="735" y="463"/>
      <point x="666" y="484"/>
      <point x="567" y="484" type="curve" smooth="yes"/>
      <point x="380" y="484" type="line"/>
      <point x="380" y="638" type="line"/>
      <point x="800" y="638" type="line"/>
      <point x="800" y="785" type="line"/>
    </contour>
    <contour>
      <point x="380" y="337" type="line"/>
      <point x="554" y="337" type="line" smooth="yes"/>
      <point x="638" y="337"/>
      <point x="678" y="302"/>
      <point x="678" y="229" type="curve" smooth="yes"/>
      <point x="678" y="154"/>
      <point x="639" y="121"/>
      <point x="554" y="121" type="curve" smooth="yes"/>
      <point x="380" y="121" type="line"/>
    </contour>
  </outline>
</glyph>
<glyph name="cid01061" format="2">
  <advance width="1000"/>
  <unicode hex="0412"/>
  <outline>
    <contour>
      <point x="186" y="785" type="line"/>
      <point x="186" y="-25" type="line"/>
      <point x="528" y="-25" type="line" smooth="yes"/>
      <point x="730" y="-25"/>
      <point x="851" y="60"/>
      <point x="851" y="203" type="curve" smooth="yes"/>
      <point x="851" y="265"/>
      <point x="837" y="303"/>
      <point x="802" y="333" type="curve" smooth="yes"/>
      <point x="761" y="370"/>
      <point x="712" y="389"/>
      <point x="640" y="396" type="curve"/>
      <point x="640" y="400" type="line"/>
      <point x="751" y="415"/>
      <point x="817" y="483"/>
      <point x="817" y="582" type="curve" smooth="yes"/>
      <point x="817" y="662"/>
      <point x="763" y="730"/>
      <point x="675" y="761" type="curve" smooth="yes"/>
      <point x="632" y="776"/>
      <point x="565" y="785"/>
      <point x="495" y="785" type="curve" smooth="yes"/>
    </contour>
    <contour>
      <point x="368" y="652" type="line"/>
      <point x="483" y="652" type="line" smooth="yes"/>
      <point x="579" y="652"/>
      <point x="627" y="621"/>
      <point x="627" y="560" type="curve" smooth="yes"/>
      <point x="627" y="500"/>
      <point x="575" y="468"/>
      <point x="479" y="468" type="curve" smooth="yes"/>
      <point x="368" y="468" type="line"/>
    </contour>
    <contour>
      <point x="368" y="326" type="line"/>
      <point x="483" y="326" type="line" smooth="yes"/>
      <point x="597" y="326"/>
      <point x="648" y="295"/>
      <point x="648" y="226" type="curve" smooth="yes"/>
      <point x="648" y="190"/>
      <point x="629" y="159"/>
      <point x="595" y="141" type="curve" smooth="yes"/>
      <point x="574" y="130"/>
      <point x="542" y="124"/>
      <point x="499" y="124" type="curve" smooth="yes"/>
      <point x="368" y="124" type="line"/>
    </contour>
  </outline>
</glyph>
<glyph name="cid01063" format="2">
  <advance width="1000"/>
  <unicode hex="0414"/>
  <outline>
    <contour>
      <point x="289" y="785" type="line"/>
      <point x="289" y="628" type="line" smooth="yes"/>
      <point x="289" y="411"/>
      <point x="252" y="250"/>
      <point x="173" y="125" type="curve"/>
      <point x="104" y="125" type="line"/>
      <point x="104" y="-119" type="line"/>
      <point x="263" y="-119" type="line"/>
      <point x="263" y="-25" type="line"/>
      <point x="738" y="-25" type="line"/>
      <point x="738" y="-119" type="line"/>
      <point x="896" y="-119" type="line"/>
      <point x="896" y="125" type="line"/>
      <point x="806" y="125" type="line"/>
      <point x="806" y="785" type="line"/>
    </contour>
    <contour>
      <point x="636" y="634" type="line"/>
      <point x="636" y="125" type="line"/>
      <point x="373" y="125" type="line"/>
      <point x="434" y="261"/>
      <point x="462" y="422"/>
      <point x="462" y="634" type="curve"/>
    </contour>
  </outline>
</glyph>
<glyph name="cid01066" format="2">
  <advance width="1000"/>
  <unicode hex="0416"/>
  <outline>
    <contour>
      <point x="31" y="-25" type="line"/>
      <point x="244" y="-25" type="line"/>
      <point x="388" y="337" type="line"/>
      <point x="394" y="335"/>
      <point x="404" y="332"/>
      <point x="411" y="331" type="curve"/>
      <point x="411" y="-25" type="line"/>
      <point x="589" y="-25" type="line"/>
      <point x="589" y="331" type="line"/>
      <point x="596" y="332"/>
      <point x="607" y="335"/>
      <point x="612" y="337" type="curve"/>
      <point x="756" y="-25" type="line"/>
      <point x="969" y="-25" type="line"/>
      <point x="766" y="390" type="line"/>
      <point x="870" y="454"/>
      <point x="915" y="559"/>
      <point x="936" y="785" type="curve"/>
      <point x="743" y="785" type="line"/>
      <point x="732" y="608"/>
      <point x="676" y="504"/>
      <point x="589" y="497" type="curve"/>
      <point x="589" y="785" type="line"/>
      <point x="411" y="785" type="line"/>
      <point x="411" y="497" type="line"/>
      <point x="323" y="506"/>
      <point x="269" y="608"/>
      <point x="257" y="785" type="curve"/>
      <point x="64" y="785" type="line"/>
      <point x="85" y="560"/>
      <point x="130" y="453"/>
      <point x="234" y="390" type="curve"/>
    </contour>
  </outline>
</glyph>
<glyph name="cid01067" format="2">
  <advance width="1000"/>
  <unicode hex="0417"/>
  <outline>
    <contour>
      <point x="308" y="568" type="line"/>
      <point x="360" y="635"/>
      <point x="416" y="665"/>
      <point x="491" y="665" type="curve" smooth="yes"/>
      <point x="567" y="665"/>
      <point x="620" y="624"/>
      <point x="620" y="565" type="curve" smooth="yes"/>
      <point x="620" y="517"/>
      <point x="590" y="479"/>
      <point x="542" y="468" type="curve" smooth="yes"/>
      <point x="512" y="461"/>
      <point x="492" y="460"/>
      <point x="401" y="460" type="curve"/>
      <point x="401" y="330" type="line"/>
      <point x="475" y="330"/>
      <point x="510" y="327"/>
      <point x="548" y="318" type="curve" smooth="yes"/>
      <point x="612" y="302"/>
      <point x="649" y="259"/>
      <point x="649" y="202" type="curve" smooth="yes"/>
      <point x="649" y="140"/>
      <point x="589" y="98"/>
      <point x="502" y="98" type="curve" smooth="yes"/>
      <point x="409" y="98"/>
      <point x="336" y="138"/>
      <point x="275" y="224" type="curve"/>
      <point x="144" y="120" type="line"/>
      <point x="228" y="9"/>
      <point x="348" y="-46"/>
      <point x="502" y="-46" type="curve" smooth="yes"/>
      <point x="716" y="-46"/>
      <point x="845" y="44"/>
      <point x="845" y="193" type="curve" smooth="yes"/>
      <point x="845" y="295"/>
      <point x="777" y="372"/>
      <point x="663" y="399" type="curve"/>
      <point x="663" y="404" type="line"/>
      <point x="754" y="428"/>
      <point x="805" y="489"/>
      <point x="805" y="575" type="curve" smooth="yes"/>
      <point x="805" y="705"/>
      <point x="669" y="805"/>
      <point x="493" y="805" type="curve" smooth="yes"/>
      <point x="354" y="805"/>
      <point x="242" y="753"/>
      <point x="178" y="658" type="curve"/>
    </contour>
  </outline>
</glyph>
<glyph name="cid01068" format="2">
  <advance width="1000"/>
  <unicode hex="0418"/>
  <outline>
    <contour>
      <point x="150" y="785" type="line"/>
      <point x="150" y="-25" type="line"/>
      <point x="334" y="-25" type="line"/>
      <point x="334" y="116" type="line"/>
      <point x="666" y="445" type="line"/>
      <point x="666" y="-25" type="line"/>
      <point x="850" y="-25" type="line"/>
      <point x="850" y="785" type="line"/>
      <point x="666" y="785" type="line"/>
      <point x="666" y="680" type="line"/>
      <point x="334" y="360" type="line"/>
      <point x="334" y="785" type="line"/>
    </contour>
  </outline>
</glyph>
<glyph name="cid01069" format="2">
  <advance width="1000"/>
  <unicode hex="0419"/>
  <outline>
    <contour>
      <point x="578" y="879" type="line"/>
      <point x="567" y="844"/>
      <point x="542" y="827"/>
      <point x="500" y="827" type="curve" smooth="yes"/>
      <point x="458" y="827"/>
      <point x="432" y="845"/>
      <point x="422" y="879" type="curve"/>
      <point x="313" y="879" type="line"/>
      <point x="330" y="787"/>
      <point x="398" y="735"/>
      <point x="500" y="735" type="curve" smooth="yes"/>
      <point x="601" y="735"/>
      <point x="670" y="788"/>
      <point x="687" y="879" type="curve"/>
    </contour>
    <contour>
      <point x="150" y="735" type="line"/>
      <point x="150" y="-25" type="line"/>
      <point x="334" y="-25" type="line"/>
      <point x="334" y="91" type="line"/>
      <point x="666" y="420" type="line"/>
      <point x="666" y="-25" type="line"/>
      <point x="850" y="-25" type="line"/>
      <point x="850" y="735" type="line"/>
      <point x="666" y="735" type="line"/>
      <point x="666" y="655" type="line"/>
      <point x="334" y="335" type="line"/>
      <point x="334" y="735" type="line"/>
    </contour>
  </outline>
</glyph>
<glyph name="cid01070" format="2">
  <advance width="1000"/>
  <unicode hex="041A"/>
  <outline>
    <contour>
      <point x="177" y="785" type="line"/>
      <point x="177" y="-25" type="line"/>
      <point x="361" y="-25" type="line"/>
      <point x="361" y="314" type="line"/>
      <point x="386" y="315"/>
      <point x="427" y="322"/>
      <point x="447" y="329" type="curve"/>
      <point x="671" y="-25" type="line"/>
      <point x="909" y="-25" type="line"/>
      <point x="599" y="396" type="line"/>
      <point x="736" y="495"/>
      <point x="803" y="612"/>
      <point x="822" y="785" type="curve"/>
      <point x="636" y="785" type="line"/>
      <point x="623" y="615"/>
      <point x="520" y="503"/>
      <point x="361" y="482" type="curve"/>
      <point x="361" y="785" type="line"/>
    </contour>
  </outline>
</glyph>
<glyph name="cid01071" format="2">
  <advance width="1000"/>
  <unicode hex="041B"/>
  <outline>
    <contour>
      <point x="326" y="785" type="line"/>
      <point x="326" y="540" type="line" smooth="yes"/>
      <point x="326" y="245"/>
      <point x="303" y="131"/>
      <point x="244" y="131" type="curve" smooth="yes"/>
      <point x="212" y="131"/>
      <point x="189" y="158"/>
      <point x="160" y="229" type="curve"/>
      <point x="24" y="126" type="line"/>
      <point x="71" y="8"/>
      <point x="141" y="-46"/>
      <point x="245" y="-46" type="curve" smooth="yes"/>
      <point x="344" y="-46"/>
      <point x="412" y="2"/>
      <point x="456" y="103" type="curve" smooth="yes"/>
      <point x="492" y="186"/>
      <point x="510" y="328"/>
      <point x="510" y="540" type="curve" smooth="yes"/>
      <point x="510" y="629" type="line"/>
      <point x="659" y="629" type="line"/>
      <point x="659" y="-25" type="line"/>
      <point x="843" y="-25" type="line"/>
      <point x="843" y="785" type="line"/>
    </contour>
  </outline>
</glyph>
<glyph name="cid01072" format="2">
  <advance width="1000"/>
  <unicode hex="041C"/>
  <outline>
    <contour>
      <point x="55" y="785" type="line"/>
      <point x="55" y="-25" type="line"/>
      <point x="232" y="-25" type="line"/>
      <point x="232" y="348" type="line" smooth="yes"/>
      <point x="232" y="437"/>
      <point x="228" y="539"/>
      <point x="222" y="641" type="curve"/>
      <point x="226" y="641" type="line"/>
      <point x="248" y="558"/>
      <point x="283" y="452"/>
      <point x="309" y="390" type="curve" smooth="yes"/>
      <point x="423" y="111" type="line"/>
      <point x="577" y="111" type="line"/>
      <point x="691" y="390" type="line" smooth="yes"/>
      <point x="718" y="456"/>
      <point x="750" y="553"/>
      <point x="774" y="641" type="curve"/>
      <point x="778" y="641" type="line"/>
      <point x="772" y="554"/>
      <point x="768" y="421"/>
      <point x="768" y="348" type="curve" smooth="yes"/>
      <point x="768" y="-25" type="line"/>
      <point x="945" y="-25" type="line"/>
      <point x="945" y="785" type="line"/>
      <point x="679" y="785" type="line"/>
      <point x="550" y="455" type="line" smooth="yes"/>
      <point x="531" y="405"/>
      <point x="510" y="331"/>
      <point x="502" y="287" type="curve"/>
      <point x="498" y="287" type="line"/>
      <point x="488" y="337"/>
      <point x="470" y="402"/>
      <point x="450" y="455" type="curve" smooth="yes"/>
      <point x="321" y="785" type="line"/>
    </contour>
  </outline>
</glyph>
<glyph name="cid01075" format="2">
  <advance width="1000"/>
  <unicode hex="041F"/>
  <outline>
    <contour>
      <point x="95" y="785" type="line"/>
      <point x="95" y="627" type="line"/>
      <point x="180" y="627" type="line"/>
      <point x="180" y="-25" type="line"/>
      <point x="364" y="-25" type="line"/>
      <point x="364" y="627" type="line"/>
      <point x="637" y="627" type="line"/>
      <point x="637" y="-25" type="line"/>
      <point x="820" y="-25" type="line"/>
      <point x="820" y="627" type="line"/>
      <point x="905" y="627" type="line"/>
      <point x="905" y="785" type="line"/>
    </contour>
  </outline>
</glyph>
<glyph name="cid01077" format="2">
  <advance width="1000"/>
  <unicode hex="0421"/>
  <outline>
    <contour>
      <point x="777" y="201" type="line"/>
      <point x="720" y="144"/>
      <point x="642" y="114"/>
      <point x="553" y="114" type="curve" smooth="yes"/>
      <point x="415" y="114"/>
      <point x="322" y="221"/>
      <point x="322" y="379" type="curve" smooth="yes"/>
      <point x="322" y="541"/>
      <point x="412" y="651"/>
      <point x="544" y="651" type="curve" smooth="yes"/>
      <point x="625" y="651"/>
      <point x="694" y="624"/>
      <point x="750" y="572" type="curve"/>
      <point x="840" y="701" type="line"/>
      <point x="756" y="772"/>
      <point x="658" y="806"/>
      <point x="540" y="806" type="curve" smooth="yes"/>
      <point x="298" y="806"/>
      <point x="123" y="626"/>
      <point x="123" y="378" type="curve" smooth="yes"/>
      <point x="123" y="124"/>
      <point x="294" y="-46"/>
      <point x="551" y="-46" type="curve" smooth="yes"/>
      <point x="682" y="-46"/>
      <point x="783" y="-10"/>
      <point x="862" y="65" type="curve"/>
    </contour>
  </outline>
</glyph>
<glyph name="cid01079" format="2">
  <advance width="1000"/>
  <unicode hex="0423"/>
  <outline>
    <contour>
      <point x="158" y="785" type="line"/>
      <point x="461" y="210" type="line"/>
      <point x="447" y="179" type="line" smooth="yes"/>
      <point x="430" y="139"/>
      <point x="415" y="132"/>
      <point x="349" y="132" type="curve" smooth="yes"/>
      <point x="217" y="132" type="line"/>
      <point x="252" y="-25" type="line"/>
      <point x="385" y="-25" type="line" smooth="yes"/>
      <point x="500" y="-26"/>
      <point x="553" y="5"/>
      <point x="592" y="95" type="curve" smooth="yes"/>
      <point x="890" y="785" type="line"/>
      <point x="686" y="785" type="line"/>
      <point x="576" y="489" type="line" smooth="yes"/>
      <point x="561" y="449"/>
      <point x="551" y="418"/>
      <point x="541" y="385" type="curve"/>
      <point x="536" y="385" type="line"/>
      <point x="520" y="434"/>
      <point x="510" y="462"/>
      <point x="499" y="487" type="curve" smooth="yes"/>
      <point x="367" y="785" type="line"/>
    </contour>
  </outline>
</glyph>
<glyph name="cid01080" format="2">
  <advance width="1000"/>
  <unicode hex="0424"/>
  <outline>
    <contour>
      <point x="409" y="785" type="line"/>
      <point x="409" y="680" type="line"/>
      <point x="324" y="670"/>
      <point x="268" y="650"/>
      <point x="213" y="610" type="curve" smooth="yes"/>
      <point x="134" y="554"/>
      <point x="88" y="469"/>
      <point x="88" y="380" type="curve" smooth="yes"/>
      <point x="88" y="294"/>
      <point x="131" y="212"/>
      <point x="207" y="155" type="curve" smooth="yes"/>
      <point x="263" y="114"/>
      <point x="321" y="92"/>
      <point x="409" y="79" type="curve"/>
      <point x="409" y="-25" type="line"/>
      <point x="591" y="-25" type="line"/>
      <point x="591" y="79" type="line"/>
      <point x="676" y="91"/>
      <point x="729" y="111"/>
      <point x="784" y="149" type="curve" smooth="yes"/>
      <point x="865" y="206"/>
      <point x="912" y="291"/>
      <point x="912" y="380" type="curve" smooth="yes"/>
      <point x="912" y="462"/>
      <point x="873" y="541"/>
      <point x="805" y="597" type="curve" smooth="yes"/>
      <point x="747" y="644"/>
      <point x="693" y="666"/>
      <point x="591" y="680" type="curve"/>
      <point x="591" y="785" type="line"/>
    </contour>
    <contour>
      <point x="409" y="221" type="line"/>
      <point x="312" y="242"/>
      <point x="253" y="302"/>
      <point x="253" y="380" type="curve" smooth="yes"/>
      <point x="253" y="422"/>
      <point x="272" y="462"/>
      <point x="305" y="492" type="curve" smooth="yes"/>
      <point x="333" y="517"/>
      <point x="359" y="528"/>
      <point x="409" y="538" type="curve"/>
    </contour>
    <contour>
      <point x="591" y="538" type="line"/>
      <point x="687" y="521"/>
      <point x="747" y="460"/>
      <point x="747" y="380" type="curve" smooth="yes"/>
      <point x="747" y="302"/>
      <point x="688" y="242"/>
      <point x="591" y="221" type="curve"/>
    </contour>
  </outline>
</glyph>
<glyph name="cid01081" format="2">
  <advance width="1000"/>
  <unicode hex="0425"/>
  <outline>
    <contour>
      <point x="94" y="785" type="line"/>
      <point x="384" y="384" type="line"/>
      <point x="87" y="-25" type="line"/>
      <point x="321" y="-25" type="line"/>
      <point x="500" y="257" type="line"/>
      <point x="679" y="-25" type="line"/>
      <point x="913" y="-25" type="line"/>
      <point x="616" y="384" type="line"/>
      <point x="906" y="785" type="line"/>
      <point x="674" y="785" type="line"/>
      <point x="500" y="505" type="line"/>
      <point x="326" y="785" type="line"/>
    </contour>
  </outline>
</glyph>
<glyph name="cid01082" format="2">
  <advance width="1000"/>
  <unicode hex="0426"/>
  <outline>
    <contour>
      <point x="150" y="785" type="line"/>
      <point x="150" y="-25" type="line"/>
      <point x="790" y="-25" type="line"/>
      <point x="790" y="-119" type="line"/>
      <point x="949" y="-119" type="line"/>
      <point x="949" y="135" type="line"/>
      <point x="820" y="135" type="line"/>
      <point x="820" y="785" type="line"/>
      <point x="636" y="785" type="line"/>
      <point x="636" y="135" type="line"/>
      <point x="334" y="135" type="line"/>
      <point x="334" y="785" type="line"/>
    </contour>
  </outline>
</glyph>
<glyph name="cid01083" format="2">
  <advance width="1000"/>
  <unicode hex="0427"/>
  <outline>
    <contour>
      <point x="184" y="785" type="line"/>
      <point x="184" y="470" type="line" smooth="yes"/>
      <point x="184" y="386"/>
      <point x="194" y="341"/>
      <point x="221" y="297" type="curve" smooth="yes"/>
      <point x="258" y="238"/>
      <point x="318" y="210"/>
      <point x="408" y="210" type="curve" smooth="yes"/>
      <point x="502" y="210"/>
      <point x="569" y="225"/>
      <point x="632" y="262" type="curve"/>
      <point x="632" y="-25" type="line"/>
      <point x="816" y="-25" type="line"/>
      <point x="816" y="785" type="line"/>
      <point x="632" y="785" type="line"/>
      <point x="632" y="427" type="line"/>
      <point x="588" y="397"/>
      <point x="529" y="380"/>
      <point x="471" y="380" type="curve" smooth="yes"/>
      <point x="391" y="380"/>
      <point x="368" y="405"/>
      <point x="368" y="495" type="curve" smooth="yes"/>
      <point x="368" y="785" type="line"/>
    </contour>
  </outline>
</glyph>
<glyph name="cid01084" format="2">
  <advance width="1000"/>
  <unicode hex="0428"/>
  <outline>
    <contour>
      <point x="78" y="785" type="line"/>
      <point x="78" y="-25" type="line"/>
      <point x="922" y="-25" type="line"/>
      <point x="922" y="785" type="line"/>
      <point x="746" y="785" type="line"/>
      <point x="746" y="135" type="line"/>
      <point x="588" y="135" type="line"/>
      <point x="588" y="785" type="line"/>
      <point x="412" y="785" type="line"/>
      <point x="412" y="135" type="line"/>
      <point x="254" y="135" type="line"/>
      <point x="254" y="785" type="line"/>
    </contour>
  </outline>
</glyph>
<glyph name="cid01085" format="2">
  <advance width="1000"/>
  <unicode hex="0429"/>
  <outline>
    <contour>
      <point x="72" y="785" type="line"/>
      <point x="72" y="-25" type="line"/>
      <point x="828" y="-25" type="line"/>
      <point x="828" y="-119" type="line"/>
      <point x="991" y="-119" type="line"/>
      <point x="991" y="135" type="line"/>
      <point x="887" y="135" type="line"/>
      <point x="887" y="785" type="line"/>
      <point x="711" y="785" type="line"/>
      <point x="711" y="135" type="line"/>
      <point x="566" y="135" type="line"/>
      <point x="566" y="785" type="line"/>
      <point x="390" y="785" type="line"/>
      <point x="390" y="135" type="line"/>
      <point x="248" y="135" type="line"/>
      <point x="248" y="785" type="line"/>
    </contour>
  </outline>
</glyph>
<glyph name="cid01086" format="2">
  <advance width="1000"/>
  <unicode hex="042A"/>
  <outline>
    <contour>
      <point x="86" y="785" type="line"/>
      <point x="86" y="638" type="line"/>
      <point x="260" y="638" type="line"/>
      <point x="260" y="-25" type="line"/>
      <point x="593" y="-25" type="line" smooth="yes"/>
      <point x="696" y="-25"/>
      <point x="755" y="-11"/>
      <point x="803" y="23" type="curve" smooth="yes"/>
      <point x="863" y="67"/>
      <point x="896" y="140"/>
      <point x="896" y="230" type="curve" smooth="yes"/>
      <point x="896" y="306"/>
      <point x="869" y="367"/>
      <point x="814" y="416" type="curve" smooth="yes"/>
      <point x="761" y="463"/>
      <point x="692" y="484"/>
      <point x="593" y="484" type="curve" smooth="yes"/>
      <point x="436" y="484" type="line"/>
      <point x="436" y="785" type="line"/>
    </contour>
    <contour>
      <point x="436" y="337" type="line"/>
      <point x="584" y="337" type="line" smooth="yes"/>
      <point x="668" y="337"/>
      <point x="708" y="302"/>
      <point x="708" y="229" type="curve" smooth="yes"/>
      <point x="708" y="154"/>
      <point x="669" y="121"/>
      <point x="584" y="121" type="curve" smooth="yes"/>
      <point x="436" y="121" type="line"/>
    </contour>
  </outline>
</glyph>
<glyph name="cid01087" format="2">
  <advance width="1000"/>
  <unicode hex="042B"/>
  <outline>
    <contour>
      <point x="84" y="785" type="line"/>
      <point x="84" y="-25" type="line"/>
      <point x="373" y="-25" type="line" smooth="yes"/>
      <point x="465" y="-25"/>
      <point x="519" y="-11"/>
      <point x="562" y="23" type="curve" smooth="yes"/>
      <point x="615" y="66"/>
      <point x="645" y="140"/>
      <point x="645" y="230" type="curve" smooth="yes"/>
      <point x="645" y="307"/>
      <point x="621" y="367"/>
      <point x="572" y="416" type="curve" smooth="yes"/>
      <point x="525" y="462"/>
      <point x="461" y="484"/>
      <point x="373" y="484" type="curve" smooth="yes"/>
      <point x="248" y="484" type="line"/>
      <point x="248" y="785" type="line"/>
    </contour>
    <contour>
      <point x="248" y="337" type="line"/>
      <point x="359" y="337" type="line" smooth="yes"/>
      <point x="434" y="337"/>
      <point x="470" y="302"/>
      <point x="470" y="229" type="curve" smooth="yes"/>
      <point x="470" y="155"/>
      <point x="435" y="121"/>
      <point x="359" y="121" type="curve" smooth="yes"/>
      <point x="248" y="121" type="line"/>
    </contour>
    <contour>
      <point x="732" y="785" type="line"/>
      <point x="732" y="-25" type="line"/>
      <point x="899" y="-25" type="line"/>
      <point x="899" y="785" type="line"/>
    </contour>
  </outline>
</glyph>
<glyph name="cid01088" format="2">
  <advance width="1000"/>
  <unicode hex="042C"/>
  <outline>
    <contour>
      <point x="190" y="785" type="line"/>
      <point x="190" y="-25" type="line"/>
      <point x="570" y="-25" type="line" smooth="yes"/>
      <point x="673" y="-25"/>
      <point x="732" y="-11"/>
      <point x="780" y="23" type="curve" smooth="yes"/>
      <point x="840" y="67"/>
      <point x="873" y="140"/>
      <point x="873" y="230" type="curve" smooth="yes"/>
      <point x="873" y="306"/>
      <point x="846" y="367"/>
      <point x="791" y="416" type="curve" smooth="yes"/>
      <point x="738" y="463"/>
      <point x="669" y="484"/>
      <point x="570" y="484" type="curve" smooth="yes"/>
      <point x="372" y="484" type="line"/>
      <point x="372" y="785" type="line"/>
    </contour>
    <contour>
      <point x="372" y="337" type="line"/>
      <point x="558" y="337" type="line" smooth="yes"/>
      <point x="642" y="337"/>
      <point x="682" y="302"/>
      <point x="682" y="229" type="curve" smooth="yes"/>
      <point x="682" y="154"/>
      <point x="643" y="121"/>
      <point x="558" y="121" type="curve" smooth="yes"/>
      <point x="372" y="121" type="line"/>
    </contour>
  </outline>
</glyph>
<glyph name="cid01089" format="2">
  <advance width="1000"/>
  <unicode hex="042D"/>
  <outline>
    <contour>
      <point x="209" y="579" type="line"/>
      <point x="275" y="627"/>
      <point x="368" y="656"/>
      <point x="457" y="656" type="curve" smooth="yes"/>
      <point x="608" y="656"/>
      <point x="698" y="552"/>
      <point x="698" y="378" type="curve" smooth="yes"/>
      <point x="698" y="299"/>
      <point x="673" y="223"/>
      <point x="633" y="181" type="curve" smooth="yes"/>
      <point x="591" y="137"/>
      <point x="519" y="109"/>
      <point x="448" y="109" type="curve" smooth="yes"/>
      <point x="348" y="109"/>
      <point x="248" y="142"/>
      <point x="189" y="195" type="curve"/>
      <point x="107" y="64" type="line"/>
      <point x="184" y="-7"/>
      <point x="306" y="-46"/>
      <point x="449" y="-46" type="curve" smooth="yes"/>
      <point x="714" y="-46"/>
      <point x="887" y="121"/>
      <point x="887" y="378" type="curve" smooth="yes"/>
      <point x="887" y="630"/>
      <point x="710" y="806"/>
      <point x="458" y="806" type="curve" smooth="yes"/>
      <point x="333" y="806"/>
      <point x="218" y="770"/>
      <point x="130" y="702" type="curve"/>
    </contour>
    <contour>
      <point x="183" y="295" type="line"/>
      <point x="233" y="324"/>
      <point x="265" y="335"/>
      <point x="302" y="335" type="curve" smooth="yes"/>
      <point x="330" y="335"/>
      <point x="363" y="327"/>
      <point x="400" y="310" type="curve" smooth="yes"/>
      <point x="442" y="291"/>
      <point x="475" y="283"/>
      <point x="507" y="283" type="curve" smooth="yes"/>
      <point x="540" y="283"/>
      <point x="568" y="290"/>
      <point x="608" y="310" type="curve"/>
      <point x="608" y="458" type="line"/>
      <point x="563" y="436"/>
      <point x="535" y="428"/>
      <point x="504" y="428" type="curve" smooth="yes"/>
      <point x="475" y="428"/>
      <point x="451" y="434"/>
      <point x="408" y="452" type="curve" smooth="yes"/>
      <point x="367" y="470"/>
      <point x="338" y="477"/>
      <point x="307" y="477" type="curve" smooth="yes"/>
      <point x="270" y="477"/>
      <point x="239" y="468"/>
      <point x="183" y="444" type="curve"/>
    </contour>
  </outline>
</glyph>
<glyph name="cid01090" format="2">
  <advance width="1000"/>
  <unicode hex="042E"/>
  <outline>
    <contour>
      <point x="256" y="478" type="line"/>
      <point x="256" y="785" type="line"/>
      <point x="78" y="785" type="line"/>
      <point x="78" y="-25" type="line"/>
      <point x="256" y="-25" type="line"/>
      <point x="256" y="318" type="line"/>
      <point x="315" y="318" type="line"/>
      <point x="327" y="215"/>
      <point x="349" y="151"/>
      <point x="393" y="87" type="curve" smooth="yes"/>
      <point x="453" y="2"/>
      <point x="543" y="-46"/>
      <point x="642" y="-46" type="curve" smooth="yes"/>
      <point x="842" y="-46"/>
      <point x="976" y="125"/>
      <point x="976" y="379" type="curve" smooth="yes"/>
      <point x="976" y="631"/>
      <point x="840" y="806"/>
      <point x="643" y="806" type="curve" smooth="yes"/>
      <point x="545" y="806"/>
      <point x="461" y="765"/>
      <point x="402" y="688" type="curve" smooth="yes"/>
      <point x="359" y="633"/>
      <point x="334" y="572"/>
      <point x="315" y="478" type="curve"/>
    </contour>
    <contour>
      <point x="643" y="661" type="curve" smooth="yes"/>
      <point x="744" y="661"/>
      <point x="801" y="561"/>
      <point x="801" y="383" type="curve" smooth="yes"/>
      <point x="801" y="206"/>
      <point x="745" y="107"/>
      <point x="644" y="107" type="curve" smooth="yes"/>
      <point x="540" y="107"/>
      <point x="485" y="203"/>
      <point x="485" y="383" type="curve" smooth="yes"/>
      <point x="485" y="563"/>
      <point x="540" y="661"/>
    </contour>
  </outline>
</glyph>
<glyph name="cid01091" format="2">
  <advance width="1000"/>
  <unicode hex="042F"/>
  <outline>
    <contour>
      <point x="835" y="785" type="line"/>
      <point x="497" y="785" type="line" smooth="yes"/>
      <point x="415" y="785"/>
      <point x="348" y="772"/>
      <point x="297" y="746" type="curve" smooth="yes"/>
      <point x="223" y="708"/>
      <point x="180" y="640"/>
      <point x="180" y="562" type="curve" smooth="yes"/>
      <point x="180" y="449"/>
      <point x="256" y="377"/>
      <point x="396" y="357" type="curve"/>
      <point x="396" y="354" type="line"/>
      <point x="308" y="329"/>
      <point x="256" y="260"/>
      <point x="113" y="-25" type="curve"/>
      <point x="333" y="-25" type="line"/>
      <point x="440" y="241"/>
      <point x="474" y="285"/>
      <point x="579" y="288" type="curve" smooth="yes"/>
      <point x="649" y="288" type="line"/>
      <point x="649" y="-25" type="line"/>
      <point x="835" y="-25" type="line"/>
    </contour>
    <contour>
      <point x="649" y="641" type="line"/>
      <point x="649" y="430" type="line"/>
      <point x="544" y="430" type="line" smooth="yes"/>
      <point x="438" y="430"/>
      <point x="381" y="469"/>
      <point x="381" y="542" type="curve" smooth="yes"/>
      <point x="381" y="606"/>
      <point x="436" y="641"/>
      <point x="536" y="641" type="curve" smooth="yes"/>
    </contour>
  </outline>
</glyph>
<glyph name="cid01092" format="2">
  <advance width="1000"/>
  <unicode hex="0430"/>
  <outline>
    <contour>
      <point x="581" y="349" type="line"/>
      <point x="498" y="349" type="line" smooth="yes"/>
      <point x="292" y="349"/>
      <point x="185" y="281"/>
      <point x="185" y="152" type="curve" smooth="yes"/>
      <point x="185" y="38"/>
      <point x="272" y="-41"/>
      <point x="398" y="-41" type="curve" smooth="yes"/>
      <point x="448" y="-41"/>
      <point x="491" y="-31"/>
      <point x="523" y="-11" type="curve" smooth="yes"/>
      <point x="553" y="8"/>
      <point x="581" y="35"/>
      <point x="596" y="62" type="curve"/>
      <point x="600" y="62" type="line"/>
      <point x="605" y="28"/>
      <point x="617" y="-8"/>
      <point x="627" y="-25" type="curve"/>
      <point x="780" y="-25" type="line"/>
      <point x="760" y="12"/>
      <point x="748" y="79"/>
      <point x="748" y="153" type="curve" smooth="yes"/>
      <point x="748" y="334" type="line" smooth="yes"/>
      <point x="748" y="411"/>
      <point x="735" y="462"/>
      <point x="704" y="501" type="curve" smooth="yes"/>
      <point x="662" y="555"/>
      <point x="580" y="586"/>
      <point x="481" y="586" type="curve" smooth="yes"/>
      <point x="385" y="586"/>
      <point x="294" y="559"/>
      <point x="214" y="508" type="curve"/>
      <point x="283" y="396" type="line"/>
      <point x="333" y="431"/>
      <point x="399" y="450"/>
      <point x="472" y="450" type="curve" smooth="yes"/>
      <point x="540" y="450"/>
      <point x="581" y="419"/>
      <point x="581" y="366" type="curve" smooth="yes"/>
    </contour>
    <contour>
      <point x="580" y="241" type="line"/>
      <point x="580" y="218" type="line" smooth="yes"/>
      <point x="580" y="149"/>
      <point x="522" y="94"/>
      <point x="449" y="94" type="curve" smooth="yes"/>
      <point x="399" y="94"/>
      <point x="366" y="120"/>
      <point x="366" y="160" type="curve" smooth="yes"/>
      <point x="366" y="219"/>
      <point x="416" y="241"/>
      <point x="554" y="241" type="curve" smooth="yes"/>
    </contour>
  </outline>
</glyph>
<glyph name="cid01093" format="2">
  <advance width="1000"/>
  <unicode hex="0431"/>
  <outline>
    <contour>
      <point x="392" y="509" type="line"/>
      <point x="415" y="577"/>
      <point x="484" y="620"/>
      <point x="590" y="635" type="curve" smooth="yes"/>
      <point x="710" y="652"/>
      <point x="757" y="704"/>
      <point x="764" y="830" type="curve"/>
      <point x="574" y="830" type="line"/>
      <point x="571" y="785"/>
      <point x="560" y="773"/>
      <point x="508" y="759" type="curve" smooth="yes"/>
      <point x="419" y="733"/>
      <point x="354" y="695"/>
      <point x="309" y="644" type="curve" smooth="yes"/>
      <point x="245" y="571"/>
      <point x="210" y="460"/>
      <point x="210" y="327" type="curve" smooth="yes"/>
      <point x="210" y="96"/>
      <point x="320" y="-46"/>
      <point x="500" y="-46" type="curve" smooth="yes"/>
      <point x="677" y="-46"/>
      <point x="791" y="75"/>
      <point x="791" y="263" type="curve" smooth="yes"/>
      <point x="791" y="435"/>
      <point x="681" y="558"/>
      <point x="526" y="558" type="curve" smooth="yes"/>
      <point x="477" y="558"/>
      <point x="433" y="541"/>
      <point x="396" y="509" type="curve"/>
    </contour>
    <contour>
      <point x="499" y="426" type="curve" smooth="yes"/>
      <point x="581" y="426"/>
      <point x="626" y="367"/>
      <point x="626" y="260" type="curve" smooth="yes"/>
      <point x="626" y="152"/>
      <point x="580" y="90"/>
      <point x="500" y="90" type="curve" smooth="yes"/>
      <point x="427" y="90"/>
      <point x="377" y="159"/>
      <point x="377" y="260" type="curve" smooth="yes"/>
      <point x="377" y="362"/>
      <point x="424" y="426"/>
    </contour>
  </outline>
</glyph>
<glyph name="cid01094" format="2">
  <advance width="1000"/>
  <unicode hex="0432"/>
  <outline>
    <contour>
      <point x="236" y="565" type="line"/>
      <point x="236" y="-25" type="line"/>
      <point x="520" y="-25" type="line" smooth="yes"/>
      <point x="594" y="-25"/>
      <point x="637" y="-20"/>
      <point x="671" y="-7" type="curve" smooth="yes"/>
      <point x="730" y="15"/>
      <point x="765" y="67"/>
      <point x="765" y="133" type="curve" smooth="yes"/>
      <point x="765" y="204"/>
      <point x="712" y="255"/>
      <point x="616" y="275" type="curve"/>
      <point x="616" y="280" type="line"/>
      <point x="698" y="294"/>
      <point x="743" y="341"/>
      <point x="743" y="413" type="curve" smooth="yes"/>
      <point x="743" y="459"/>
      <point x="714" y="508"/>
      <point x="675" y="531" type="curve" smooth="yes"/>
      <point x="630" y="556"/>
      <point x="588" y="565"/>
      <point x="516" y="565" type="curve" smooth="yes"/>
    </contour>
    <contour>
      <point x="394" y="441" type="line"/>
      <point x="507" y="441" type="line" smooth="yes"/>
      <point x="556" y="441"/>
      <point x="579" y="424"/>
      <point x="579" y="387" type="curve" smooth="yes"/>
      <point x="579" y="347"/>
      <point x="559" y="331"/>
      <point x="507" y="331" type="curve" smooth="yes"/>
      <point x="394" y="331" type="line"/>
    </contour>
    <contour>
      <point x="394" y="214" type="line"/>
      <point x="507" y="214" type="line" smooth="yes"/>
      <point x="562" y="214"/>
      <point x="592" y="194"/>
      <point x="592" y="156" type="curve" smooth="yes"/>
      <point x="592" y="114"/>
      <point x="569" y="99"/>
      <point x="507" y="99" type="curve" smooth="yes"/>
      <point x="394" y="99" type="line"/>
    </contour>
  </outline>
</glyph>
<glyph name="cid01095" format="2">
  <advance width="1000"/>
  <unicode hex="0433"/>
  <outline>
    <contour>
      <point x="266" y="565" type="line"/>
      <point x="266" y="-25" type="line"/>
      <point x="444" y="-25" type="line"/>
      <point x="444" y="421" type="line"/>
      <point x="776" y="421" type="line"/>
      <point x="776" y="565" type="line"/>
    </contour>
  </outline>
</glyph>
<glyph name="cid01096" format="2">
  <advance width="1000"/>
  <unicode hex="0434"/>
  <outline>
    <contour>
      <point x="338" y="565" type="line"/>
      <point x="338" y="532" type="line" smooth="yes"/>
      <point x="338" y="337"/>
      <point x="297" y="194"/>
      <point x="217" y="105" type="curve"/>
      <point x="139" y="105" type="line"/>
      <point x="139" y="-119" type="line"/>
      <point x="276" y="-119" type="line"/>
      <point x="276" y="-25" type="line"/>
      <point x="681" y="-25" type="line"/>
      <point x="681" y="-119" type="line"/>
      <point x="819" y="-119" type="line"/>
      <point x="819" y="105" type="line"/>
      <point x="739" y="105" type="line"/>
      <point x="739" y="565" type="line"/>
    </contour>
    <contour>
      <point x="581" y="437" type="line"/>
      <point x="581" y="105" type="line"/>
      <point x="401" y="105" type="line"/>
      <point x="451" y="185"/>
      <point x="481" y="298"/>
      <point x="489" y="437" type="curve"/>
    </contour>
  </outline>
</glyph>
<glyph name="cid01097" format="2">
  <advance width="1000"/>
  <unicode hex="0435"/>
  <outline>
    <contour>
      <point x="787" y="229" type="line"/>
      <point x="787" y="280" type="line" smooth="yes"/>
      <point x="787" y="462"/>
      <point x="669" y="586"/>
      <point x="495" y="586" type="curve" smooth="yes"/>
      <point x="311" y="586"/>
      <point x="181" y="453"/>
      <point x="181" y="266" type="curve" smooth="yes"/>
      <point x="181" y="77"/>
      <point x="308" y="-46"/>
      <point x="503" y="-46" type="curve" smooth="yes"/>
      <point x="625" y="-46"/>
      <point x="719" y="-10"/>
      <point x="794" y="65" type="curve"/>
      <point x="700" y="176" type="line"/>
      <point x="656" y="126"/>
      <point x="593" y="98"/>
      <point x="522" y="98" type="curve" smooth="yes"/>
      <point x="434" y="98"/>
      <point x="369" y="151"/>
      <point x="362" y="229" type="curve"/>
    </contour>
    <contour>
      <point x="365" y="351" type="line"/>
      <point x="377" y="413"/>
      <point x="427" y="457"/>
      <point x="489" y="457" type="curve" smooth="yes"/>
      <point x="555" y="457"/>
      <point x="600" y="416"/>
      <point x="605" y="351" type="curve"/>
    </contour>
  </outline>
</glyph>
<glyph name="cid01099" format="2">
  <advance width="1000"/>
  <unicode hex="0436"/>
  <outline>
    <contour>
      <point x="78" y="-25" type="line"/>
      <point x="278" y="-25" type="line"/>
      <point x="394" y="229" type="line"/>
      <point x="407" y="224"/>
      <point x="416" y="222"/>
      <point x="421" y="221" type="curve"/>
      <point x="421" y="-25" type="line"/>
      <point x="579" y="-25" type="line"/>
      <point x="579" y="221" type="line"/>
      <point x="585" y="222"/>
      <point x="591" y="224"/>
      <point x="606" y="229" type="curve"/>
      <point x="722" y="-25" type="line"/>
      <point x="922" y="-25" type="line"/>
      <point x="737" y="303" type="line"/>
      <point x="814" y="354"/>
      <point x="859" y="442"/>
      <point x="869" y="565" type="curve"/>
      <point x="711" y="565" type="line"/>
      <point x="704" y="466"/>
      <point x="655" y="394"/>
      <point x="579" y="367" type="curve"/>
      <point x="579" y="565" type="line"/>
      <point x="421" y="565" type="line"/>
      <point x="421" y="367" type="line"/>
      <point x="345" y="393"/>
      <point x="296" y="467"/>
      <point x="289" y="565" type="curve"/>
      <point x="131" y="565" type="line"/>
      <point x="141" y="442"/>
      <point x="186" y="354"/>
      <point x="263" y="303" type="curve"/>
    </contour>
  </outline>
</glyph>
<glyph name="cid01100" format="2">
  <advance width="1000"/>
  <unicode hex="0437"/>
  <outline>
    <contour>
      <point x="391" y="339" type="line"/>
      <point x="391" y="222" type="line"/>
      <point x="483" y="222" type="line" smooth="yes"/>
      <point x="556" y="222"/>
      <point x="594" y="197"/>
      <point x="594" y="150" type="curve" smooth="yes"/>
      <point x="594" y="104"/>
      <point x="561" y="79"/>
      <point x="500" y="79" type="curve" smooth="yes"/>
      <point x="434" y="79"/>
      <point x="376" y="107"/>
      <point x="330" y="162" type="curve"/>
      <point x="222" y="85" type="line"/>
      <point x="287" y="-5"/>
      <point x="372" y="-46"/>
      <point x="498" y="-46" type="curve" smooth="yes"/>
      <point x="661" y="-46"/>
      <point x="758" y="24"/>
      <point x="758" y="144" type="curve" smooth="yes"/>
      <point x="758" y="218"/>
      <point x="708" y="269"/>
      <point x="617" y="289" type="curve"/>
      <point x="617" y="294" type="line"/>
      <point x="690" y="310"/>
      <point x="731" y="356"/>
      <point x="731" y="423" type="curve" smooth="yes"/>
      <point x="731" y="515"/>
      <point x="629" y="586"/>
      <point x="495" y="586" type="curve" smooth="yes"/>
      <point x="394" y="586"/>
      <point x="306" y="547"/>
      <point x="247" y="477" type="curve"/>
      <point x="360" y="403" type="line"/>
      <point x="398" y="448"/>
      <point x="437" y="467"/>
      <point x="493" y="467" type="curve" smooth="yes"/>
      <point x="537" y="467"/>
      <point x="571" y="439"/>
      <point x="571" y="403" type="curve" smooth="yes"/>
      <point x="571" y="361"/>
      <point x="540" y="339"/>
      <point x="483" y="339" type="curve" smooth="yes"/>
    </contour>
  </outline>
</glyph>
<glyph name="cid01102" format="2">
  <advance width="1000"/>
  <unicode hex="0439"/>
  <outline>
    <contour>
      <point x="578" y="791" type="line"/>
      <point x="568" y="751"/>
      <point x="542" y="732"/>
      <point x="500" y="732" type="curve" smooth="yes"/>
      <point x="458" y="732"/>
      <point x="432" y="752"/>
      <point x="422" y="791" type="curve"/>
      <point x="313" y="791" type="line"/>
      <point x="330" y="687"/>
      <point x="398" y="627"/>
      <point x="500" y="627" type="curve" smooth="yes"/>
      <point x="602" y="627"/>
      <point x="670" y="687"/>
      <point x="687" y="791" type="curve"/>
    </contour>
    <contour>
      <point x="210" y="565" type="line"/>
      <point x="210" y="-25" type="line"/>
      <point x="387" y="-25" type="line"/>
      <point x="387" y="45" type="line"/>
      <point x="614" y="276" type="line"/>
      <point x="614" y="-25" type="line"/>
      <point x="790" y="-25" type="line"/>
      <point x="790" y="565" type="line"/>
      <point x="614" y="565" type="line"/>
      <point x="614" y="501" type="line"/>
      <point x="386" y="270" type="line"/>
      <point x="386" y="565" type="line"/>
    </contour>
  </outline>
</glyph>
<glyph name="cid01103" format="2">
  <advance width="1000"/>
  <unicode hex="043A"/>
  <outline>
    <contour>
      <point x="220" y="565" type="line"/>
      <point x="220" y="-25" type="line"/>
      <point x="394" y="-25" type="line"/>
      <point x="394" y="219" type="line"/>
      <point x="418" y="219"/>
      <point x="439" y="221"/>
      <point x="457" y="226" type="curve"/>
      <point x="618" y="-25" type="line"/>
      <point x="856" y="-25" type="line"/>
      <point x="606" y="286" type="line"/>
      <point x="701" y="341"/>
      <point x="747" y="419"/>
      <point x="773" y="565" type="curve"/>
      <point x="584" y="565" type="line"/>
      <point x="579" y="442"/>
      <point x="507" y="365"/>
      <point x="394" y="362" type="curve"/>
      <point x="394" y="565" type="line"/>
    </contour>
  </outline>
</glyph>
<glyph name="cid01104" format="2">
  <advance width="1000"/>
  <unicode hex="043B"/>
  <outline>
    <contour>
      <point x="331" y="565" type="line"/>
      <point x="331" y="371" type="line" smooth="yes"/>
      <point x="331" y="188"/>
      <point x="311" y="103"/>
      <point x="268" y="103" type="curve" smooth="yes"/>
      <point x="243" y="103"/>
      <point x="213" y="128"/>
      <point x="190" y="169" type="curve"/>
      <point x="78" y="72" type="line"/>
      <point x="131" y="-9"/>
      <point x="192" y="-46"/>
      <point x="273" y="-46" type="curve" smooth="yes"/>
      <point x="366" y="-46"/>
      <point x="428" y="-7"/>
      <point x="458" y="68" type="curve" smooth="yes"/>
      <point x="484" y="133"/>
      <point x="497" y="237"/>
      <point x="497" y="370" type="curve" smooth="yes"/>
      <point x="497" y="426" type="line"/>
      <point x="605" y="426" type="line"/>
      <point x="605" y="-25" type="line"/>
      <point x="781" y="-25" type="line"/>
      <point x="781" y="565" type="line"/>
    </contour>
  </outline>
</glyph>
<glyph name="cid01105" format="2">
  <advance width="1000"/>
  <unicode hex="043C"/>
  <outline>
    <contour>
      <point x="160" y="565" type="line"/>
      <point x="160" y="-25" type="line"/>
      <point x="321" y="-25" type="line"/>
      <point x="321" y="233" type="line" smooth="yes"/>
      <point x="321" y="276"/>
      <point x="312" y="360"/>
      <point x="302" y="427" type="curve"/>
      <point x="307" y="427" type="line"/>
      <point x="326" y="331"/>
      <point x="341" y="270"/>
      <point x="357" y="230" type="curve" smooth="yes"/>
      <point x="427" y="52" type="line"/>
      <point x="573" y="52" type="line"/>
      <point x="643" y="230" type="line" smooth="yes"/>
      <point x="659" y="273"/>
      <point x="673" y="328"/>
      <point x="693" y="427" type="curve"/>
      <point x="698" y="427" type="line"/>
      <point x="689" y="369"/>
      <point x="679" y="272"/>
      <point x="679" y="233" type="curve" smooth="yes"/>
      <point x="679" y="-25" type="line"/>
      <point x="840" y="-25" type="line"/>
      <point x="840" y="565" type="line"/>
      <point x="625" y="565" type="line"/>
      <point x="523" y="293" type="line" smooth="yes"/>
      <point x="515" y="273"/>
      <point x="506" y="231"/>
      <point x="502" y="200" type="curve"/>
      <point x="498" y="200" type="line"/>
      <point x="492" y="240"/>
      <point x="486" y="267"/>
      <point x="477" y="293" type="curve" smooth="yes"/>
      <point x="375" y="565" type="line"/>
    </contour>
  </outline>
</glyph>
<glyph name="cid01107" format="2">
  <advance width="1000"/>
  <unicode hex="043E"/>
  <outline>
    <contour>
      <point x="501" y="586" type="curve" smooth="yes"/>
      <point x="314" y="586"/>
      <point x="183" y="457"/>
      <point x="183" y="271" type="curve" smooth="yes"/>
      <point x="183" y="82"/>
      <point x="311" y="-46"/>
      <point x="500" y="-46" type="curve" smooth="yes"/>
      <point x="688" y="-46"/>
      <point x="817" y="82"/>
      <point x="817" y="271" type="curve" smooth="yes"/>
      <point x="817" y="455"/>
      <point x="686" y="586"/>
    </contour>
    <contour>
      <point x="499" y="448" type="curve" smooth="yes"/>
      <point x="579" y="448"/>
      <point x="636" y="375"/>
      <point x="636" y="273" type="curve" smooth="yes"/>
      <point x="636" y="169"/>
      <point x="581" y="98"/>
      <point x="500" y="98" type="curve" smooth="yes"/>
      <point x="419" y="98"/>
      <point x="364" y="168"/>
      <point x="364" y="273" type="curve" smooth="yes"/>
      <point x="364" y="374"/>
      <point x="421" y="448"/>
    </contour>
  </outline>
</glyph>
<glyph name="cid01108" format="2">
  <advance width="1000"/>
  <unicode hex="043F"/>
  <outline>
    <contour>
      <point x="165" y="565" type="line"/>
      <point x="165" y="421" type="line"/>
      <point x="235" y="421" type="line"/>
      <point x="235" y="-25" type="line"/>
      <point x="412" y="-25" type="line"/>
      <point x="412" y="421" type="line"/>
      <point x="589" y="421" type="line"/>
      <point x="589" y="-25" type="line"/>
      <point x="765" y="-25" type="line"/>
      <point x="765" y="421" type="line"/>
      <point x="835" y="421" type="line"/>
      <point x="835" y="565" type="line"/>
    </contour>
  </outline>
</glyph>
<glyph name="cid01109" format="2">
  <advance width="1000"/>
  <unicode hex="0440"/>
  <outline>
    <contour>
      <point x="384" y="566" type="line"/>
      <point x="208" y="566" type="line"/>
      <point x="208" y="-119" type="line"/>
      <point x="385" y="-119" type="line"/>
      <point x="385" y="50" type="line"/>
      <point x="431" y="-3"/>
      <point x="499" y="-34"/>
      <point x="569" y="-34" type="curve" smooth="yes"/>
      <point x="737" y="-34"/>
      <point x="844" y="84"/>
      <point x="844" y="270" type="curve" smooth="yes"/>
      <point x="844" y="451"/>
      <point x="731" y="580"/>
      <point x="573" y="580" type="curve" smooth="yes"/>
      <point x="492" y="580"/>
      <point x="423" y="542"/>
      <point x="384" y="475" type="curve"/>
    </contour>
    <contour>
      <point x="385" y="335" type="line"/>
      <point x="417" y="405"/>
      <point x="467" y="444"/>
      <point x="523" y="444" type="curve" smooth="yes"/>
      <point x="603" y="444"/>
      <point x="658" y="374"/>
      <point x="658" y="271" type="curve" smooth="yes"/>
      <point x="658" y="167"/>
      <point x="606" y="101"/>
      <point x="523" y="101" type="curve" smooth="yes"/>
      <point x="465" y="101"/>
      <point x="415" y="136"/>
      <point x="385" y="198" type="curve"/>
    </contour>
  </outline>
</glyph>
<glyph name="cid01110" format="2">
  <advance width="1000"/>
  <unicode hex="0441"/>
  <outline>
    <contour>
      <point x="683" y="163" type="line"/>
      <point x="643" y="118"/>
      <point x="599" y="99"/>
      <point x="540" y="99" type="curve" smooth="yes"/>
      <point x="443" y="99"/>
      <point x="376" y="169"/>
      <point x="376" y="270" type="curve" smooth="yes"/>
      <point x="376" y="374"/>
      <point x="442" y="445"/>
      <point x="538" y="445" type="curve" smooth="yes"/>
      <point x="596" y="445"/>
      <point x="643" y="428"/>
      <point x="687" y="390" type="curve"/>
      <point x="771" y="505" type="line"/>
      <point x="716" y="556"/>
      <point x="629" y="586"/>
      <point x="534" y="586" type="curve" smooth="yes"/>
      <point x="338" y="586"/>
      <point x="192" y="452"/>
      <point x="192" y="271" type="curve" smooth="yes"/>
      <point x="192" y="86"/>
      <point x="332" y="-46"/>
      <point x="529" y="-46" type="curve" smooth="yes"/>
      <point x="644" y="-46"/>
      <point x="730" y="-11"/>
      <point x="783" y="58" type="curve"/>
    </contour>
  </outline>
</glyph>
<glyph name="cid01111" format="2">
  <advance width="1000"/>
  <unicode hex="0442"/>
  <outline>
    <contour>
      <point x="220" y="565" type="line"/>
      <point x="220" y="421" type="line"/>
      <point x="412" y="421" type="line"/>
      <point x="412" y="-25" type="line"/>
      <point x="588" y="-25" type="line"/>
      <point x="588" y="421" type="line"/>
      <point x="780" y="421" type="line"/>
      <point x="780" y="565" type="line"/>
    </contour>
  </outline>
</glyph>
<glyph name="cid01112" format="2">
  <advance width="1000"/>
  <unicode hex="0443"/>
  <outline>
    <contour>
      <point x="173" y="565" type="line"/>
      <point x="414" y="91" type="line"/>
      <point x="403" y="66" type="line" smooth="yes"/>
      <point x="386" y="28"/>
      <point x="351" y="15"/>
      <point x="267" y="15" type="curve" smooth="yes"/>
      <point x="225" y="15" type="line"/>
      <point x="273" y="-119" type="line"/>
      <point x="300" y="-119" type="line" smooth="yes"/>
      <point x="461" y="-118"/>
      <point x="533" y="-73"/>
      <point x="598" y="72" type="curve" smooth="yes"/>
      <point x="826" y="565" type="line"/>
      <point x="630" y="565" type="line"/>
      <point x="532" y="302" type="line" smooth="yes"/>
      <point x="517" y="261"/>
      <point x="512" y="246"/>
      <point x="507" y="225" type="curve"/>
      <point x="504" y="225" type="line"/>
      <point x="497" y="256"/>
      <point x="491" y="275"/>
      <point x="480" y="303" type="curve" smooth="yes"/>
      <point x="378" y="565" type="line"/>
    </contour>
  </outline>
</glyph>
<glyph name="cid01113" format="2">
  <advance width="1000"/>
  <unicode hex="0444"/>
  <outline>
    <contour>
      <point x="416" y="830" type="line"/>
      <point x="416" y="522" type="line"/>
      <point x="384" y="540"/>
      <point x="352" y="549"/>
      <point x="316" y="549" type="curve" smooth="yes"/>
      <point x="188" y="549"/>
      <point x="90" y="429"/>
      <point x="90" y="270" type="curve" smooth="yes"/>
      <point x="90" y="114"/>
      <point x="185" y="1"/>
      <point x="315" y="1" type="curve" smooth="yes"/>
      <point x="352" y="1"/>
      <point x="386" y="10"/>
      <point x="416" y="28" type="curve"/>
      <point x="416" y="-119" type="line"/>
      <point x="584" y="-119" type="line"/>
      <point x="584" y="28" type="line"/>
      <point x="615" y="10"/>
      <point x="648" y="1"/>
      <point x="684" y="1" type="curve" smooth="yes"/>
      <point x="815" y="1"/>
      <point x="910" y="114"/>
      <point x="910" y="270" type="curve" smooth="yes"/>
      <point x="910" y="428"/>
      <point x="812" y="549"/>
      <point x="684" y="549" type="curve" smooth="yes"/>
      <point x="648" y="549"/>
      <point x="614" y="540"/>
      <point x="584" y="522" type="curve"/>
      <point x="584" y="830" type="line"/>
    </contour>
    <contour>
      <point x="421" y="162" type="line"/>
      <point x="403" y="137"/>
      <point x="381" y="125"/>
      <point x="351" y="125" type="curve" smooth="yes"/>
      <point x="289" y="125"/>
      <point x="253" y="178"/>
      <point x="253" y="269" type="curve" smooth="yes"/>
      <point x="253" y="361"/>
      <point x="289" y="414"/>
      <point x="352" y="414" type="curve" smooth="yes"/>
      <point x="379" y="414"/>
      <point x="401" y="402"/>
      <point x="421" y="377" type="curve"/>
    </contour>
    <contour>
      <point x="579" y="377" type="line"/>
      <point x="598" y="402"/>
      <point x="621" y="414"/>
      <point x="649" y="414" type="curve" smooth="yes"/>
      <point x="711" y="414"/>
      <point x="747" y="361"/>
      <point x="747" y="270" type="curve" smooth="yes"/>
      <point x="747" y="178"/>
      <point x="711" y="125"/>
      <point x="648" y="125" type="curve" smooth="yes"/>
      <point x="619" y="125"/>
      <point x="597" y="137"/>
      <point x="579" y="162" type="curve"/>
    </contour>
  </outline>
</glyph>
<glyph name="cid01114" format="2">
  <advance width="1000"/>
  <unicode hex="0445"/>
  <outline>
    <contour>
      <point x="184" y="565" type="line"/>
      <point x="388" y="274" type="line"/>
      <point x="177" y="-25" type="line"/>
      <point x="388" y="-25" type="line"/>
      <point x="500" y="159" type="line"/>
      <point x="612" y="-25" type="line"/>
      <point x="823" y="-25" type="line"/>
      <point x="612" y="274" type="line"/>
      <point x="816" y="565" type="line"/>
      <point x="609" y="565" type="line"/>
      <point x="500" y="385" type="line"/>
      <point x="391" y="565" type="line"/>
    </contour>
  </outline>
</glyph>
<glyph name="cid01115" format="2">
  <advance width="1000"/>
  <unicode hex="0446"/>
  <outline>
    <contour>
      <point x="208" y="565" type="line"/>
      <point x="208" y="-25" type="line"/>
      <point x="732" y="-25" type="line"/>
      <point x="732" y="-119" type="line"/>
      <point x="869" y="-119" type="line"/>
      <point x="869" y="119" type="line"/>
      <point x="764" y="119" type="line"/>
      <point x="764" y="565" type="line"/>
      <point x="588" y="565" type="line"/>
      <point x="588" y="119" type="line"/>
      <point x="384" y="119" type="line"/>
      <point x="384" y="565" type="line"/>
    </contour>
  </outline>
</glyph>
<glyph name="cid01116" format="2">
  <advance width="1000"/>
  <unicode hex="0447"/>
  <outline>
    <contour>
      <point x="210" y="565" type="line"/>
      <point x="210" y="342" type="line" smooth="yes"/>
      <point x="210" y="211"/>
      <point x="272" y="149"/>
      <point x="403" y="149" type="curve" smooth="yes"/>
      <point x="482" y="149"/>
      <point x="542" y="163"/>
      <point x="600" y="195" type="curve"/>
      <point x="600" y="-25" type="line"/>
      <point x="774" y="-25" type="line"/>
      <point x="774" y="565" type="line"/>
      <point x="600" y="565" type="line"/>
      <point x="600" y="324" type="line"/>
      <point x="570" y="308"/>
      <point x="514" y="296"/>
      <point x="472" y="296" type="curve" smooth="yes"/>
      <point x="408" y="296"/>
      <point x="384" y="320"/>
      <point x="384" y="383" type="curve" smooth="yes"/>
      <point x="384" y="565" type="line"/>
    </contour>
  </outline>
</glyph>
<glyph name="cid01117" format="2">
  <advance width="1000"/>
  <unicode hex="0448"/>
  <outline>
    <contour>
      <point x="105" y="565" type="line"/>
      <point x="105" y="-25" type="line"/>
      <point x="895" y="-25" type="line"/>
      <point x="895" y="565" type="line"/>
      <point x="721" y="565" type="line"/>
      <point x="721" y="119" type="line"/>
      <point x="584" y="119" type="line"/>
      <point x="584" y="565" type="line"/>
      <point x="415" y="565" type="line"/>
      <point x="415" y="119" type="line"/>
      <point x="279" y="119" type="line"/>
      <point x="279" y="565" type="line"/>
    </contour>
  </outline>
</glyph>
<glyph name="cid01118" format="2">
  <advance width="1000"/>
  <unicode hex="0449"/>
  <outline>
    <contour>
      <point x="105" y="565" type="line"/>
      <point x="105" y="-25" type="line"/>
      <point x="831" y="-25" type="line"/>
      <point x="831" y="-119" type="line"/>
      <point x="969" y="-119" type="line"/>
      <point x="969" y="119" type="line"/>
      <point x="879" y="119" type="line"/>
      <point x="879" y="565" type="line"/>
      <point x="705" y="565" type="line"/>
      <point x="705" y="119" type="line"/>
      <point x="577" y="119" type="line"/>
      <point x="577" y="565" type="line"/>
      <point x="407" y="565" type="line"/>
      <point x="407" y="119" type="line"/>
      <point x="279" y="119" type="line"/>
      <point x="279" y="565" type="line"/>
    </contour>
  </outline>
</glyph>
<glyph name="cid01119" format="2">
  <advance width="1000"/>
  <unicode hex="044A"/>
  <outline>
    <contour>
      <point x="134" y="565" type="line"/>
      <point x="134" y="431" type="line"/>
      <point x="279" y="431" type="line"/>
      <point x="279" y="-25" type="line"/>
      <point x="581" y="-25" type="line" smooth="yes"/>
      <point x="671" y="-25"/>
      <point x="721" y="-14"/>
      <point x="765" y="15" type="curve" smooth="yes"/>
      <point x="815" y="48"/>
      <point x="843" y="111"/>
      <point x="843" y="190" type="curve" smooth="yes"/>
      <point x="843" y="257"/>
      <point x="813" y="315"/>
      <point x="758" y="356" type="curve" smooth="yes"/>
      <point x="715" y="387"/>
      <point x="655" y="404"/>
      <point x="582" y="404" type="curve" smooth="yes"/>
      <point x="453" y="404" type="line"/>
      <point x="453" y="565" type="line"/>
    </contour>
    <contour>
      <point x="453" y="270" type="line"/>
      <point x="570" y="270" type="line" smooth="yes"/>
      <point x="640" y="270"/>
      <point x="674" y="244"/>
      <point x="674" y="190" type="curve" smooth="yes"/>
      <point x="674" y="134"/>
      <point x="642" y="109"/>
      <point x="570" y="109" type="curve" smooth="yes"/>
      <point x="453" y="109" type="line"/>
    </contour>
  </outline>
</glyph>
<glyph name="cid01120" format="2">
  <advance width="1000"/>
  <unicode hex="044B"/>
  <outline>
    <contour>
      <point x="115" y="565" type="line"/>
      <point x="115" y="-25" type="line"/>
      <point x="407" y="-25" type="line" smooth="yes"/>
      <point x="493" y="-25"/>
      <point x="541" y="-15"/>
      <point x="585" y="11" type="curve" smooth="yes"/>
      <point x="639" y="44"/>
      <point x="669" y="107"/>
      <point x="669" y="187" type="curve" smooth="yes"/>
      <point x="669" y="254"/>
      <point x="640" y="313"/>
      <point x="586" y="354" type="curve" smooth="yes"/>
      <point x="544" y="387"/>
      <point x="482" y="404"/>
      <point x="408" y="404" type="curve" smooth="yes"/>
      <point x="289" y="404" type="line"/>
      <point x="289" y="565" type="line"/>
    </contour>
    <contour>
      <point x="289" y="270" type="line"/>
      <point x="396" y="270" type="line" smooth="yes"/>
      <point x="467" y="270"/>
      <point x="500" y="243"/>
      <point x="500" y="185" type="curve" smooth="yes"/>
      <point x="500" y="133"/>
      <point x="468" y="109"/>
      <point x="396" y="109" type="curve" smooth="yes"/>
      <point x="289" y="109" type="line"/>
    </contour>
    <contour>
      <point x="701" y="565" type="line"/>
      <point x="701" y="-25" type="line"/>
      <point x="880" y="-25" type="line"/>
      <point x="880" y="565" type="line"/>
    </contour>
  </outline>
</glyph>
